<?xml version="1.0" encoding="UTF-8"?>
<svg id="Layer_1" data-name="Layer 1" xmlns="http://www.w3.org/2000/svg" viewBox="0 0 100 150">
  <defs>
    <style>
      .cls-1 {
        fill: #f0ebde;
      }

      .cls-2 {
        fill: #dbd5ca;
      }

      .cls-3 {
        stroke-width: 2.04px;
      }

      .cls-3, .cls-4, .cls-5, .cls-6 {
        fill: none;
        stroke: #4a3e37;
        stroke-miterlimit: 10;
      }

      .cls-4 {
        stroke-width: 1.23px;
      }

      .cls-5 {
        stroke-width: 1.92px;
      }

      .cls-6 {
        stroke-width: 1.97px;
      }
    </style>
  </defs>
  <g id="g2077">
    <path id="path4339" class="cls-1" d="M92.46,130.04L15.17,148.66s15.11-12.01-3.5-59.24C-3.44,55.19-.73,25.17,5.31,20.17,13.58,17.97,79.42,2.16,79.42,2.16c0,0-4.06,31.79,8.43,65.24,7.72,12.64,19.24,47.43,4.61,62.64Z"/>
    <path id="path3175" class="cls-2" d="M20.42,127.04l-14.47,3.6s-5.25,21.21,8.75,18.21c2.54-3.8,7.79-13.21,5.73-21.81h0Z"/>
    <path id="path4336" class="cls-2" d="M8.65,19.57S81.49,.36,82.76,.76s7.79,1.4,5.88,21.01C11.83,40.18,11.36,40.38,11.36,40.38c0,0,9.86-12.21-2.7-20.81h0Z"/>
    <path id="path18" class="cls-4" d="M20.93,126.8l-14.95,3.68s-4.86,21.8,8.98,18.41c.65-.16,6.67-9.28,6.02-21.26-.02-.41-.05-.83-.08-1.25-.85-11.79-4.82-26.67-11.05-41.37C-1.04,59.32-1.83,26.23,4.8,20.93c1.23-.98,3.39-1.68,5.05-.47,10.65,7.71,1.94,19.89,1.94,19.89L88.57,21.68s2.56-20.12-5.91-20.3C74.37,1.2,6.85,19.94,6.85,19.94"/>
    <path id="path20" class="cls-4" d="M14.95,148.89l76.52-18.7s9.13-3.89,7.75-26.91c-1.27-21.18-7.13-25.98-11.72-37.35-3.78-9.35-8.54-33.74-8.22-42"/>
    <path id="path24" class="cls-5" d="M34.85,111.57c8.31-1.75,42.49-9.74,50.83-11.52"/>
    <path id="path22" class="cls-3" d="M28.16,91.32l49.71-12.55"/>
    <path id="path26" class="cls-3" d="M20.18,69.26l49.71-12.55"/>
    <path id="path26-7" class="cls-3" d="M23.82,80.2l49.71-12.55"/>
    <path id="path26-9" class="cls-6" d="M31.43,101l50.45-11.51"/>
    <path id="path26-7-2" class="cls-3" d="M18.05,59.36l22.29-5.5"/>
  </g>
</svg>