<svg id="W" xmlns="http://www.w3.org/2000/svg" viewBox="0 0 2000 2000">
  <path d="M832.24,585.69c116.45-75.02,305.77-163.56,440.42-94.1,36.06,18.95,64.7,50.45,82.94,86.61,11.22,21.73,19.38,45.05,22.13,69.55,16.15,160.85-171.01,280.81-303.08,328.95-117.53,43.24-248.79,61.48-370.79,25.94-84.89-23.08-165.01-70.41-212.31-146.43-49.61-78.45-58.08-175.78-43.26-265.66,2.07-11.76,4.81-23.69,8.22-35.12,73.3-232.74,359.67-378.24,586.6-414.1,123.17-20.37,250.69-15.09,371.16,18.24,340.98,88.53,541.85,318.02,578.31,669.63,29.68,254.06-78.21,506.57-236.67,700.39-145.31,175.39-349.06,320.88-581.91,337.58-26.86,2.36-54.72,3.65-81.7,3.46-137.24-.22-238.85-45.37-353.1-116.62-46.2-28.53-90.92-60.05-134.01-92.89-48.85-36.54-92-80.59-142.8-114.26-50.39-33.35-108.1-54.85-168.02-63.11-73.52-9.59-153.78-4.48-218.31,34.62-24.44,15.31-45.15,37.63-52.96,65.59-7.28,26.49-4.74,58.62,11.9,80.99,8.24,11.02,19.85,19.41,32.95,25.17,95.99,41.98,301.83-24.01,393.38-70.34,62.18-30.42,124.91-60.62,188.41-88.31,64.43-27.2,131.88-46.22,199.52-63.52,60.39-14.85,121.38-27.09,183.53-32.79,31.51-2.75,63.09-3.89,94.83-.69,20.01,2.1,41.21,6.12,60.28,14.74,42.59,18.99,75.74,56.84,87.45,102.09,24.52,91.18-32.38,193.96-130.79,201.62-118.77,9.92-226.45-91.65-310.02-163.57-8.06-7.07-17.17-14.71-25.35-21.64-26.1-22.15-50.53-46.28-74.9-69.88-48.89-48.17-96.78-80.95-166.63-90.35-79.49-10.71-177.05,14.94-222.77,84.9-15.99,25.11-21.51,55.45-16.07,84.61,1.07,5.79,2.85,11.39,5.3,16.77,33.47,68.15,143.01,90.83,212.67,95.1,121.58,7.25,243.24-21.13,355.22-67.42,84.16-35.1,161.95-85.13,228.21-147.83,129.4-121.23,210.21-281.7,307.12-428.17,20.4-32.16,41.1-65.25,60.62-97.92,47.63-78.97,92.35-159.81,138.71-239.63,15.58-26.71,31.22-53.66,49.22-78.87,17.94-25.37,37.39-49.65,58.18-72.72,56.93-62.25,142.93-139.91,227.66-154.1,.61-.09,1.18,.34,1.27,.95,.09,.59-.31,1.14-.88,1.25-44.84,10.44-83.84,37.06-119.55,65.14-59.32,47.99-110.66,105.62-154,168.3-8.61,12.56-16.86,25.37-24.66,38.42-54.49,92.91-105.02,188.05-160.27,280.62-30.86,52.6-64.78,105.59-97.57,157.06-160.24,264.01-280.23,460.82-593.85,558.12-130.36,39.82-285.26,59.12-414.93,7.84-44.19-18.37-91.96-51.31-98.8-102.61-7.7-50.63,15.36-98.73,54.4-130.22,58.33-47.2,139.01-65.38,212.83-59.52,117.26,9.32,197.75,52.15,285.97,126.42,55.53,45.34,98.03,103.91,148.42,153.46,20.79,20.03,44.04,38.37,70.55,49.9,53.82,23.76,117.5,14.46,152.26-36.1,45.87-66.84,24.49-162.95-47.65-201.1-58.4-33.03-174.74-17.03-240.76-6.98-90.17,15.07-180.04,36.69-266.12,67.54-28.62,10.87-56.37,23.67-84.37,35.98-84.68,37.13-165.93,83.89-255.49,109.11,0,0-11.14,3.29-11.14,3.29,0,0-11.16,3.2-11.16,3.2-67.52,18.4-137.85,33.47-208.28,25.48-31.89-4.06-66.24-15.81-86.33-42.74-15.3-20.25-20.4-46.3-18.88-71.19,1.41-24.83,11.47-49.02,27.6-67.88,79-89.3,253.39-83.97,357.97-48.13,29.76,10.07,58.26,23.62,86.47,37.41,55.88,27.53,109.57,60.96,158.74,98.57,36.56,27.83,72.93,55.2,110.24,81.79,120.72,86.04,217.74,146.95,371.7,145.75,18.71,.02,38.32-1.01,56.97-2.56,71.93-5.23,142.5-24.14,208.11-53.95,325.07-146.89,581.82-569.38,556.31-925.76-26.44-345.71-187.27-587.99-529.45-684.5-190.1-55.56-398.2-35.53-578.98,43.04-145.54,64.09-299.51,176.86-347.67,334.87-4.09,14.21-7.11,28.62-8.94,43.3-10.75,80.26-1.61,166.64,42.65,235.93,27.57,43.68,67.94,78.2,113.62,101.92,39.72,20.77,83.01,34.15,127.01,42.57,73.81,14.16,150.3,7.64,223.25-9.2,115.91-28.29,230.81-81.5,313.09-169.62,38.97-42.83,68.77-98.07,62.78-157.13-2.79-28.81-14.19-56.62-29.28-81.2-50.58-82.75-147.15-95.53-235.92-80.02-60.24,10.25-118.12,31.15-173.63,56.57-27.86,12.82-55.17,26.95-81.96,42.06-.56,.32-1.27,.12-1.59-.44-.3-.54-.13-1.22,.38-1.55h0Z"/>
</svg>