<svg id="W" xmlns="http://www.w3.org/2000/svg" viewBox="0 0 2000 2000">
  <path d="M831.99,585.07c116.63-75.14,306.23-163.81,441.08-94.24,36.12,18.98,64.8,50.53,83.06,86.74,11.23,21.77,19.41,45.12,22.16,69.65,16.18,161.09-171.27,281.23-303.53,329.45-117.71,43.3-249.16,61.57-371.34,25.97-85.01-23.11-165.26-70.51-212.63-146.65-49.68-78.56-58.16-176.05-43.32-266.06,2.07-11.78,4.82-23.72,8.23-35.18,73.41-233.09,360.21-378.81,587.48-414.72,123.36-20.4,251.07-15.11,371.72,18.27,341.49,88.67,542.66,318.5,579.18,670.64,29.72,254.45-78.33,507.34-237.03,701.44-145.53,175.65-349.59,321.37-582.79,338.09-26.9,2.36-54.8,3.65-81.82,3.46-137.45-.22-239.21-45.44-353.63-116.79-46.27-28.58-91.06-60.14-134.21-93.03-48.92-36.59-92.14-80.71-143.01-114.43-50.46-33.4-108.27-54.94-168.27-63.2-73.63-9.6-154.01-4.48-218.64,34.67-24.48,15.33-45.21,37.69-53.04,65.69-7.29,26.53-4.75,58.7,11.92,81.12,8.25,11.04,19.88,19.44,33,25.21,96.13,42.04,302.28-24.05,393.98-70.45,62.27-30.47,125.1-60.71,188.7-88.44,64.53-27.24,132.08-46.29,199.82-63.61,60.48-14.87,121.57-27.13,183.81-32.84,31.56-2.76,63.19-3.9,94.98-.69,20.04,2.11,41.27,6.13,60.37,14.76,42.65,19.02,75.86,56.93,87.58,102.24,24.56,91.32-32.43,194.25-130.99,201.92-118.95,9.93-226.79-91.79-310.49-163.81-8.07-7.08-17.19-14.73-25.38-21.67-26.14-22.18-50.6-46.35-75.01-69.98-48.96-48.25-96.93-81.07-166.88-90.49-79.61-10.73-177.32,14.97-223.1,85.03-16.02,25.15-21.54,55.53-16.1,84.74,1.07,5.8,2.85,11.41,5.31,16.8,33.52,68.25,143.22,90.97,212.99,95.25,121.77,7.26,243.6-21.16,355.76-67.52,84.29-35.15,162.2-85.26,228.55-148.05,129.59-121.42,210.53-282.13,307.58-428.82,20.43-32.21,41.16-65.35,60.71-98.06,47.7-79.09,92.49-160.05,138.92-239.99,15.6-26.75,31.27-53.74,49.29-78.99,17.97-25.41,37.44-49.72,58.26-72.83,57.01-62.35,143.15-140.12,228-154.33,.61-.09,1.18,.34,1.27,.95,.09,.59-.31,1.14-.88,1.26-44.91,10.45-83.97,37.12-119.73,65.24-59.41,48.07-110.82,105.78-154.24,168.55-8.63,12.58-16.89,25.4-24.7,38.48-54.57,93.05-105.17,188.33-160.51,281.04-30.91,52.68-64.87,105.75-97.71,157.29-160.48,264.4-280.65,461.51-594.74,558.96-130.56,39.88-285.69,59.21-415.55,7.86-44.26-18.4-92.1-51.38-98.95-102.77-7.71-50.7,15.39-98.87,54.48-130.42,58.42-47.27,139.22-65.47,213.15-59.61,117.43,9.33,198.04,52.23,286.4,126.61,55.61,45.4,98.17,104.07,148.65,153.69,20.83,20.06,44.1,38.42,70.66,49.97,53.91,23.79,117.68,14.48,152.48-36.15,45.94-66.94,24.53-163.2-47.72-201.4-58.49-33.08-175-17.06-241.12-6.99-90.3,15.09-180.31,36.75-266.53,67.64-28.66,10.89-56.46,23.7-84.5,36.03-84.81,37.18-166.18,84.02-255.87,109.27,0,0-11.16,3.3-11.16,3.3,0,0-11.17,3.2-11.17,3.2-67.62,18.43-138.06,33.52-208.6,25.52-31.94-4.06-66.34-15.83-86.46-42.81-15.32-20.28-20.43-46.37-18.91-71.3,1.41-24.87,11.49-49.09,27.65-67.98,79.12-89.44,253.77-84.1,358.51-48.21,29.8,10.08,58.35,23.66,86.6,37.47,55.96,27.57,109.73,61.05,158.98,98.71,36.62,27.87,73.04,55.28,110.4,81.92,120.9,86.17,218.06,147.17,372.26,145.97,18.73,.02,38.38-1.02,57.06-2.56,72.04-5.23,142.71-24.18,208.42-54.03,325.56-147.11,582.7-570.23,557.15-927.15-26.48-346.23-187.55-588.87-530.24-685.53-190.38-55.65-398.8-35.58-579.85,43.11-145.76,64.19-299.96,177.13-348.19,335.37-4.1,14.23-7.12,28.66-8.96,43.36-10.77,80.38-1.61,166.89,42.72,236.28,27.62,43.74,68.04,78.32,113.79,102.08,39.78,20.8,83.14,34.2,127.2,42.63,73.92,14.19,150.53,7.65,223.58-9.22,116.08-28.34,231.15-81.62,313.56-169.87,39.03-42.9,68.88-98.22,62.88-157.37-2.8-28.85-14.21-56.71-29.32-81.32-50.66-82.87-147.37-95.67-236.27-80.14-60.34,10.27-118.3,31.2-173.89,56.65-27.9,12.84-55.26,26.99-82.09,42.13-.56,.32-1.27,.12-1.59-.44-.3-.54-.13-1.22,.38-1.55h0Z"/>
</svg>