<svg id="a" xmlns="http://www.w3.org/2000/svg" viewBox="0 0 2000 2000">
	<path class="bp inner" d="M732.39,1385.48c-1.11,5.19-1.81,10.46-2.36,15.74-3.56,36.34,1.38,75.86,24.09,105.52,18.99,26.58,53.32,32.82,84.11,31.26,51.85-3.06,103.66-25.57,137.22-65.83,39.61-47.37,58.7-113.23,47.65-174.16-10.92-63.64-65.43-103.67-123.36-123.59-115.5-38.56-255.83-23.92-359.71,39.63-187.47,117.13-270.17,410.04-123.67,588.95,48.58,59.08,116.15,99.56,187.1,127.14,208.55,82.94,477.84,50.09,665.96-69.99,84.35-54.98,151.8-130.11,172.13-230.45,12.59-58.56,11.7-119.25,2.41-178.36-26.59-161.71-106.82-311.71-208.86-438.6-27.67-34.03-57.44-66.29-88.98-96.66-6.03-5.92-11.93-11.97-17.69-18.14-22.96-24.67-43.82-51.15-62.32-79.35-52.54-80.99-93.18-184.76-59.5-280.78,1.74-4.99,3.95-10.11,6.07-14.89,25.24-53.63,67.31-104.68,126.16-122.3,63.4-18.29,138.62,9.97,174.79,64.99,30.83,45.9,17.02,102.4,3.12,150.93-11.73,40.38-25.48,81.79-37.08,122.11-11.74,39.95-22.2,82.21-31.64,122.89-20.42,91.37-43.4,185.32-34.08,278.96,4.84,44.05,20.41,87.78,50.94,120.51,52.44,56.19,120.06,76.44,189.27,36.89,30.37-17.42,58.03-44.63,66.96-78.59,18.37-76.62-48.6-173.6-93.76-232.67-54.15-69.62-116.9-132.56-181.73-192.51-11.99-11.34-23.67-22.96-35.1-34.89-145.5-149.24-229.31-354.28-140.83-556.15,33.05-72.58,85.89-137.08,155.11-177.67,68.82-39.98,151.96-55.6,230.51-42.18,67.03,11.51,128.3,48.23,173.56,98.59,120.04,133.72,38.39,314.34-116.11,372.79h0" fill="none" stroke="#000" stroke-linecap="round" stroke-linejoin="round" stroke-miterlimit="10"/><path class="bp inner" d="M732.39,1385.48c-2.39,10.36-3.57,20.98-4.11,31.59-1.83,36.97,6.63,77.13,34.08,103.71,20.41,18.49,49.44,23.08,76.07,22.46,43.03-1.59,86.1-16.06,120.11-42.83,59.14-48.16,89.09-129.48,77.36-204.7-14.05-92.53-109.64-139.72-193.17-154.64-96.06-17.18-198.2-5.95-286.73,36-89.27,43.08-158.8,120.76-200.96,209.6-77.92,163.96-65.07,364.82,77.18,489.35,47.61,42.81,103.63,73.51,162.4,97.22,220.92,89.13,502.85,58.26,704.94-65.84,77.75-48.57,147.04-116.53,182.67-202.35,25.43-61.88,34.7-129.8,32.57-196.35-7.64-197.7-102.2-389.04-226.28-539.86-29.61-35.74-61.64-69.54-95.65-101.22-5.44-5.14-10.75-10.4-15.97-15.78-34.69-35.8-65.3-76.29-88.86-120.18-28.64-54.1-49.75-118.55-31.59-178.98,4.11-12.91,9.8-25.25,16.32-37.2,9.28-16.86,20.54-32.59,33.73-45.74,16.46-16.4,35.57-28.42,57.64-33.18,31.59-6.51,65.68,1.39,92.82,18.69,15.46,9.94,28.9,23.35,37.19,39.75,8.44,16.68,9.98,35.41,8.41,54.31-3.96,41.34-17.23,81.26-28.39,121.36-14.83,50.89-29.48,102.91-41.67,154.44-17.25,72.56-35.79,145.65-44.95,220-5.13,43.51-6.95,87.74,.96,131.43,6.16,34.68,19.81,69.29,40.98,98.03,19.92,26.72,44.92,49.48,74.08,65.93,60.73,34.7,130.53,28.03,189.51-7.04,26.38-15.85,49.39-36.66,66.11-62.84,28.26-43.79,28.78-97.11,15.88-145.86-38.17-139.04-166.77-274.5-270.95-370.21-30.24-27.4-59.33-56.74-85.46-87.98-76.68-90.5-131.92-205.63-122.7-326.28,4.16-58.86,21.93-116.76,53.42-166.91,31.1-50.38,73.98-93.21,126.96-119.58,79.16-39.01,177.65-45.68,256.95-3.68,61.13,31.91,116.5,86.08,128.5,156.24,17.82,105.25-57.19,203.9-149.01,248.3" fill="none" stroke="#000" stroke-linecap="round" stroke-linejoin="round" stroke-miterlimit="10"/>
</svg>
