<?xml version="1.0" encoding="utf-8"?>
<!-- Generator: Adobe Illustrator 22.1.0, SVG Export Plug-In . SVG Version: 6.00 Build 0)  -->
<svg version="1.1" id="Layer_1" xmlns="http://www.w3.org/2000/svg" xmlns:xlink="http://www.w3.org/1999/xlink" x="0px" y="0px"
	 viewBox="0 0 563.8 182.8" style="enable-background:new 0 0 563.8 182.8;" xml:space="preserve">
<style type="text/css">
	.st0{fill:url(#SVGID_1_);stroke:#4C3D0F;stroke-width:1.79;stroke-miterlimit:10;stroke-opacity:0.15;}
	.st1{fill:#FFFFFF;}
</style>
<title>Asset 14</title>
<g id="Layer_2_1_">
	<g id="Layer_1-2">
		
			<linearGradient id="SVGID_1_" gradientUnits="userSpaceOnUse" x1="206.1696" y1="168.7227" x2="28.4473" y2="-8.9996" gradientTransform="matrix(1 0 0 -1 0 182)">
			<stop  offset="0" style="stop-color:#D4AF24"/>
			<stop  offset="1" style="stop-color:#997E19"/>
		</linearGradient>
		<path class="st0" d="M222.8,41.9c-0.7-3-1.6-5.9-2.7-8.7c-1.1-2.8-2.5-5.6-4.1-8.2c-3.2-5.2-7.3-9.8-12.2-13.5
			c-2.4-1.8-5-3.5-7.7-4.8c-2.7-1.4-5.5-2.5-8.4-3.3c-1.4-0.4-2.9-0.8-4.4-1.1s-3-0.5-4.4-0.7c-2.9-0.4-5.9-0.6-8.8-0.6
			c-5.9-0.1-11.8,0.5-17.6,1.8c-5.7,1.3-11.3,3.3-16.6,5.9c-5.3,2.6-10.3,5.7-14.9,9.2c-9.3,7.1-17.2,15.8-23.6,25.6
			c-2,3.1-3.8,6.4-5.4,9.8c-1.4-0.3-2.9-0.4-4.4-0.4c-6,0-11.8,1.6-17,4.7c-2.5,1.5-4.9,3.3-7.1,5.3c-2.1,2-4.1,4.2-5.9,6.5
			c-3.5,4.7-6.3,9.8-8.5,15.2c-2.2,5.4-3.8,11-4.9,16.7c-1.1,5.7-1.7,11.5-1.8,17.3c-0.1,5.8,0.4,11.6,1.4,17.3
			c0.3,1.7,0.7,3.5,1.1,5.2l-1.3,0.2c-5.7,1-11.3,2.2-16.9,3.8c-2.8,0.8-5.6,1.6-8.3,2.6c-2.7,1-5.4,2.2-8,3.5
			c-1.3,0.7-2.6,1.5-3.8,2.3c-1.3,0.9-2.6,1.9-3.6,3.1c-0.6,0.7-1.1,1.4-1.4,2.2c-0.4,0.9-0.6,1.8-0.6,2.8v0.4c0,0.1,0,0.3,0.1,0.4
			c0.1,0.3,0.1,0.6,0.3,0.9c0.2,0.5,0.5,1,0.9,1.4c0.6,0.6,1.3,1.2,2.1,1.6c1.4,0.8,2.8,1.4,4.3,1.8c1.4,0.4,2.9,0.8,4.4,1.1
			c2.9,0.5,5.8,0.9,8.8,1c5.8,0.3,11.7,0,17.5-0.7c5.8-0.7,11.5-1.9,17.1-3.5l0.6-0.2c0.4,0.5,0.8,0.9,1.2,1.4
			c2,2.1,4.2,4.1,6.6,5.8c2.4,1.7,5,3.2,7.6,4.4c5.4,2.4,11.2,3.9,17.1,4.3c3,0.2,6,0.1,9-0.4c3-0.5,6-1.4,8.7-2.8
			c2.8-1.4,5.3-3.4,7.3-5.8c1-1.2,1.9-2.6,2.6-4c0.7-1.5,1.2-3,1.5-4.6c0.6-3.3,0.2-6.6-1.2-9.6c-1.3-2.9-3.2-5.5-5.7-7.6
			c-2.3-2-5-3.6-7.8-4.8c-1.4-0.6-2.8-1.1-4.2-1.6c0.4-0.4,0.8-0.8,1.2-1.2c4-4.2,7.7-8.8,10.8-13.7c1.6-2.4,3.1-4.9,4.4-7.5
			s2.7-5.1,4-7.7c2.6-5.2,4.9-10.4,7.1-15.8s4.4-10.6,6.4-16l0,0c1.4-3.7,3.3-7.2,5.6-10.4c2-2.8,4.2-5.5,6.5-8.1
			c3.8-4.3,7.9-8.3,12-12.2l6.3-5.9c2.1-2,4.2-4,6.1-6.1c1-1.1,1.9-2.2,2.8-3.4c0.9-1.2,1.7-2.6,2.1-4.1c0.2-0.8,0.3-1.7,0.1-2.5
			c-0.2-0.9-0.6-1.7-1.2-2.3c-0.6-0.6-1.3-1.1-2.1-1.4c-0.8-0.3-1.6-0.4-2.5-0.3c-1.6,0.1-3.1,0.6-4.5,1.3c-1.3,0.7-2.6,1.5-3.8,2.4
			c-2.3,1.8-4.4,3.9-6.4,6.1c-3.8,4.4-7.1,9.2-9.9,14.4c-1.4,2.5-2.7,5.1-3.9,7.7c-0.6,1.3-1.2,2.6-1.8,3.9s-1.2,2.6-1.7,4
			c-4.5,10.6-8.5,21.3-12.9,31.9c-2.2,5.3-4.5,10.5-7,15.6c-1.3,2.6-2.6,5.1-3.9,7.6s-2.8,4.9-4.3,7.3c-3.7,5.6-8.1,10.8-12.9,15.5
			l-1-0.2c-5.7-1.2-11.6-1.8-17.4-1.7c-2.9,0-5.8,0.1-8.7,0.3s-5.8,0.4-8.6,0.7s-5.7,0.6-8.6,1.1c-1.7,0.2-3.4,0.5-5.1,0.8
			c-0.4-1.7-0.8-3.5-1.1-5.2c-1-5.6-1.4-11.3-1.3-16.9c0.1-11.4,2.4-22.6,6.7-33.1c2.1-5.2,4.9-10.2,8.3-14.7
			c1.7-2.2,3.6-4.3,5.6-6.2c2-1.9,4.3-3.6,6.7-5c4.8-2.8,10.3-4.3,15.8-4.3c1.1,0,2.2,0.1,3.4,0.2c-0.5,1.2-1,2.3-1.4,3.5
			c-1,2.8-1.8,5.6-2.3,8.5c-0.3,1.5-0.4,3-0.4,4.5c0,1.6,0.2,3.1,0.6,4.6c0.4,1.6,1.4,3.1,2.7,4.2c0.7,0.5,1.4,0.9,2.3,1.2
			c0.8,0.2,1.6,0.4,2.4,0.4c1.6,0.1,3.3-0.2,4.8-0.9c1.5-0.7,2.7-1.8,3.6-3.2c1.8-2.6,2.7-5.7,2.6-8.8c0-3.1-0.8-6.1-2.4-8.8
			c-1.6-2.7-4-4.8-6.8-6.1c-0.6-0.3-1.2-0.5-1.8-0.7c1.6-3.1,3.3-6.1,5.2-8.9c3.1-4.7,6.7-9.1,10.5-13.2c3.9-4.1,8.1-7.9,12.6-11.2
			c9-6.7,19.3-11.5,30.3-13.8c5.5-1.1,11-1.6,16.6-1.4c2.8,0.1,5.6,0.4,8.3,0.8c1.4,0.2,2.7,0.5,4,0.8s2.7,0.7,4,1.1
			c2.6,0.9,5.1,2,7.4,3.3c2.4,1.3,4.6,2.9,6.7,4.6c4.1,3.5,7.6,7.7,10.2,12.4c1.3,2.3,2.5,4.8,3.4,7.3c1,2.5,1.7,5.1,2.3,7.8
			c1.1,5.3,1.6,10.8,1.4,16.2c-0.5,11.1-3.1,22-7.8,32.2c-2.3,5.1-5.2,9.8-8.8,14.2c-1.8,2.1-3.7,4.2-5.7,6c-2,1.9-4.3,3.5-6.6,5
			c-4.7,3-9.9,5-15.4,5.8c-1.4,0.2-2.7,0.3-4.1,0.3c-1.4,0-2.7-0.1-4.1-0.2c-2.7-0.3-5.3-1.2-7.8-2.4c-2.4-1.2-4.5-3-6.2-5.2
			c-1.6-2.2-2.7-4.7-3.2-7.4c-0.2-1.4-0.4-2.7-0.4-4.1c0-1.4,0-2.8,0.2-4.1c0.3-2.7,1.3-5.3,2.9-7.5c0.8-1.1,1.7-2,2.8-2.8
			c1.1-0.8,2.3-1.3,3.5-1.7c2.6-0.8,5.3-0.7,7.8,0.1c1.2,0.4,2.4,1.1,3.4,1.9c1,0.8,1.7,1.9,2.1,3.2c0.4,1.3,0.4,2.7,0.1,4
			c-0.3,1.4-0.8,2.7-1.5,3.9c0,0.1,0,0.1,0,0.2c0.1,0,0.1,0,0.2,0l0,0c0.9-1.1,1.6-2.4,2.1-3.8c0.5-1.5,0.6-3,0.3-4.5
			c-0.4-1.5-1.1-3-2.3-4.1c-1.1-1.1-2.4-1.9-3.9-2.5c-2.9-1.1-6.1-1.2-9.1-0.4c-3,0.9-5.6,2.7-7.4,5.3c-1.7,2.5-2.8,5.4-3.1,8.5
			c-0.2,1.5-0.3,3-0.2,4.4c0,1.5,0.2,3,0.4,4.4c0.5,3,1.7,5.9,3.4,8.3c1.8,2.4,4.1,4.5,6.8,5.9c2.7,1.4,5.5,2.4,8.5,2.9
			c1.5,0.2,3,0.4,4.5,0.4c1.5,0,3-0.1,4.5-0.2c5.9-0.7,11.6-2.7,16.7-5.8c2.6-1.5,5-3.2,7.2-5.2c2.3-1.9,4.4-4,6.3-6.2
			c3.8-4.5,7.2-9.4,9.9-14.6c1.4-2.6,2.6-5.3,3.7-8c1.1-2.7,2.1-5.5,2.9-8.3c1.7-5.7,2.8-11.6,3.3-17.5
			C224.5,53.8,224.1,47.8,222.8,41.9z M96.7,143.5c1.9,0.6,3.8,1.3,5.6,2.2c2.4,1.1,4.7,2.6,6.7,4.4c1,0.9,1.8,1.8,2.6,2.8
			c0.8,1,1.4,2.1,1.9,3.3c1,2.3,1.3,4.8,0.9,7.2c-0.4,2.5-1.5,4.8-3.1,6.8c-1.6,2-3.7,3.7-5.9,5c-1.2,0.6-2.4,1.2-3.6,1.6
			c-1.3,0.5-2.6,0.8-3.9,1.1c-2.7,0.5-5.4,0.8-8.2,0.7c-5.6-0.1-11.1-1.3-16.2-3.4c-5.1-2.2-9.7-5.5-13.5-9.6
			c-0.2-0.2-0.3-0.4-0.5-0.6c10.1-3.2,19.7-8,28.3-14.1C90.9,148.6,93.9,146.2,96.7,143.5z M52.4,142.3c2.8-0.4,5.7-0.7,8.5-1
			c5.6-0.6,11.3-0.9,17-0.7c5.2,0.1,10.3,0.8,15.3,2c-2.3,2.1-4.8,4-7.3,5.8c-8.8,6.1-18.6,10.8-28.9,13.9
			c-2.5-3.3-4.6-6.9-6.3-10.6c-1.2-2.8-2.3-5.7-3.1-8.6C49.2,142.8,50.8,142.5,52.4,142.3z M48.7,152.5c1.6,3.7,3.6,7.2,6,10.4
			c-5.2,1.4-10.5,2.5-15.9,3.1c-5.6,0.7-11.2,0.9-16.9,0.6c-2.8-0.2-5.6-0.5-8.3-1c-1.4-0.3-2.7-0.6-4-1c-1.2-0.4-2.5-0.9-3.6-1.5
			c-0.5-0.3-0.9-0.6-1.3-1c-0.1-0.1-0.2-0.3-0.3-0.4c0,0,0-0.1,0-0.1c0,0,0-0.1,0-0.1v-0.2c0-1,0.4-2,1-2.9c0.7-1.1,1.6-2,2.7-2.8
			c1.1-0.8,2.3-1.6,3.5-2.2c2.5-1.3,5-2.5,7.7-3.5c2.6-1,5.3-1.9,8.1-2.7c5.5-1.5,11-2.8,16.6-3.8l1.5-0.2
			C46.3,146.5,47.4,149.5,48.7,152.5L48.7,152.5z M95.5,56.8c2.4,1.1,4.4,2.9,5.8,5.2c1.4,2.3,2.1,4.9,2.1,7.6
			c0.1,2.7-0.7,5.3-2.2,7.5c-0.7,1-1.7,1.9-2.8,2.4c-1.1,0.5-2.4,0.8-3.6,0.7c-2.5,0-4.7-1.7-5.2-4.2c-0.3-1.3-0.5-2.6-0.4-3.9
			c0-1.4,0.2-2.7,0.4-4.1c0.5-2.7,1.3-5.4,2.3-8c0.5-1.3,1-2.6,1.6-3.9C94.3,56.2,94.9,56.5,95.5,56.8z"/>
		<path class="st1" d="M283.9,30h-13.8v-1.7c1,0,1.9-0.1,2.9-0.4c0.6-0.2,1.1-0.5,1.4-1c0.3-0.6,0.4-1.2,0.4-1.8V3.4
			c-1.3,0-2.6,0.1-3.9,0.3c-0.8,0.1-1.6,0.4-2.3,0.9c-0.6,0.5-1.1,1.2-1.4,1.9c-0.4,1.2-0.6,2.4-0.8,3.6h-2l0.3-8.7
			c1,0,2.4,0.1,4.2,0.2c1.4,0.1,2.7,0.1,4.1,0.1h8c1.4,0,2.8,0,4.1-0.1c1.9-0.1,3.3-0.2,4.2-0.2l0.3,8.7h-2
			c-0.1-1.2-0.4-2.4-0.7-3.6c-0.3-0.8-0.7-1.4-1.4-1.9c-0.7-0.5-1.5-0.8-2.3-0.9c-1.3-0.2-2.6-0.3-3.9-0.3v21.7
			c0,0.6,0.1,1.2,0.4,1.8c0.3,0.5,0.8,0.9,1.4,1c0.9,0.3,1.9,0.4,2.9,0.4L283.9,30z"/>
		<path class="st1" d="M314.6,17.4h-12.6v8c0,0.6,0.1,1.1,0.3,1.7c0.3,0.4,0.7,0.8,1.2,0.9c0.8,0.2,1.6,0.4,2.4,0.3V30h-12v-1.6
			c0.8,0,1.6-0.1,2.4-0.4c0.5-0.2,0.9-0.5,1.2-0.9c0.2-0.5,0.4-1.1,0.3-1.7V8.1c0-0.6-0.1-1.2-0.3-1.7c-0.3-0.4-0.7-0.8-1.2-0.9
			c-0.8-0.2-1.6-0.4-2.4-0.3V3.6h12v1.6c-0.8,0-1.6,0.1-2.4,0.3c-0.5,0.1-0.9,0.5-1.2,0.9c-0.2,0.5-0.4,1.1-0.3,1.7v7.4h12.6V8.1
			c0-0.6-0.1-1.2-0.3-1.7C314,6,313.5,5.6,313,5.5c-0.8-0.2-1.6-0.4-2.4-0.3V3.6h12v1.6c-0.8,0-1.6,0.1-2.4,0.3
			c-0.5,0.1-0.9,0.5-1.2,0.9c-0.2,0.5-0.4,1.1-0.3,1.7v17.3c0,0.6,0.1,1.1,0.3,1.7c0.3,0.4,0.7,0.8,1.2,0.9c0.8,0.2,1.6,0.4,2.4,0.3
			V30h-12v-1.6c0.8,0,1.6-0.1,2.4-0.3c0.5-0.2,0.9-0.5,1.2-0.9c0.2-0.5,0.4-1.1,0.3-1.7L314.6,17.4z"/>
		<path class="st1" d="M349.2,30h-23v-1.6c0.8,0,1.6-0.1,2.4-0.3c0.5-0.2,0.9-0.5,1.2-0.9c0.2-0.5,0.4-1.1,0.3-1.7V8.1
			c0-0.6-0.1-1.2-0.3-1.7c-0.3-0.4-0.7-0.8-1.2-0.9c-0.8-0.2-1.6-0.4-2.4-0.3V3.6H342c0.7,0,1.5,0,2.2,0s1.4-0.1,2-0.1
			s1.4-0.1,2.3-0.1V12h-1.6c-0.1-1.1-0.2-2.2-0.5-3.3c-0.2-0.8-0.7-1.5-1.3-2.1c-0.8-0.6-1.7-0.9-2.6-1.1c-1.5-0.2-3-0.4-4.5-0.3
			h-3.3c-0.1,1.2-0.1,2.2-0.2,3s0,1.4,0,1.9v5.4c1.1,0,2.2-0.1,3.3-0.2c0.7-0.1,1.3-0.3,1.9-0.7c0.4-0.3,0.7-0.8,0.9-1.3
			c0.2-0.7,0.3-1.5,0.4-2.3h1.6v10.5h-1.6c0-0.8-0.2-1.5-0.4-2.3c-0.2-0.5-0.5-1-0.9-1.3c-0.6-0.4-1.2-0.6-1.9-0.7
			c-1.1-0.2-2.2-0.2-3.3-0.2v6.4c0,0.9,0.1,2.5,0.2,4.9c1.5,0.1,2.8,0.1,3.6,0.1c1.5,0,3-0.1,4.5-0.3c1-0.1,1.9-0.5,2.8-1
			c0.8-0.6,1.4-1.3,1.8-2.2c0.6-1.3,1-2.6,1.2-3.9h1.5L349.2,30z"/>
		<path class="st1" d="M278.1,86.5v10.8c0,1,0.1,2,0.6,2.9c0.5,0.8,1.2,1.3,2,1.6c1.3,0.4,2.7,0.6,4.1,0.6v2.8H264v-2.8
			c1.4,0,2.8-0.2,4.1-0.6c0.9-0.3,1.6-0.8,2-1.6c0.4-0.9,0.6-1.9,0.6-2.9v-30c0.1-1-0.1-2-0.6-2.9c-0.5-0.8-1.2-1.3-2-1.6
			c-1.3-0.4-2.7-0.6-4.1-0.6v-2.8h20.8c6.7,0,11.5,1.2,14.6,3.5c3.1,2.3,4.6,5.7,4.7,10c0,2.5-0.7,4.9-2,7c-1.6,2.3-3.9,4.1-6.5,5.2
			c-3.5,1.4-7.2,2.1-11,1.9C282.4,87.1,280.2,86.9,278.1,86.5z M278.1,70.9v12.8c1.8,0.4,3.6,0.6,5.5,0.6c2.3,0.1,4.7-0.5,6.8-1.5
			c1.8-0.9,3.3-2.4,4.3-4.1c1-1.8,1.5-3.8,1.4-5.8c0-3.5-1.1-6.1-3.3-7.9s-5.6-2.7-10.4-2.7c-0.8,0-2.1,0.1-3.9,0.2
			C278.2,66.5,278.1,69.3,278.1,70.9z"/>
		<path class="st1" d="M308.9,62.5h19.4v2.6c-1.3,0-2.6,0.1-3.9,0.5c-0.8,0.2-1.5,0.8-1.9,1.5c-0.4,0.9-0.6,1.8-0.5,2.7v20.7
			c-0.1,2.2,0.3,4.5,1.2,6.5c0.7,1.7,2,3.1,3.6,4c1.9,0.9,4,1.4,6.1,1.3c2,0.1,4-0.5,5.8-1.5c1.7-1.1,2.9-2.7,3.7-4.5
			c0.9-2.3,1.3-4.8,1.2-7.2v-15c0.1-2-0.1-4-0.5-5.9c-0.2-1.1-0.9-2-1.8-2.5c-1.3-0.5-2.6-0.7-4-0.7v-2.5h15.9v2.6
			c-1.1,0-2.2,0.1-3.3,0.4c-0.7,0.2-1.3,0.6-1.8,1.2c-0.5,0.8-0.9,1.7-1,2.7c-0.2,1.6-0.3,3.2-0.3,4.9v14c0,6.2-1.4,10.8-4.1,13.7
			s-6.8,4.3-12.2,4.3c-2.8,0.1-5.7-0.5-8.3-1.6c-2.3-1-4.1-2.7-5.3-4.9c-1.3-2.5-2-5.3-1.9-8.1V69.8c0-0.9-0.1-1.9-0.5-2.7
			c-0.4-0.7-1.1-1.2-1.9-1.5c-1.3-0.4-2.6-0.6-3.9-0.5L308.9,62.5z"/>
		<path class="st1" d="M394.2,105.2h-35.6v-2.6c1.3,0,2.6-0.2,3.9-0.6c0.8-0.2,1.5-0.8,1.9-1.5c0.4-0.8,0.6-1.8,0.5-2.7v-28
			c0-0.9-0.1-1.9-0.5-2.7c-0.4-0.7-1.1-1.2-1.9-1.5c-1.3-0.4-2.6-0.6-3.9-0.5v-2.6H378v2.6c-1.3,0-2.6,0.1-3.9,0.5
			c-0.8,0.2-1.5,0.8-1.9,1.5c-0.4,0.9-0.6,1.8-0.5,2.7v24.7c0,1.5,0.1,4.1,0.3,7.9c2.5,0.2,4.4,0.2,5.6,0.2c2.7,0.1,5.4-0.2,8-0.8
			c1.9-0.5,3.4-1.7,4.5-3.4c1.4-2.4,2.3-5.1,2.8-7.8h2.6L394.2,105.2z"/>
		<path class="st1" d="M429.6,105.2h-20.8v-2.6c1.5,0,2.9-0.2,4.3-0.6c0.9-0.2,1.6-0.7,2.1-1.5c0.4-0.8,0.6-1.8,0.6-2.7V65.1
			c-2,0-4,0.1-5.9,0.4c-1.3,0.2-2.5,0.6-3.5,1.3c-1,0.8-1.7,1.8-2.1,2.9c-0.6,1.8-1,3.6-1.1,5.4h-3l0.5-13.1c1.5,0,3.6,0.1,6.4,0.3
			c2.1,0.1,4.1,0.2,6.2,0.2h12c2.1,0,4.2,0,6.2-0.2c2.8-0.2,5-0.2,6.4-0.3l0.5,13.1h-3c-0.2-1.8-0.5-3.6-1.1-5.4
			c-0.4-1.2-1.1-2.2-2-2.9c-1.1-0.7-2.3-1.2-3.5-1.3c-2-0.3-4-0.4-5.9-0.4v32.8c0,0.9,0.2,1.9,0.6,2.7c0.5,0.7,1.2,1.3,2.1,1.5
			c1.4,0.4,2.9,0.6,4.4,0.5L429.6,105.2z"/>
		<path class="st1" d="M480.6,105.2h-37.2v-2.6c1.3,0,2.6-0.2,3.9-0.6c0.8-0.2,1.5-0.8,1.9-1.5c0.4-0.8,0.6-1.8,0.5-2.7v-28
			c0-0.9-0.1-1.9-0.5-2.7c-0.4-0.7-1.1-1.2-1.9-1.5c-1.3-0.4-2.6-0.6-3.9-0.5v-2.6h25.6c1.2,0,2.3,0,3.5-0.1s2.3-0.1,3.2-0.2
			s2.2-0.1,3.7-0.2v14h-2.6c-0.1-1.8-0.4-3.6-0.9-5.4c-0.4-1.3-1.1-2.5-2.2-3.3c-1.3-0.9-2.7-1.5-4.3-1.8c-2.4-0.4-4.9-0.6-7.4-0.6
			h-5.3c-0.1,2-0.2,3.6-0.3,4.8s-0.1,2.2-0.1,3v8.7c1.8,0,3.6-0.1,5.4-0.4c1.1-0.1,2.1-0.5,3-1.1c0.7-0.5,1.2-1.2,1.5-2
			c0.3-1.2,0.5-2.4,0.6-3.7h2.6v17H467c-0.1-1.2-0.3-2.5-0.6-3.7c-0.3-0.8-0.8-1.5-1.5-2.1c-0.9-0.6-1.9-1-3-1.1
			c-1.8-0.3-3.6-0.4-5.4-0.4v10.4c0,1.5,0.1,4.1,0.3,7.9c2.5,0.2,4.5,0.2,5.8,0.2c2.5,0,4.9-0.1,7.3-0.4c1.6-0.2,3.1-0.8,4.4-1.7
			c1.3-0.9,2.3-2.2,2.9-3.6c0.9-2,1.6-4.2,2-6.3h2.6L480.6,105.2z"/>
		<path class="st1" d="M506.8,105.2h-19.4v-2.6c1.3,0,2.6-0.2,3.9-0.6c0.8-0.2,1.5-0.8,1.9-1.5c0.4-0.8,0.6-1.8,0.5-2.7v-28
			c0-0.9-0.1-1.9-0.5-2.7c-0.4-0.7-1.1-1.2-1.9-1.5c-1.2-0.4-2.5-0.6-3.9-0.5v-2.6h19.3c3.4-0.1,6.7,0.3,10,1.2
			c2.3,0.5,4.4,1.7,6,3.5c1.3,1.6,2,3.7,1.9,5.7c0,1.4-0.3,2.8-0.9,4.1c-0.6,1.3-1.5,2.4-2.6,3.2c-1.2,0.9-2.6,1.6-4.1,2.1
			c-1.3,0.4-2.3,0.7-3,0.8s-0.9,0.3-0.9,0.4s0.3,0.5,0.8,1s1,1,1.5,1.5c0.6,0.7,1.2,1.5,1.6,2.3l6.5,10.6c0.5,0.9,1.1,1.8,1.8,2.6
			c0.4,0.5,1,0.8,1.6,1c0.9,0.2,1.7,0.3,2.6,0.3v2.6l-2.7,0.2l-2.8,0.2c-0.9,0.1-1.7,0.1-2.4,0.1c-0.6,0-1.2-0.2-1.7-0.6
			c-0.8-0.7-1.4-1.5-1.9-2.5l-8-13.5c-0.7-1.4-1.7-2.7-2.9-3.7c-1.2-0.7-2.6-1-4-0.9h-2.7v13.4c0,0.9,0.1,1.9,0.5,2.7
			c0.4,0.7,1.1,1.3,1.9,1.5c1.2,0.4,2.6,0.6,3.9,0.6L506.8,105.2z M500.5,73.2v8.7h4.1c2.5,0.1,4.9-0.3,7.2-1.1c1.6-0.6,3-1.6,4-3.1
			c0.8-1.4,1.2-3.1,1.2-4.7c0-1.5-0.4-2.9-1.2-4.1c-1-1.3-2.5-2.3-4.1-2.8c-2.4-0.7-4.8-1.1-7.3-1c-1.2,0-2.4,0.1-3.6,0.2
			C500.6,69.1,500.5,71.7,500.5,73.2L500.5,73.2z"/>
		<path class="st1" d="M278.1,161.8v10.8c-0.1,1,0.1,2,0.6,2.9c0.5,0.8,1.2,1.3,2,1.6c1.3,0.4,2.7,0.6,4.1,0.6v2.8H264v-2.8
			c1.4,0,2.8-0.2,4.1-0.6c0.9-0.3,1.6-0.8,2-1.6c0.4-0.9,0.6-1.9,0.6-2.9v-30c0.1-1-0.1-2-0.6-2.9c-0.5-0.8-1.2-1.3-2-1.6
			c-1.3-0.4-2.7-0.6-4.1-0.6v-2.8h20.8c6.7,0,11.5,1.2,14.6,3.5s4.6,5.7,4.7,10c0,2.5-0.7,4.9-2.1,6.9c-1.6,2.3-3.9,4.1-6.5,5.2
			c-3.5,1.4-7.2,2.1-11,1.9C282.4,162.4,280.2,162.2,278.1,161.8z M278.1,146.2V159c1.8,0.4,3.6,0.6,5.5,0.6
			c2.3,0.1,4.7-0.5,6.8-1.5c1.8-0.9,3.3-2.4,4.3-4.1c1-1.8,1.5-3.8,1.4-5.8c0-3.5-1.1-6.1-3.3-7.9s-5.6-2.7-10.4-2.7
			c-0.8,0-2.1,0.1-3.9,0.2C278.2,141.8,278.1,144.6,278.1,146.2z"/>
		<path class="st1" d="M327.5,180.4H308v-2.6c1.3,0,2.6-0.2,3.9-0.5c0.8-0.3,1.5-0.8,1.9-1.5c0.4-0.8,0.6-1.8,0.5-2.7v-28
			c0-0.9-0.1-1.9-0.5-2.7c-0.4-0.7-1.1-1.2-1.9-1.5c-1.3-0.4-2.6-0.6-3.9-0.5v-2.6h19.3c3.4-0.1,6.7,0.3,10,1.2
			c2.3,0.5,4.4,1.7,6,3.5c1.3,1.6,2,3.7,1.9,5.7c0,1.4-0.3,2.8-0.9,4.1c-0.6,1.3-1.5,2.4-2.6,3.2c-1.2,0.9-2.6,1.6-4.1,2.1
			c-1.4,0.4-2.3,0.7-3,0.8s-0.9,0.3-0.9,0.4s0.3,0.5,0.8,1c0.5,0.5,1,1,1.5,1.5c0.6,0.7,1.2,1.5,1.6,2.3l6.5,10.6
			c0.5,0.9,1.1,1.8,1.8,2.6c0.4,0.5,1,0.8,1.6,1c0.9,0.2,1.7,0.3,2.6,0.3v2.6l-2.7,0.2l-2.8,0.2c-0.9,0.1-1.7,0.1-2.4,0.1
			c-0.6,0-1.2-0.2-1.7-0.6c-0.8-0.7-1.4-1.5-1.9-2.5l-8-13.5c-0.7-1.4-1.7-2.7-2.9-3.7c-1.2-0.7-2.6-1-4-0.9h-2.7v13.4
			c0,0.9,0.1,1.9,0.5,2.7c0.4,0.7,1.1,1.3,1.9,1.5c1.2,0.4,2.6,0.6,3.9,0.5V180.4z M321.1,148.4v8.7h4.1c2.5,0.1,4.9-0.3,7.3-1.2
			c1.6-0.6,3-1.7,4-3.1c0.8-1.4,1.3-3,1.2-4.7c0-1.5-0.4-2.9-1.2-4.1c-1-1.3-2.5-2.3-4.1-2.8c-2.4-0.7-4.8-1.1-7.3-1
			c-1.2,0-2.4,0.1-3.6,0.2C321.3,144.4,321.1,147,321.1,148.4L321.1,148.4z"/>
		<path class="st1" d="M376.8,136.8c2.6,0,5.1,0.5,7.5,1.5c2.4,1,4.5,2.5,6.2,4.4c1.9,2,3.3,4.4,4.2,7.1c1,3,1.6,6.2,1.5,9.3
			c0.1,4.2-0.8,8.3-2.6,12c-4.7,9.3-16,13.1-25.3,8.4c-3.6-1.8-6.6-4.8-8.4-8.4c-1.8-3.7-2.7-7.8-2.6-12c0-3.2,0.5-6.3,1.5-9.3
			c0.9-2.6,2.4-5,4.3-7.1c1.7-1.9,3.9-3.4,6.2-4.4C371.7,137.3,374.2,136.8,376.8,136.8z M376.8,139.4c-2.3,0-4.5,0.7-6.3,2.1
			c-2,1.7-3.4,4-4.2,6.6c-1.1,3.6-1.6,7.3-1.5,11c-0.1,3.7,0.4,7.4,1.5,11c0.7,2.6,2.2,4.9,4.2,6.6c1.8,1.4,4,2.2,6.3,2.2
			c1.7,0,3.3-0.4,4.8-1.2c1.5-0.9,2.8-2.1,3.8-3.6c1.2-1.9,2-4,2.4-6.1c0.6-2.9,0.9-5.9,0.9-8.8c0-6.6-1.1-11.5-3.2-14.8
			C383.7,141.3,380.4,139.4,376.8,139.4L376.8,139.4z"/>
		<path class="st1" d="M411.9,137.8H432v2.6c-1.3,0-2.6,0.1-3.9,0.5c-0.8,0.2-1.5,0.8-1.9,1.5c-0.4,0.9-0.6,1.8-0.5,2.7v22.2
			c0.1,2.8-0.4,5.6-1.6,8.2c-0.9,2-2.5,3.6-4.5,4.5c-2.3,1-4.8,1.5-7.3,1.4c-1.9,0-3.7-0.4-5.4-1.1c-1.5-0.7-2.8-1.8-3.7-3.1
			c-0.9-1.3-1.3-2.9-1.3-4.4c-0.1-1.6,0.4-3.1,1.4-4.4c1-1.2,2.6-1.8,4.2-1.7c1.2,0,2.3,0.4,3.1,1.2c0.9,1,1.3,2.3,1.2,3.6
			c0,0.3-0.1,0.6-0.1,0.9c-1.5-0.1-2.8,1-2.9,2.5c0,0.2,0,0.4,0,0.5c0,0.9,0.3,1.8,1,2.5c0.7,0.7,1.7,1,2.7,1c4.3,0,6.4-3.1,6.4-9.3
			v-22.2c0.1-1.5-0.1-2.9-0.6-4.3c-0.4-0.9-1.1-1.6-2-2c-1.4-0.5-2.9-0.7-4.4-0.6L411.9,137.8z"/>
		<path class="st1" d="M474.1,180.4h-37.2v-2.6c1.3,0,2.6-0.1,3.9-0.5c0.8-0.3,1.5-0.8,1.9-1.5c0.4-0.8,0.6-1.8,0.5-2.7v-28
			c0-0.9-0.1-1.9-0.5-2.7c-0.4-0.7-1.1-1.2-1.9-1.5c-1.2-0.4-2.5-0.6-3.9-0.5v-2.6h25.6c1.2,0,2.4,0,3.5-0.1s2.3-0.1,3.2-0.2
			s2.2-0.1,3.7-0.2v14h-2.6c-0.1-1.8-0.4-3.6-0.9-5.4c-0.4-1.3-1.1-2.5-2.2-3.3c-1.3-0.9-2.8-1.5-4.3-1.8c-2.4-0.4-4.9-0.6-7.4-0.5
			h-5.3c-0.1,2-0.2,3.6-0.3,4.8s-0.1,2.2-0.1,3.1v8.7c1.8,0,3.6-0.1,5.4-0.4c1.1-0.1,2.1-0.5,3-1.1c0.7-0.5,1.2-1.2,1.5-2
			c0.3-1.2,0.5-2.4,0.6-3.7h2.6v17h-2.6c-0.1-1.2-0.3-2.5-0.6-3.7c-0.3-0.8-0.8-1.5-1.5-2.1c-0.9-0.6-1.9-1-3-1.1
			c-1.8-0.3-3.6-0.4-5.4-0.4v10.3c0,1.5,0.1,4.1,0.4,7.9c2.5,0.1,4.4,0.2,5.8,0.2c2.5,0,4.9-0.1,7.3-0.4c1.6-0.2,3.1-0.8,4.5-1.7
			c1.3-0.9,2.3-2.2,2.9-3.6c0.9-2,1.6-4.2,2-6.3h2.6L474.1,180.4z"/>
		<path class="st1" d="M518,171.2l2.1,2.3c-1.3,1.6-2.8,3-4.4,4.2c-1.7,1.2-3.6,2.1-5.5,2.8c-2.1,0.7-4.4,1-6.6,1
			c-3.9,0.1-7.7-0.9-11.1-2.9c-3.2-1.9-5.8-4.7-7.4-8c-1.8-3.5-2.7-7.5-2.6-11.4c0-3,0.5-6,1.5-8.8c0.9-2.6,2.4-5,4.3-7.1
			c1.9-2,4.2-3.6,6.8-4.7c2.8-1.1,5.8-1.7,8.8-1.7c2.5,0,4.9,0.1,7.4,0.4c2.1,0.3,4.4,0.6,6.6,1V152H515c-0.1-4.3-1.1-7.5-3-9.5
			c-2.2-2.1-5.1-3.2-8.1-3c-2,0-4.1,0.4-5.9,1.4c-1.7,0.9-3.2,2.2-4.3,3.8c-1.2,1.8-2.2,3.9-2.7,6c-0.6,2.6-0.9,5.2-0.9,7.9
			c-0.1,3.5,0.6,7,2,10.2c1.1,2.7,3,5.1,5.3,6.8c2.2,1.6,4.8,2.4,7.4,2.4C509.8,177.9,514.2,175.7,518,171.2z"/>
		<path class="st1" d="M555.2,180.4h-20.8v-2.6c1.5,0,2.9-0.2,4.3-0.5c0.9-0.2,1.6-0.8,2.1-1.5c0.4-0.8,0.6-1.8,0.6-2.7v-32.8
			c-2,0-4,0.1-5.9,0.4c-1.3,0.1-2.5,0.6-3.5,1.3c-1,0.8-1.7,1.8-2.1,2.9c-0.6,1.8-1,3.6-1.2,5.4h-3l0.5-13.1c1.5,0,3.6,0.1,6.4,0.3
			c2.1,0.1,4.1,0.2,6.2,0.2h12c2.1,0,4.2-0.1,6.2-0.2c2.8-0.1,5-0.2,6.4-0.3l0.5,13.1h-3c-0.2-1.8-0.5-3.6-1.1-5.4
			c-0.4-1.2-1.1-2.2-2-2.9c-1.1-0.7-2.3-1.2-3.5-1.3c-2-0.3-4-0.4-5.9-0.4v32.8c-0.1,0.9,0.1,1.9,0.6,2.7c0.5,0.7,1.2,1.3,2.1,1.5
			c1.4,0.4,2.9,0.6,4.4,0.5L555.2,180.4z"/>
	</g>
</g>
</svg>
