<?xml version="1.0" encoding="UTF-8"?><svg id="Layer_2" xmlns="http://www.w3.org/2000/svg" viewBox="0 0 1134.29 357"><path class="cls-1" d="M120.31,357c-33.34-3.7-67.53-14.46-91.78-38.82-31.55-30.54-36.96-81.43-16.11-119.53,4.05-7.69,9.14-14.75,14.58-21.35,22.05-26.11,49.13-47.15,77.44-65.92C186.4,58.44,296.72,15.21,394.84,40.54c16.7,4.53,32.92,11.35,47.73,20.4,28.95,17.54,56.86,36.35,85.25,54.19,42.38,26.92,86.03,51.56,132.82,69.69,89.42,35.53,187.38,44.65,282.79,36.53,64.26-5.3,147.64-36.97,177.64-97.75,10.45-22.22,13.55-49.01,2.99-71.76-10.46-23.04-31.14-39.6-52.75-51.84,7.46,3.88,14.72,8.19,21.58,13.1,29.43,20.55,46.77,51.34,39.9,87.86-5.79,34.36-29.7,62.6-57.57,82.05-42.04,29.31-92.66,45.14-143.63,48.27-42.19,3.42-84.69,3.7-126.85-.59-101.98-8.81-198.25-50.01-283.32-105.43-28.52-18.04-56.37-36.91-84.92-54.32-13.88-8.53-28.97-14.92-44.7-19.25-81.02-21.04-166.51,5.77-239.25,42.09-45.76,23.84-108.12,63.39-134.52,107.9-20.5,36.09-16.5,83.99,12.89,114.2,23.09,24.53,56.63,36.26,89.4,41.12h0Z"/></svg>
