<svg xmlns="http://www.w3.org/2000/svg" width="19" height="10" viewBox="0 0 19 10">
  <path fill="#282828" fill-rule="evenodd" d="M629.944953,875.681538 L631.864991,872.201875 C631.921813,872.105656 631.967704,872.057709 632.002663,872.057709 C632.041951,872.057709 632.068143,872.105656 632.081239,872.201875 L632.441652,875.681538 L629.944953,875.681538 Z M640.851073,870.884689 C641.344719,870.884689 641.730242,870.926142 642.007641,871.009156 C642.285148,871.09217 642.489274,871.224322 642.620343,871.405611 C642.751412,871.5869 642.837673,871.820681 642.879235,872.106847 C642.920796,872.393013 642.945797,872.795961 642.954564,873.315908 L643.629608,873.315908 L644.042405,870.111371 C643.841527,870.120138 643.681992,870.128904 643.564019,870.137563 C643.446046,870.14633 643.304154,870.158344 643.138018,870.173604 C642.97199,870.188865 642.813646,870.199905 642.662987,870.206399 C642.512219,870.213001 642.382233,870.216248 642.273026,870.216248 L636.126199,870.216248 L636.014828,870.884689 C636.447323,870.897786 636.743338,870.951252 636.902764,871.045198 C637.062298,871.139143 637.141957,871.332446 637.141957,871.625106 C637.141957,871.73442 637.111436,871.97686 637.050176,872.352534 L636.001732,878.348702 C635.949347,878.641362 635.872935,878.856527 635.772388,878.994091 C635.701279,879.091608 635.562093,879.175488 635.466848,879.222352 C635.413707,879.248328 635.353854,879.255255 635.296166,879.241942 C635.265104,879.234691 635.232742,879.226573 635.213694,879.220187 C635.056432,879.167803 634.943871,879.070502 634.876226,878.92861 C634.808472,878.78661 634.752733,878.549581 634.709115,878.217633 L633.81133,870 L632.284391,870 L627.382666,878.427279 C627.229842,878.698184 627.049635,878.913241 626.842046,879.072775 C626.634565,879.232309 626.386605,879.314133 626.098275,879.31857 L626,880 L629.597636,880 L629.709007,879.31857 C629.272182,879.31857 628.975085,879.274845 628.817824,879.187501 C628.660562,879.10005 628.581878,878.940624 628.581878,878.709115 C628.581878,878.578046 628.614672,878.409853 628.680152,878.204537 C628.745741,877.999112 628.859277,877.733727 629.020975,877.408273 C629.182674,877.082819 629.357361,876.756283 629.545252,876.428556 L632.513735,876.428556 C632.627378,877.673658 632.6842,878.377059 632.6842,878.53865 C632.6842,878.770266 632.653571,878.938459 632.592419,879.043336 C632.531268,879.148105 632.424227,879.220187 632.271295,879.259584 C632.118471,879.298872 631.880252,879.31857 631.557071,879.31857 L631.452194,880 L634.353681,880 L634.540381,880 L642.823495,880 L643.531225,876.775873 L642.862892,876.775873 C642.539494,877.501136 642.25993,878.027578 642.024092,878.355196 C641.788146,878.682815 641.459445,878.925363 641.037773,879.082624 C640.616209,879.239886 640.007944,879.31857 639.212763,879.31857 L637.987358,879.31857 L638.662294,875.170357 C639.164708,875.179124 639.536052,875.208672 639.776327,875.258891 C640.016603,875.309111 640.183713,875.400784 640.277659,875.534126 C640.371604,875.667359 640.418577,875.875923 640.418577,876.159924 L640.418577,876.92664 L641.08691,876.92664 L641.814339,872.968591 L641.132801,872.968591 C641.054224,873.36169 640.942745,873.66106 640.79858,873.866377 C640.654415,874.071585 640.461112,874.214776 640.218672,874.295517 C639.976232,874.376366 639.667121,874.416737 639.291339,874.416737 L638.806459,874.416737 L639.455203,870.884689 L640.851073,870.884689 Z" transform="translate(-626 -870)"/>
</svg>
