<?xml version="1.0" encoding="utf-8"?>
<!-- Generator: Adobe Illustrator 22.1.0, SVG Export Plug-In . SVG Version: 6.00 Build 0)  -->
<svg version="1.1" id="Layer_1" xmlns="http://www.w3.org/2000/svg" xmlns:xlink="http://www.w3.org/1999/xlink" x="0px" y="0px"
	 viewBox="0 0 9.8 11" style="enable-background:new 0 0 9.8 11;" xml:space="preserve">
<style type="text/css">
	.st0{fill:#FFFFFF;}
</style>
<g>
	<path class="st0" d="M3,0h0.6c0.1,0,0.2,0,0.2,0.1c0,0,0,0.1-0.1,0.2L1.4,2.5h6.1c0.2,0,0.2,0.1,0.2,0.3v0.1c0,0.2-0.1,0.3-0.2,0.3
		H1.4l2.3,2.2c0.1,0.1,0.1,0.1,0.1,0.2c0,0-0.1,0.1-0.2,0.1H2.9c-0.1,0-0.3-0.1-0.4-0.2L0.1,3C0,3,0,2.9,0,2.9l0,0
		c0-0.1,0-0.1,0.1-0.2l2.5-2.5C2.7,0.1,2.8,0,3,0z"/>
	<path class="st0" d="M6.8,11H6.2C6.1,11,6,11,6,10.9c0,0,0-0.1,0.1-0.2l2.3-2.2h-6c-0.2,0-0.2-0.1-0.2-0.3V8.1
		c0-0.2,0.1-0.3,0.2-0.3h6.1L6.1,5.5L6,5.4c0,0,0.1-0.1,0.2-0.1h0.6c0.1,0,0.3,0.1,0.4,0.2L9.7,8c0.1,0,0.1,0.1,0.1,0.1l0,0
		c0,0.1,0,0.1-0.1,0.2l-2.5,2.5C7.1,10.9,7,11,6.8,11z"/>
</g>
</svg>
