<?xml version="1.0" encoding="UTF-8"?>
<svg id="Layer_1" data-name="Layer 1" xmlns="http://www.w3.org/2000/svg" viewBox="0 0 100 120">
  <defs>
    <style>
      .cls-1 {
        fill: #fff;
      }

      .cls-1, .cls-2, .cls-3 {
        stroke: #3c2e28;
        stroke-miterlimit: 13.33;
      }

      .cls-2, .cls-3 {
        fill: none;
      }

      .cls-3 {
        stroke-width: 3px;
      }
    </style>
  </defs>
  <path id="path196" class="cls-1" d="M83.2,38h15.6v54.5h-15.6V38Z"/>
  <path id="path194" class="cls-1" d="M83.2,15.2h-22V107.9h22V15.2Z"/>
  <path id="path192" class="cls-1" d="M61.1,118.5H1.2V1.5H61.1s0,117,0,117Z"/>
  <path id="path204-14" class="cls-2" d="M83.2,56.8h8.4"/>
  <path id="path204-15" class="cls-2" d="M83.2,63.9h8.4"/>
  <path id="path204-16" class="cls-2" d="M83.2,71.1h5"/>
  <path id="path204-17" class="cls-2" d="M83.2,78.2h8.4"/>
  <path id="path204-18" class="cls-3" d="M83.2,49.6h5"/>
  <path id="path204" class="cls-2" d="M60.8,41.41h15"/>
  <path id="path204-7" class="cls-3" d="M61.12,32.28h8.85"/>
  <path id="path204-2" class="cls-2" d="M61.16,50.93h11.04"/>
  <path id="path204-3" class="cls-2" d="M61.16,59.83h14.61"/>
  <path id="path204-4" class="cls-2" d="M61.16,68.74h14.61"/>
  <path id="path204-5" class="cls-2" d="M61.16,77.64h14.61"/>
  <path id="path204-6" class="cls-2" d="M61.16,86.62h11.04"/>
  <path id="path204-19" class="cls-2" d="M61,95.52h12.33"/>
  <path id="path204-17-2" data-name="path204-17" class="cls-2" d="M83.3,85.3h8.4"/>
  <path id="path204-2" data-name="path204" class="cls-2" d="M8.26,28.64H53.86"/>
  <path id="path204-7-2" data-name="path204-7" class="cls-3" d="M7.98,17.65h26.9"/>
  <path id="path204-2-2" data-name="path204-2" class="cls-2" d="M8.04,39.64H52.44"/>
  <path id="path204-3-2" data-name="path204-3" class="cls-2" d="M8.26,50.63H52.66"/>
  <path id="path204-4-2" data-name="path204-4" class="cls-2" d="M8.26,61.62H44.45"/>
  <path id="path204-5-2" data-name="path204-5" class="cls-2" d="M8.22,72.61h30.92"/>
  <path id="path204-6-2" data-name="path204-6" class="cls-2" d="M7.81,83.61H52.21"/>
  <path id="path204-19-2" data-name="path204-19" class="cls-2" d="M7.54,94.6H48.66"/>
  <path id="path204-2-3" data-name="path204-2" class="cls-2" d="M7.74,105.59H52.14"/>
</svg>