<?xml version="1.0" encoding="UTF-8"?>
<svg id="Layer_1" data-name="Layer 1" xmlns="http://www.w3.org/2000/svg" viewBox="0 0 100 120">
  <defs>
    <style>
      .cls-1 {
        stroke-width: 2.17px;
      }

      .cls-1, .cls-2, .cls-3, .cls-4, .cls-5, .cls-6 {
        stroke: #231f20;
        stroke-miterlimit: 13.33;
      }

      .cls-1, .cls-2, .cls-4 {
        fill: none;
      }

      .cls-2, .cls-6 {
        stroke-width: 1.66px;
      }

      .cls-3 {
        stroke-width: 1.88px;
      }

      .cls-3, .cls-5, .cls-6 {
        fill: #fff;
      }

      .cls-4, .cls-5 {
        stroke-width: 1.76px;
      }
    </style>
  </defs>
  <path id="path192" class="cls-3" d="M61.42,120H0V0H61.42V120Z"/>
  <path id="path194" class="cls-5" d="M84,14.03h-22.58V109.09h22.58V14.03Z"/>
  <path id="path196" class="cls-6" d="M84,37.4h16v55.9h-16V37.4Z"/>
  <path id="path204" class="cls-1" d="M7.92,29.09H53.5"/>
  <path id="path204-2" data-name="path204" class="cls-1" d="M7.92,38.28H53.5"/>
  <path id="path204-3" data-name="path204" class="cls-1" d="M7.92,47.46H53.5"/>
  <path id="path204-4" data-name="path204" class="cls-1" d="M7.92,56.64H53.5"/>
  <path id="path204-5" data-name="path204" class="cls-1" d="M7.92,65.82H53.5"/>
  <path id="path204-6" data-name="path204" class="cls-1" d="M7.92,75H53.5"/>
  <path id="path204-7" data-name="path204" class="cls-1" d="M7.92,84.18H53.5"/>
  <path id="path204-8" data-name="path204" class="cls-1" d="M7.92,93.37H53.5"/>
  <path id="path204-9" data-name="path204" class="cls-1" d="M17.27,19.11h26.89"/>
  <path id="path204-10" data-name="path204" class="cls-4" d="M61.42,40.47h13.76"/>
  <path id="path204-11" data-name="path204" class="cls-4" d="M61.42,47.6h13.76"/>
  <path id="path204-12" data-name="path204" class="cls-4" d="M61.42,54.74h13.76"/>
  <path id="path204-13" data-name="path204" class="cls-4" d="M61.42,61.87h13.76"/>
  <path id="path204-14" data-name="path204" class="cls-4" d="M61.42,69.01h13.76"/>
  <path id="path204-15" data-name="path204" class="cls-4" d="M61.42,76.14h13.76"/>
  <path id="path204-16" data-name="path204" class="cls-4" d="M61.42,83.27h13.76"/>
  <path id="path204-17" data-name="path204" class="cls-4" d="M61.42,90.41h13.76"/>
  <path id="path204-18" data-name="path204" class="cls-4" d="M61.42,32.71h8.11"/>
  <path id="path204-19" data-name="path204" class="cls-2" d="M84,55.54h8.66"/>
  <path id="path204-20" data-name="path204" class="cls-2" d="M84,60.42h8.66"/>
  <path id="path204-21" data-name="path204" class="cls-2" d="M84,65.29h8.66"/>
  <path id="path204-22" data-name="path204" class="cls-2" d="M84,70.17h8.66"/>
  <path id="path204-23" data-name="path204" class="cls-2" d="M84,75.04h8.66"/>
  <path id="path204-24" data-name="path204" class="cls-2" d="M84,50.67h5.11"/>
  <path id="path204-25" data-name="path204" class="cls-1" d="M7.48,102.55H53.06"/>
</svg>