<?xml version="1.0" encoding="utf-8"?>
<!-- Generator: Adobe Illustrator 26.5.0, SVG Export Plug-In . SVG Version: 6.00 Build 0)  -->
<svg version="1.1" id="Layer_1" xmlns="http://www.w3.org/2000/svg" xmlns:xlink="http://www.w3.org/1999/xlink" x="0px" y="0px"
	 viewBox="0 0 100 120" style="enable-background:new 0 0 100 120;" xml:space="preserve">
<style type="text/css">
	.st0{fill:#FFFFFF;stroke:#434342;stroke-width:1.66;stroke-miterlimit:13.33;}
	.st1{fill:#FFFFFF;stroke:#434342;stroke-width:1.76;stroke-miterlimit:13.33;}
	.st2{fill:#FFFFFF;stroke:#434342;stroke-width:1.88;stroke-miterlimit:13.33;}
	.st3{fill:none;stroke:#434342;stroke-width:2;stroke-miterlimit:13.33;}
</style>
<path id="path196" class="st0" d="M83.2,38h15.6v54.5H83.2V38z"/>
<path id="path194" class="st1" d="M83.2,15.2h-22v92.7h22V15.2z"/>
<path id="path192" class="st2" d="M61.1,118.5H1.2V1.5h59.9C61.1,1.5,61.1,118.5,61.1,118.5z"/>
<path id="path204" class="st3" d="M7.9,31h45.6"/>
<path id="path204-7" class="st3" d="M17.3,19.1h26.9"/>
<path id="path204-2" class="st3" d="M9,43.4h44.4"/>
<path id="path204-3" class="st3" d="M9,55h44.4"/>
<path id="path204-4" class="st3" d="M9,66.6h44.4"/>
<path id="path204-5" class="st3" d="M9,78.2h44.4"/>
<path id="path204-6" class="st3" d="M9,89.9h44.4"/>
<path id="path204-14" class="st3" d="M83.2,56.8h8.4"/>
<path id="path204-15" class="st3" d="M83.2,63.9h8.4"/>
<path id="path204-16" class="st3" d="M83.2,71.1h8.4"/>
<path id="path204-17" class="st3" d="M83.2,78.2h8.4"/>
<path id="path204-18" class="st3" d="M83.2,49.6h5"/>
<path id="path204-19" class="st3" d="M8.5,101.5H53"/>
<path id="path204_00000038390883174305761490000015557104845401986981_" class="st3" d="M60.8,41.4h15"/>
<path id="path204-7_00000004534833815784576790000010565553065290496651_" class="st3" d="M62.1,32.3H71"/>
<path id="path204-2_00000037687426533085199680000009794350138996183682_" class="st3" d="M61.2,50.9h14.6"/>
<path id="path204-3_00000176013383427694983530000004105091891674772643_" class="st3" d="M61.2,59.8h14.6"/>
<path id="path204-4_00000012451030248753615960000007477106329989735561_" class="st3" d="M61.2,68.7h14.6"/>
<path id="path204-5_00000178927101917716830490000010373769514536437427_" class="st3" d="M61.2,77.6h14.6"/>
<path id="path204-6_00000056425880652564337320000010793108546895459712_" class="st3" d="M61.2,86.6h14.6"/>
<path id="path204-19_00000039855321908277470070000000397674764257932469_" class="st3" d="M61,95.5h14.6"/>
<path id="path204-17_00000027579095002974867700000006782997277397156769_" class="st3" d="M83.3,85.3h8.4"/>
</svg>
