<?xml version="1.0" encoding="UTF-8"?>
<svg id="Layer_1" data-name="Layer 1" xmlns="http://www.w3.org/2000/svg" viewBox="0 0 100 150">
  <defs>
    <style>
      .cls-1 {
        stroke-width: 1.83px;
      }

      .cls-1, .cls-2, .cls-3, .cls-4 {
        fill: none;
        stroke: #231f20;
        stroke-miterlimit: 13.33;
      }

      .cls-2 {
        stroke-width: 2.07px;
      }

      .cls-3 {
        stroke-width: 2.39px;
      }

      .cls-4 {
        stroke-width: 1.95px;
      }
    </style>
  </defs>
  <path id="path192" class="cls-2" d="M61.3,149.11H.54V.89H61.3V149.11Z"/>
  <path id="path194" class="cls-4" d="M83.63,18.22h-22.33v117.42h22.33V18.22Z"/>
  <path id="path196" class="cls-1" d="M83.63,47.09h15.83V116.13h-15.83V47.09Z"/>
  <path id="path204" class="cls-3" d="M8.38,36.83H53.46"/>
  <path id="path204-2" data-name="path204" class="cls-3" d="M8.38,48.17H53.46"/>
  <path id="path204-3" data-name="path204" class="cls-3" d="M8.38,59.51H53.46"/>
  <path id="path204-4" data-name="path204" class="cls-3" d="M8.38,70.85H53.46"/>
  <path id="path204-5" data-name="path204" class="cls-3" d="M8.38,82.19H53.46"/>
  <path id="path204-6" data-name="path204" class="cls-3" d="M8.38,93.53H53.46"/>
  <path id="path204-7" data-name="path204" class="cls-3" d="M8.38,104.87H53.46"/>
  <path id="path204-8" data-name="path204" class="cls-3" d="M8.38,116.21H53.46"/>
  <path id="path204-9" data-name="path204" class="cls-3" d="M17.62,24.49h26.59"/>
  <path id="path204-10" data-name="path204" class="cls-4" d="M61.3,50.88h13.61"/>
  <path id="path204-11" data-name="path204" class="cls-4" d="M61.3,59.69h13.61"/>
  <path id="path204-12" data-name="path204" class="cls-4" d="M61.3,68.5h13.61"/>
  <path id="path204-13" data-name="path204" class="cls-4" d="M61.3,77.31h13.61"/>
  <path id="path204-14" data-name="path204" class="cls-4" d="M61.3,86.12h13.61"/>
  <path id="path204-15" data-name="path204" class="cls-4" d="M61.3,94.93h13.61"/>
  <path id="path204-16" data-name="path204" class="cls-4" d="M61.3,103.75h13.61"/>
  <path id="path204-17" data-name="path204" class="cls-4" d="M61.3,112.56h13.61"/>
  <path id="path204-18" data-name="path204" class="cls-4" d="M61.3,41.29h8.03"/>
  <path id="path204-19" data-name="path204" class="cls-1" d="M83.63,69.5h8.57"/>
  <path id="path204-20" data-name="path204" class="cls-1" d="M83.63,75.52h8.57"/>
  <path id="path204-21" data-name="path204" class="cls-1" d="M83.63,81.54h8.57"/>
  <path id="path204-22" data-name="path204" class="cls-1" d="M83.63,87.56h8.57"/>
  <path id="path204-23" data-name="path204" class="cls-1" d="M83.63,93.58h8.57"/>
  <path id="path204-24" data-name="path204" class="cls-1" d="M83.63,63.47h5.05"/>
  <path id="path204-25" data-name="path204" class="cls-3" d="M7.94,127.55H53.03"/>
</svg>