<?xml version="1.0" encoding="utf-8"?>
<!-- Generator: Adobe Illustrator 26.5.0, SVG Export Plug-In . SVG Version: 6.00 Build 0)  -->
<svg version="1.1" id="Layer_1" xmlns="http://www.w3.org/2000/svg" xmlns:xlink="http://www.w3.org/1999/xlink" x="0px" y="0px"
	 viewBox="0 0 100 120" style="enable-background:new 0 0 100 120;" xml:space="preserve">
<style type="text/css">
	.st0{fill:#FFFFFF;stroke:#3C2E28;stroke-miterlimit:13.33;}
	.st1{fill:none;stroke:#3C2E28;stroke-miterlimit:13.33;}
	.st2{fill:none;stroke:#3C2E28;stroke-width:3;stroke-miterlimit:13.33;}
</style>
<path id="path196" class="st0" d="M83.2,38h15.6v54.5H83.2V38z"/>
<path id="path194" class="st0" d="M83.2,15.2h-22v92.7h22V15.2z"/>
<path id="path192" class="st0" d="M61.1,118.5H1.2V1.5h59.9C61.1,1.5,61.1,118.5,61.1,118.5z"/>
<path id="path204-14" class="st1" d="M83.2,56.8h8.4"/>
<path id="path204-15" class="st1" d="M83.2,63.9h8.4"/>
<path id="path204-16" class="st1" d="M83.2,71.1h8.4"/>
<path id="path204-17" class="st1" d="M83.2,78.2h8.4"/>
<path id="path204-18" class="st2" d="M83.2,49.6h5"/>
<path id="path204_00000038390883174305761490000015557104845401986981_" class="st1" d="M60.8,41.4h15"/>
<path id="path204-7_00000004534833815784576790000010565553065290496651_" class="st2" d="M61.1,32.3H70"/>
<path id="path204-2_00000037687426533085199680000009794350138996183682_" class="st1" d="M61.2,50.9h11"/>
<path id="path204-3_00000176013383427694983530000004105091891674772643_" class="st1" d="M61.2,59.8h14.6"/>
<path id="path204-4_00000012451030248753615960000007477106329989735561_" class="st1" d="M61.2,68.7h14.6"/>
<path id="path204-5_00000178927101917716830490000010373769514536437427_" class="st1" d="M61.2,77.6h14.6"/>
<path id="path204-6_00000056425880652564337320000010793108546895459712_" class="st1" d="M61.2,86.6h11"/>
<path id="path204-19_00000039855321908277470070000000397674764257932469_" class="st1" d="M61,95.5h12.3"/>
<path id="path204-17_00000027579095002974867700000006782997277397156769_" class="st1" d="M83.3,85.3h8.4"/>
<path id="path204" class="st1" d="M8.3,28.6h45.6"/>
<path id="path204-7" class="st2" d="M8,17.6h26.9"/>
<path id="path204-2" class="st1" d="M8,39.6h44.4"/>
<path id="path204-3" class="st1" d="M8.3,50.6h44.4"/>
<path id="path204-4" class="st1" d="M8.3,61.6h36.2"/>
<path id="path204-5" class="st1" d="M8.2,72.6h30.9"/>
<path id="path204-6" class="st1" d="M7.8,83.6h44.4"/>
<path id="path204-19" class="st1" d="M7.5,94.6h41.1"/>
<path id="path204-2_00000011722020218317423170000006439869624938669232_" class="st1" d="M7.7,105.6h44.4"/>
</svg>
