<?xml version="1.0" encoding="utf-8"?>
<!-- Generator: Adobe Illustrator 26.5.0, SVG Export Plug-In . SVG Version: 6.00 Build 0)  -->
<svg version="1.1" id="Layer_1" xmlns="http://www.w3.org/2000/svg" xmlns:xlink="http://www.w3.org/1999/xlink" x="0px" y="0px"
	 viewBox="0 0 100 120" style="enable-background:new 0 0 100 120;" xml:space="preserve">
<style type="text/css">
	.st0{fill:none;stroke:#231F20;stroke-width:2.17;stroke-miterlimit:13.33;}
	.st1{fill:none;stroke:#231F20;stroke-width:1.76;stroke-miterlimit:13.33;}
	.st2{fill:#FFFFFF;stroke:#231F20;stroke-width:1.88;stroke-miterlimit:13.33;}
	.st3{fill:#FFFFFF;stroke:#231F20;stroke-width:1.76;stroke-miterlimit:13.33;}
	.st4{fill:#FFFFFF;stroke:#231F20;stroke-width:1.66;stroke-miterlimit:13.33;}
	.st5{fill:none;stroke:#231F20;stroke-width:1.66;stroke-miterlimit:13.33;}
</style>
<path id="path204" class="st0" d="M7.9,31h45.6"/>
<path id="path204-7" class="st0" d="M17.3,19.1h26.9"/>
<path id="path204-13" class="st1" d="M61.4,31h8.1"/>
<g>
	<path id="path192" class="st2" d="M61.1,118.5H1.2V1.5h59.9V118.5z"/>
	<path id="path194" class="st3" d="M83.2,15.2h-22v92.7h22V15.2z"/>
	<path id="path196" class="st4" d="M83.2,38h15.6v54.5H83.2V38z"/>
	<path id="path204-2" class="st0" d="M9,43.4h44.4"/>
	<path id="path204-3" class="st0" d="M9,55h44.4"/>
	<path id="path204-4" class="st0" d="M9,66.6h44.4"/>
	<path id="path204-5" class="st0" d="M9,78.2h44.4"/>
	<path id="path204-6" class="st0" d="M9,89.9h44.4"/>
	<path id="path204-8" class="st1" d="M61.1,43.4h13.4"/>
	<path id="path204-9" class="st1" d="M61.1,55h13.4"/>
	<path id="path204-10" class="st1" d="M61.1,66.6h13.4"/>
	<path id="path204-11" class="st1" d="M61.1,78.2h13.4"/>
	<path id="path204-12" class="st1" d="M61.1,89.9h13.4"/>
	<path id="path204-14" class="st5" d="M83.2,56.8h8.4"/>
	<path id="path204-15" class="st5" d="M83.2,63.9h8.4"/>
	<path id="path204-16" class="st5" d="M83.2,71.1h8.4"/>
	<path id="path204-17" class="st5" d="M83.2,78.2h8.4"/>
	<path id="path204-18" class="st5" d="M83.2,49.6h5"/>
	<path id="path204-19" class="st0" d="M8.5,101.5H53"/>
</g>
</svg>
