<?xml version="1.0" encoding="utf-8"?>
<!-- Generator: Adobe Illustrator 22.1.0, SVG Export Plug-In . SVG Version: 6.00 Build 0)  -->
<svg version="1.1" id="Layer_1" xmlns="http://www.w3.org/2000/svg" xmlns:xlink="http://www.w3.org/1999/xlink" x="0px" y="0px"
	 viewBox="0 0 76 114" style="enable-background:new 0 0 76 114;" xml:space="preserve">
<style type="text/css">
	.st0{fill:#F2F0ED;}
	.st1{fill:#45342C;}
</style>
<rect class="st0" width="76" height="114"/>
<rect x="19" y="32.6" class="st1" width="39.9" height="0.9"/>
<path class="st1" d="M20,17.5h28c0.6,0,1,0.4,1,1v1c0,0.6-0.4,1-1,1H20c-0.6,0-1-0.4-1-1v-1C19,17.9,19.4,17.5,20,17.5z"/>
<rect x="19" y="42.5" class="st1" width="42.5" height="1"/>
<rect x="19" y="52.5" class="st1" width="38.6" height="1"/>
<rect x="19" y="62.5" class="st1" width="41" height="1"/>
<rect x="19" y="72.5" class="st1" width="40.7" height="1"/>
<rect x="19" y="82.5" class="st1" width="31.2" height="1"/>
<rect x="19" y="92.5" class="st1" width="39.3" height="1"/>
<rect x="19" y="102.5" class="st1" width="35.8" height="1"/>
</svg>
