<?xml version="1.0" encoding="utf-8"?>
<!-- Generator: Adobe Illustrator 22.1.0, SVG Export Plug-In . SVG Version: 6.00 Build 0)  -->
<svg version="1.1" id="Layer_1" xmlns="http://www.w3.org/2000/svg" xmlns:xlink="http://www.w3.org/1999/xlink" x="0px" y="0px"
	 viewBox="0 0 9.8 11" style="enable-background:new 0 0 9.8 11;" xml:space="preserve">
<style type="text/css">
	.st0{fill:#FFFFFF;}
</style>
<g>
	<path class="st0" d="M2.6,6.6V5.8c0-0.2,0-0.2,0.1-0.2c0,0,0.1,0,0.2,0.1l2.8,2.9V1c0-0.2,0.1-0.3,0.5-0.3h0.1
		c0.2,0,0.5,0.1,0.5,0.3v7.7l2.8-2.8c0-0.2,0.1-0.2,0.1-0.2s0.1,0.1,0.1,0.2v0.8c0,0.2-0.1,0.3-0.2,0.5l-3.2,3.2
		c0,0-0.1,0.1-0.2,0.1l0,0c-0.1,0-0.1,0-0.2-0.1L2.8,7.1C2.7,7,2.6,6.7,2.6,6.6z"/>
</g>
</svg>
