<svg xmlns="http://www.w3.org/2000/svg" width="11" height="4" viewBox="0 0 11 4">
  <path fill="#FFFFFF" fill-rule="evenodd" d="M127.611539,18 C128.157307,18 128.430188,18.0699993 128.430188,18.21 C128.430188,18.2566669 128.399867,18.3033331 128.339227,18.35 L124.549188,21.44 C124.407692,21.573334 124.064065,21.64 123.518297,21.64 L122.911891,21.64 C122.40655,21.64 122.062923,21.573334 121.881,21.44 L118.090961,18.35 C118.03032,18.3033331 118,18.2566669 118,18.21 C118,18.0699993 118.27288,18 118.818648,18 L118.93993,18 C119.465484,18 119.819218,18.0766659 120.001141,18.23 L123.215094,20.84 L126.459367,18.23 C126.661504,18.0766659 127.00513,18 127.490258,18 L127.611539,18 Z" transform="translate(-118 -18)"/>
</svg>
