<svg xmlns="http://www.w3.org/2000/svg" width="18" height="10" viewBox="0 0 18 10">
  <path fill="#282828" fill-rule="evenodd" d="M640.635458,824.78202 C641.129235,824.78202 641.514666,824.823939 641.792185,824.907887 C642.069596,824.991835 642.273839,825.125473 642.404914,825.308802 C642.535989,825.49224 642.622145,825.728542 642.663708,826.017928 C642.705271,826.307313 642.730274,826.714905 642.739149,827.240593 L643.414114,827.240593 L643.826929,824 C643.626042,824.008865 643.466501,824.017731 643.348523,824.026596 C643.230653,824.035352 643.088646,824.047611 642.922611,824.063043 C642.756575,824.078476 642.598225,824.08953 642.447451,824.096097 C642.296785,824.102773 642.166685,824.106057 642.057582,824.106057 L635.910488,824.106057 L635.799004,824.78202 C636.231519,824.795263 636.527546,824.849441 636.687087,824.944334 C636.84652,825.039336 636.926182,825.234814 636.926182,825.530876 C636.926182,825.641311 636.89566,825.886479 636.834506,826.266489 L635.785908,832.330013 L635.556554,832.982773 C635.456002,833.121883 635.325035,833.211413 635.163329,833.251144 C635.001732,833.290874 634.762204,833.310794 634.434463,833.310794 L634.991341,830.739597 L634.32287,830.739597 C633.999567,831.472911 633.719883,832.005275 633.484035,832.33658 C633.248079,832.667995 632.919255,832.913162 632.497673,833.072193 C632.07609,833.231224 631.467691,833.310794 630.672584,833.310794 L629.447126,833.310794 L630.122091,829.116017 C630.624526,829.124773 630.995887,829.154653 631.236173,829.205437 C631.476458,829.256222 631.643576,829.349036 631.737526,829.483769 C631.831475,829.618501 631.87845,829.829411 631.87845,830.116608 L631.87845,830.891951 L632.546921,830.891951 L633.274272,826.889368 L632.592705,826.889368 C632.514125,827.287 632.402641,827.589629 632.25847,827.797255 C632.114298,828.004881 631.920987,828.149574 631.678537,828.231333 C631.436086,828.312983 631.126962,828.353917 630.751272,828.353917 L630.266263,828.353917 L630.915034,824.78202 L632.310964,824.78202 C632.804633,824.78202 633.190172,824.823939 633.467583,824.907887 C633.744994,824.991835 633.949345,825.125473 634.080312,825.308802 C634.211387,825.49224 634.297759,825.728542 634.339214,826.017928 C634.380669,826.307313 634.405888,826.714905 634.414547,827.240593 L635.08962,827.240593 L635.502435,824 C635.301548,824.008865 635.142007,824.017731 635.024029,824.026596 C634.90605,824.035352 634.764044,824.047611 634.598117,824.063043 C634.432081,824.078476 634.273731,824.08953 634.122957,824.096097 C633.972183,824.102773 633.842299,824.106057 633.733088,824.106057 L627.585994,824.106057 L627.47451,824.78202 C627.907025,824.795263 628.203052,824.849441 628.362485,824.944334 C628.521918,825.039336 628.601688,825.234814 628.601688,825.530876 C628.601688,825.641311 628.571166,825.886479 628.510012,826.266489 L627.461414,832.330013 L627.23206,832.982773 C627.131616,833.121883 627.000541,833.211413 626.838835,833.251144 C626.677238,833.290874 626.432514,833.310794 626.104881,833.310794 L626,834 L642.608074,834 L643.315835,830.739597 L642.647364,830.739597 C642.324061,831.472911 642.044485,832.005275 641.808529,832.33658 C641.572573,832.667995 641.243858,832.913162 640.822275,833.072193 C640.400584,833.231224 639.792294,833.310794 638.997078,833.310794 L637.77162,833.310794 L638.446585,829.116017 C638.94902,829.124773 639.320489,829.154653 639.560667,829.205437 C639.800952,829.256222 639.96807,829.349036 640.06202,829.483769 C640.155969,829.618501 640.202944,829.829411 640.202944,830.116608 L640.202944,830.891951 L640.871415,830.891951 L641.598766,826.889368 L640.917307,826.889368 C640.838619,827.287 640.727243,827.589629 640.583072,827.797255 C640.4389,828.004881 640.245481,828.149574 640.003031,828.231333 C639.76058,828.312983 639.451564,828.353917 639.075766,828.353917 L638.590757,828.353917 L639.239636,824.78202 L640.635458,824.78202 Z" transform="translate(-626 -824)"/>
</svg>
