<?xml version="1.0" encoding="UTF-8"?>
<svg id="Layer_1" data-name="Layer 1" xmlns="http://www.w3.org/2000/svg" viewBox="0 0 100 150">
  <defs>
    <style>
      .cls-1 {
        fill: #fff;
      }

      .cls-2 {
        fill: none;
        stroke-width: 2.48px;
      }

      .cls-2, .cls-3 {
        stroke: #3c2e28;
        stroke-miterlimit: 22.35;
      }

      .cls-3 {
        fill: #3c2e28;
        stroke-width: .55px;
      }
    </style>
  </defs>
  <path class="cls-1" d="M12.86,144.34c4.34,2.03,8.61,4.75,13.57,4.05,1.17-.4,1.36-1.82,.97-3.03-.68-2.62-2.53-4.34-3.79-6.76l6.02-12.51c2.14,.1,4.18-.1,6.22-.3,.29-.1,.68-.4,.87-.81,3.98-7.77,7.28-16.14,11.65-23.71,1.85,.2,3.5-.71,4.95-1.72l13.88-28.86s1.98,.89,2.98,.8c4.58-.38,24.49-36.62,25.53-38.05l.26-.18c1.1-.65,1.45-1.2,1.97-2.27,2.93-6.1-5.64-16.72-19.14-23.72C65.28,.27,51.96-.47,49.03,5.63c-.49,1.03-.66,2.18-.53,3.43l-.02,.07c-.48,1.72-16.42,39.83-13.96,43.86,.54,.88,2.41,1.99,2.41,1.99l-14.51,29.94c-.2,.41-.25,.89-.11,1.33,.36,1.14,1.34,1.57,2.39,2.74-3.2,8.17-7.67,15.94-11.26,23.91-.19,.4-.19,.91-.1,1.21,1.07,1.82,2.14,3.63,3.5,5.35l-6.02,12.51c-2.62,.4-5.05-.1-7.48,.91-1.17,.4-2.14,1.41-1.75,2.62,2.43,4.54,7.09,6.45,11.26,8.84"/>
  <path id="path340" class="cls-2" d="M12.85,144.34c-4.17-2.38-8.83-4.3-11.26-8.84-.39-1.21,.58-2.22,1.75-2.62,2.43-1.01,4.86-.51,7.48-.91l6.02-12.51c-1.36-1.71-2.43-3.53-3.5-5.35-.1-.3-.1-.81,.1-1.21,3.59-7.97,8.06-15.74,11.26-23.91-1.05-1.17-2.02-1.59-2.39-2.74-.14-.44-.09-.92,.11-1.33l14.51-29.94s-1.87-1.11-2.41-1.99c-2.46-4.03,13.5-42.22,13.98-43.93"/>
  <path id="path344" class="cls-2" d="M36.83,54.94c4.38,2.81,9.25,5.68,14.59,8.47,5.69,2.97,11.13,5.44,16.19,7.5"/>
  <path id="path348" class="cls-2" d="M12.86,144.34c4.34,2.03,8.61,4.75,13.57,4.05,1.17-.4,1.36-1.82,.97-3.03-.68-2.62-2.53-4.34-3.79-6.76l6.02-12.51c2.14,.1,4.18-.1,6.22-.3,.29-.1,.68-.4,.87-.81,3.98-7.77,7.28-16.14,11.65-23.71,1.85,.2,3.5-.71,4.95-1.72l13.88-28.86s1.98,.89,2.98,.8c4.58-.38,24.49-36.62,25.53-38.05"/>
  <path id="path352" class="cls-2" d="M24.69,88.98c3.17,2.26,6.94,4.66,11.31,6.94,4.46,2.32,8.65,4.05,12.36,5.34"/>
  <path id="path356" class="cls-2" d="M97.92,31c-2.93,6.1-16.26,5.36-29.76-1.65-13.5-7.01-22.07-17.63-19.14-23.72,2.93-6.1,16.26-5.36,29.76,1.65,13.5,7.01,22.07,17.63,19.14,23.72Z"/>
  <path id="path360" class="cls-3" d="M92.42,28.13c-2.04,4.23-12.17,3.26-22.63-2.16-10.46-5.42-17.29-13.24-15.25-17.47,2.04-4.23,12.17-3.26,22.63,2.16,10.46,5.42,17.29,13.24,15.25,17.47Z"/>
  <path id="path364" class="cls-2" d="M16.83,119.45c1.2,1.26,3.27,2.7,6.01,4.12,2.74,1.42,5.09,2.27,6.78,2.51"/>
</svg>