<?xml version="1.0" encoding="UTF-8"?>
<svg id="Layer_1" data-name="Layer 1" xmlns="http://www.w3.org/2000/svg" viewBox="0 0 100 150">
  <defs>
    <style>
      .cls-1 {
        fill: #fff;
      }

      .cls-2 {
        fill: none;
      }

      .cls-2, .cls-3 {
        stroke: #4a3e37;
        stroke-miterlimit: 22.35;
        stroke-width: .62px;
      }

      .cls-3 {
        fill: #4a3e37;
      }
    </style>
  </defs>
  <path class="cls-1" d="M12.47,145.53c4.43,2.06,8.79,4.82,13.85,4.1,1.19-.41,1.39-1.84,.99-3.07-.69-2.66-2.58-4.4-3.87-6.85l6.14-12.68c2.18,.1,4.26-.1,6.34-.31,.3-.1,.69-.41,.89-.82,4.06-7.88,7.43-16.36,11.89-24.03,1.88,.2,3.57-.72,5.06-1.74l14.17-29.25s2.02,.9,3.04,.81c4.67-.38,25-37.12,26.05-38.56l.26-.18c1.12-.66,1.48-1.22,2.01-2.3,2.99-6.18-5.75-16.95-19.53-24.05-13.78-7.1-27.38-7.85-30.37-1.67-.5,1.04-.68,2.21-.55,3.47l-.02,.07c-.49,1.74-16.76,40.38-14.25,44.46,.55,.89,2.46,2.02,2.46,2.02l-14.8,30.34c-.2,.42-.25,.9-.11,1.35,.37,1.16,1.37,1.59,2.43,2.78-3.27,8.28-7.83,16.16-11.49,24.24-.2,.41-.2,.92-.1,1.23,1.09,1.84,2.18,3.68,3.57,5.42l-6.14,12.68c-2.68,.41-5.16-.1-7.63,.92-1.19,.41-2.18,1.43-1.78,2.66,2.48,4.6,7.24,6.54,11.49,8.96"/>
  <path id="path340" class="cls-2" d="M12.46,145.53c-4.25-2.41-9.01-4.36-11.49-8.96-.4-1.23,.59-2.25,1.78-2.66,2.48-1.02,4.96-.51,7.63-.92l6.14-12.68c-1.39-1.74-2.48-3.58-3.57-5.42-.1-.31-.1-.82,.1-1.23,3.67-8.08,8.22-15.96,11.49-24.24-1.07-1.19-2.07-1.62-2.43-2.78-.14-.44-.09-.93,.11-1.35l14.8-30.34s-1.91-1.12-2.46-2.02c-2.51-4.08,13.78-42.79,14.27-44.53"/>
  <path id="path344" class="cls-2" d="M36.94,54.91c4.47,2.85,9.44,5.76,14.89,8.59,5.81,3.01,11.35,5.51,16.52,7.6"/>
  <path id="path348" class="cls-2" d="M12.47,145.53c4.43,2.06,8.79,4.82,13.85,4.1,1.19-.41,1.39-1.84,.99-3.07-.69-2.66-2.58-4.4-3.87-6.85l6.14-12.68c2.18,.1,4.26-.1,6.34-.31,.3-.1,.69-.41,.89-.82,4.06-7.88,7.43-16.36,11.89-24.03,1.88,.2,3.57-.72,5.06-1.74l14.17-29.25s2.02,.9,3.04,.81c4.67-.38,25-37.12,26.05-38.56"/>
  <path id="path352" class="cls-2" d="M24.54,89.42c3.24,2.3,7.08,4.73,11.54,7.03,4.55,2.35,8.83,4.1,12.62,5.42"/>
  <path id="path356" class="cls-2" d="M99.29,30.65c-2.99,6.18-16.59,5.43-30.37-1.67-13.78-7.1-22.53-17.87-19.53-24.05,2.99-6.18,16.59-5.43,30.37,1.67,13.78,7.1,22.53,17.87,19.53,24.05Z"/>
  <path id="path360" class="cls-3" d="M95.68,28.8c-2.3,4.74-13.71,3.66-25.5-2.42-11.79-6.07-19.49-14.84-17.19-19.58,2.3-4.74,13.71-3.66,25.5,2.42,11.79,6.07,19.49,14.84,17.19,19.58Z"/>
  <path id="path364" class="cls-2" d="M16.52,120.31c1.23,1.27,3.34,2.74,6.13,4.18,2.79,1.44,5.2,2.3,6.92,2.55"/>
</svg>