<?xml version="1.0" encoding="utf-8"?>
<!-- Generator: Adobe Illustrator 23.0.4, SVG Export Plug-In . SVG Version: 6.00 Build 0)  -->
<svg version="1.1" id="Layer_1" xmlns="http://www.w3.org/2000/svg" xmlns:xlink="http://www.w3.org/1999/xlink" x="0px" y="0px"
	 viewBox="0 0 768 768" style="enable-background:new 0 0 768 768;" xml:space="preserve">
<style type="text/css">
	.st0{opacity:0.3;fill:none;stroke:#449FDB;enable-background:new    ;}
	.st1{fill:none;stroke:#449FDB;}
	.st2{fill:#45342C;}
</style>
<title></title>
<g id="icomoon-ignore">
	<line class="st0" x1="16" y1="0" x2="16" y2="768"/>
	<line class="st1" x1="32" y1="0" x2="32" y2="768"/>
	<line class="st0" x1="48" y1="0" x2="48" y2="768"/>
	<line class="st1" x1="64" y1="0" x2="64" y2="768"/>
	<line class="st0" x1="80" y1="0" x2="80" y2="768"/>
	<line class="st1" x1="96" y1="0" x2="96" y2="768"/>
	<line class="st0" x1="112" y1="0" x2="112" y2="768"/>
	<line class="st1" x1="128" y1="0" x2="128" y2="768"/>
	<line class="st0" x1="144" y1="0" x2="144" y2="768"/>
	<line class="st1" x1="160" y1="0" x2="160" y2="768"/>
	<line class="st0" x1="176" y1="0" x2="176" y2="768"/>
	<line class="st1" x1="192" y1="0" x2="192" y2="768"/>
	<line class="st0" x1="208" y1="0" x2="208" y2="768"/>
	<line class="st1" x1="224" y1="0" x2="224" y2="768"/>
	<line class="st0" x1="240" y1="0" x2="240" y2="768"/>
	<line class="st1" x1="256" y1="0" x2="256" y2="768"/>
	<line class="st0" x1="272" y1="0" x2="272" y2="768"/>
	<line class="st1" x1="288" y1="0" x2="288" y2="768"/>
	<line class="st0" x1="304" y1="0" x2="304" y2="768"/>
	<line class="st1" x1="320" y1="0" x2="320" y2="768"/>
	<line class="st0" x1="336" y1="0" x2="336" y2="768"/>
	<line class="st1" x1="352" y1="0" x2="352" y2="768"/>
	<line class="st0" x1="368" y1="0" x2="368" y2="768"/>
	<line class="st1" x1="384" y1="0" x2="384" y2="768"/>
	<line class="st0" x1="400" y1="0" x2="400" y2="768"/>
	<line class="st1" x1="416" y1="0" x2="416" y2="768"/>
	<line class="st0" x1="432" y1="0" x2="432" y2="768"/>
	<line class="st1" x1="448" y1="0" x2="448" y2="768"/>
	<line class="st0" x1="464" y1="0" x2="464" y2="768"/>
	<line class="st1" x1="480" y1="0" x2="480" y2="768"/>
	<line class="st0" x1="496" y1="0" x2="496" y2="768"/>
	<line class="st1" x1="512" y1="0" x2="512" y2="768"/>
	<line class="st0" x1="528" y1="0" x2="528" y2="768"/>
	<line class="st1" x1="544" y1="0" x2="544" y2="768"/>
	<line class="st0" x1="560" y1="0" x2="560" y2="768"/>
	<line class="st1" x1="576" y1="0" x2="576" y2="768"/>
	<line class="st0" x1="592" y1="0" x2="592" y2="768"/>
	<line class="st1" x1="608" y1="0" x2="608" y2="768"/>
	<line class="st0" x1="624" y1="0" x2="624" y2="768"/>
	<line class="st1" x1="640" y1="0" x2="640" y2="768"/>
	<line class="st0" x1="656" y1="0" x2="656" y2="768"/>
	<line class="st1" x1="672" y1="0" x2="672" y2="768"/>
	<line class="st0" x1="688" y1="0" x2="688" y2="768"/>
	<line class="st1" x1="704" y1="0" x2="704" y2="768"/>
	<line class="st0" x1="720" y1="0" x2="720" y2="768"/>
	<line class="st1" x1="736" y1="0" x2="736" y2="768"/>
	<line class="st0" x1="752" y1="0" x2="752" y2="768"/>
	<line class="st0" x1="0" y1="16" x2="768" y2="16"/>
	<line class="st1" x1="0" y1="32" x2="768" y2="32"/>
	<line class="st0" x1="0" y1="48" x2="768" y2="48"/>
	<line class="st1" x1="0" y1="64" x2="768" y2="64"/>
	<line class="st0" x1="0" y1="80" x2="768" y2="80"/>
	<line class="st1" x1="0" y1="96" x2="768" y2="96"/>
	<line class="st0" x1="0" y1="112" x2="768" y2="112"/>
	<line class="st1" x1="0" y1="128" x2="768" y2="128"/>
	<line class="st0" x1="0" y1="144" x2="768" y2="144"/>
	<line class="st1" x1="0" y1="160" x2="768" y2="160"/>
	<line class="st0" x1="0" y1="176" x2="768" y2="176"/>
	<line class="st1" x1="0" y1="192" x2="768" y2="192"/>
	<line class="st0" x1="0" y1="208" x2="768" y2="208"/>
	<line class="st1" x1="0" y1="224" x2="768" y2="224"/>
	<line class="st0" x1="0" y1="240" x2="768" y2="240"/>
	<line class="st1" x1="0" y1="256" x2="768" y2="256"/>
	<line class="st0" x1="0" y1="272" x2="768" y2="272"/>
	<line class="st1" x1="0" y1="288" x2="768" y2="288"/>
	<line class="st0" x1="0" y1="304" x2="768" y2="304"/>
	<line class="st1" x1="0" y1="320" x2="768" y2="320"/>
	<line class="st0" x1="0" y1="336" x2="768" y2="336"/>
	<line class="st1" x1="0" y1="352" x2="768" y2="352"/>
	<line class="st0" x1="0" y1="368" x2="768" y2="368"/>
	<line class="st1" x1="0" y1="384" x2="768" y2="384"/>
	<line class="st0" x1="0" y1="400" x2="768" y2="400"/>
	<line class="st1" x1="0" y1="416" x2="768" y2="416"/>
	<line class="st0" x1="0" y1="432" x2="768" y2="432"/>
	<line class="st1" x1="0" y1="448" x2="768" y2="448"/>
	<line class="st0" x1="0" y1="464" x2="768" y2="464"/>
	<line class="st1" x1="0" y1="480" x2="768" y2="480"/>
	<line class="st0" x1="0" y1="496" x2="768" y2="496"/>
	<line class="st1" x1="0" y1="512" x2="768" y2="512"/>
	<line class="st0" x1="0" y1="528" x2="768" y2="528"/>
	<line class="st1" x1="0" y1="544" x2="768" y2="544"/>
	<line class="st0" x1="0" y1="560" x2="768" y2="560"/>
	<line class="st1" x1="0" y1="576" x2="768" y2="576"/>
	<line class="st0" x1="0" y1="592" x2="768" y2="592"/>
	<line class="st1" x1="0" y1="608" x2="768" y2="608"/>
	<line class="st0" x1="0" y1="624" x2="768" y2="624"/>
	<line class="st1" x1="0" y1="640" x2="768" y2="640"/>
	<line class="st0" x1="0" y1="656" x2="768" y2="656"/>
	<line class="st1" x1="0" y1="672" x2="768" y2="672"/>
	<line class="st0" x1="0" y1="688" x2="768" y2="688"/>
	<line class="st1" x1="0" y1="704" x2="768" y2="704"/>
	<line class="st0" x1="0" y1="720" x2="768" y2="720"/>
	<line class="st1" x1="0" y1="736" x2="768" y2="736"/>
	<line class="st0" x1="0" y1="752" x2="768" y2="752"/>
</g>
<path class="st2" d="M576,384c-17.6,0-32,14.4-32,32v192c0,17.6-14.4,32-32,32H160c-17.6,0-32-14.4-32-32V256c0-17.6,14.4-32,32-32
	h192c17.6,0,32-14.4,32-32s-14.4-32-32-32H160c-53,0-96,43-96,96v352c0,53,43,96,96,96h352c53,0,96-43,96-96V416
	C608,398.4,593.6,384,576,384z"/>
<path class="st2" d="M704,94.8L704,94.8c0-0.2,0-0.2,0-0.4v-0.2V94v-0.2l0,0c-0.2-3.4-1-6.6-2.2-9.6c0,0,0,0,0-0.2c0,0,0,0,0-0.2
	c0,0,0-0.2-0.2-0.2l0,0c-1.2-3-3-5.6-5-8.2l0,0l-0.2-0.2l0,0l-0.2-0.2l-0.2-0.2c0,0,0,0,0-0.2c-0.8-0.8-1.4-1.6-2.2-2.2
	c0,0,0,0-0.2,0l-0.2-0.2c0,0-0.2,0-0.2-0.2c0,0,0,0-0.2,0l-0.2-0.2l0,0c-2.4-2.2-5.2-3.8-8.2-5l0,0h-0.2c0,0,0,0-0.2,0
	c0,0,0,0-0.2,0c-3-1.2-6.2-2-9.6-2.2l0,0h-0.2H674h-0.2h-0.2c0,0,0,0-0.2,0c-0.4,0-0.8,0-1.2,0h-192c-17.6,0-32,14.4-32,32
	s14.4,32,32,32H595L297.4,425.4c-12.4,12.4-12.4,32.8,0,45.2c6.2,6.2,14.4,9.4,22.6,9.4s16.4-3.2,22.6-9.4L640,173.2V288
	c0,17.6,14.4,32,32,32s32-14.4,32-32V96C704,95.6,704,95.2,704,94.8L704,94.8z"/>
</svg>
