<?xml version="1.0" encoding="utf-8"?>
<!-- Generator: Adobe Illustrator 23.0.4, SVG Export Plug-In . SVG Version: 6.00 Build 0)  -->
<svg version="1.1" id="Layer_1" xmlns="http://www.w3.org/2000/svg" xmlns:xlink="http://www.w3.org/1999/xlink" x="0px" y="0px"
	 viewBox="0 0 768 768" style="enable-background:new 0 0 768 768;" xml:space="preserve">
<style type="text/css">
	.st0{fill:#45342C;}
</style>
<title></title>
<path class="st0" d="M576,384c-17.6,0-32,14.4-32,32v192c0,17.6-14.4,32-32,32H160c-17.6,0-32-14.4-32-32V256c0-17.6,14.4-32,32-32
	h192c17.6,0,32-14.4,32-32s-14.4-32-32-32H160c-53,0-96,43-96,96v352c0,53,43,96,96,96h352c53,0,96-43,96-96V416
	C608,398.4,593.6,384,576,384z"/>
<path class="st0" d="M704,94.8L704,94.8c0-0.2,0-0.2,0-0.4v-0.2V94v-0.2l0,0c-0.2-3.4-1-6.6-2.2-9.6c0,0,0,0,0-0.2c0,0,0,0,0-0.2
	c0,0,0-0.2-0.2-0.2l0,0c-1.2-3-3-5.6-5-8.2l0,0l-0.2-0.2l0,0l-0.2-0.2l-0.2-0.2c0,0,0,0,0-0.2c-0.8-0.8-1.4-1.6-2.2-2.2
	c0,0,0,0-0.2,0l-0.2-0.2c0,0-0.2,0-0.2-0.2c0,0,0,0-0.2,0l-0.2-0.2l0,0c-2.4-2.2-5.2-3.8-8.2-5l0,0h-0.2c0,0,0,0-0.2,0
	c0,0,0,0-0.2,0c-3-1.2-6.2-2-9.6-2.2l0,0h-0.2H674h-0.2h-0.2c0,0,0,0-0.2,0c-0.4,0-0.8,0-1.2,0h-192c-17.6,0-32,14.4-32,32
	s14.4,32,32,32H595L297.4,425.4c-12.4,12.4-12.4,32.8,0,45.2c6.2,6.2,14.4,9.4,22.6,9.4s16.4-3.2,22.6-9.4L640,173.2V288
	c0,17.6,14.4,32,32,32s32-14.4,32-32V96C704,95.6,704,95.2,704,94.8L704,94.8z"/>
</svg>
