<?xml version="1.0" encoding="utf-8"?>
<!-- Generator: Adobe Illustrator 22.1.0, SVG Export Plug-In . SVG Version: 6.00 Build 0)  -->
<svg version="1.1" id="Layer_1" xmlns="http://www.w3.org/2000/svg" xmlns:xlink="http://www.w3.org/1999/xlink" x="0px" y="0px"
	 viewBox="0 0 768 768" style="enable-background:new 0 0 768 768;" xml:space="preserve">
<style type="text/css">
	.st0{fill:#FFFFFF;}
</style>
<path class="st0" d="M764.8,371.2C758.4,358.4,624,96,384,96S9.6,358.4,3.2,371.2C0,380.8,0,390.4,3.2,400
	C9.6,409.6,144,672,384,672s374.4-262.4,380.8-275.2C768,390.4,768,377.6,764.8,371.2L764.8,371.2z M384,608
	C211.2,608,99.2,435.2,67.2,384C96,332.8,211.2,160,384,160s284.8,172.8,316.8,224C668.8,435.2,556.8,608,384,608z"/>
<path class="st0" d="M384,256c-70.4,0-128,57.6-128,128s57.6,128,128,128s128-57.6,128-128S454.4,256,384,256z M384,448
	c-35.2,0-64-28.8-64-64s28.8-64,64-64s64,28.8,64,64S419.2,448,384,448z"/>
</svg>
