<svg xmlns="http://www.w3.org/2000/svg" width="10" height="10" viewBox="0 0 10 10">
  <path fill="#f5f5f5" d="M9.95048741,4.3 C9.85965278,4.1 9.72340083,4 9.54173157,4 L0.458268433,4 C0.276599171,4 0.140347224,4.1 0.0495125925,4.3 C-0.0413220389,4.45 0.0040952768,4.65 0.0949299081,4.8 L3.63748053,9.4 L3.63748053,12.5 C3.63748053,12.7 3.72831516,12.85 3.90998442,12.95 L5.72667705,13.95 C5.77209437,14 5.81751168,14 5.90834631,14 C5.99918094,14 6.09001558,14 6.13543289,13.95 C6.27168484,13.85 6.36251947,13.7 6.36251947,13.5 L6.36251947,9.4 L9.90507009,4.8 C9.99590472,4.65 10.041322,4.45 9.95048741,4.3 Z" transform="translate(0 -4)"/>
</svg>
