<?xml version="1.0" encoding="utf-8"?>
<!-- Generator: Adobe Illustrator 22.1.0, SVG Export Plug-In . SVG Version: 6.00 Build 0)  -->
<svg version="1.1" id="Layer_1" xmlns="http://www.w3.org/2000/svg" xmlns:xlink="http://www.w3.org/1999/xlink" x="0px" y="0px"
	 viewBox="0 0 9 9" style="enable-background:new 0 0 9 9;" xml:space="preserve">
<style type="text/css">
	.st0{fill:#FFFFFF;}
</style>
<g>
	<path class="st0" d="M6.4,8L6.2,8.5C5.9,8.7,5.6,8.8,5.3,8.9C5.1,9,4.9,9,4.6,9C4.1,9,3.7,8.9,3.5,8.7S3.1,8.2,3.1,7.8
		c0-0.1,0-0.3,0-0.4c0-0.1,0-0.3,0.1-0.5l0.5-1.7c0-0.2,0.1-0.3,0.1-0.5c0-0.1,0-0.3,0-0.4c0-0.2,0-0.4-0.1-0.4
		C3.6,3.9,3.5,3.9,3.2,3.9c-0.1,0-0.2,0-0.4,0.1C2.7,3.9,2.6,4,2.5,4l0.1-0.5c0.3-0.1,0.6-0.2,0.9-0.3C3.8,3.1,4.1,3,4.3,3
		c0.5,0,0.8,0.1,1,0.3c0.2,0.2,0.4,0.5,0.4,0.9c0,0.1,0,0.2,0,0.4c0,0.2,0,0.4-0.1,0.5L5.2,6.8c0,0.1-0.1,0.3-0.1,0.5
		c0,0.2,0,0.3,0,0.4c0,0.2,0,0.4,0.1,0.5c0.1,0.1,0.3,0.1,0.5,0.1c0.1,0,0.2,0,0.4-0.1C6.2,8.1,6.3,8.1,6.4,8z M6.5,1.1
		c0,0.3-0.1,0.5-0.3,0.7C5.9,2,5.7,2.1,5.4,2.1C5.1,2.1,4.8,2,4.6,1.8S4.2,1.3,4.2,1.1s0.1-0.5,0.3-0.7S5.1,0,5.4,0
		c0.3,0,0.6,0.1,0.8,0.3C6.4,0.5,6.5,0.8,6.5,1.1z"/>
</g>
</svg>
