<?xml version="1.0" encoding="utf-8"?>
<!-- Generator: Adobe Illustrator 22.1.0, SVG Export Plug-In . SVG Version: 6.00 Build 0)  -->
<svg version="1.1" id="Layer_1" xmlns="http://www.w3.org/2000/svg" xmlns:xlink="http://www.w3.org/1999/xlink" x="0px" y="0px"
	 viewBox="0 0 40 10" style="enable-background:new 0 0 40 10;" xml:space="preserve">
<style type="text/css">
	.st0{fill:#FFFFFF;}
</style>
<path class="st0" d="M40,2.3C39.9,0.8,39.2,0,37.9,0c-1.2,0-2.1,1.3-1.7,2.6c0,0,0.5,2.5-2.6,4.8l-0.1,0.1l-0.2,0.1l-0.1,0l-0.2,0.1
	c-0.4,0.2-0.8,0.4-1.2,0.5l-0.3,0.1c-0.1,0-0.2,0.1-0.4,0.1c-0.1,0-0.2,0.1-0.3,0.1c-0.1,0-0.6,0.1-0.3,0.1c-0.2,0-0.5,0.1-0.7,0.1
	c-0.1,0-0.3,0-0.4,0h0h0c0,0-0.1,0-0.1,0h-0.1c-0.3,0-0.5,0-0.8,0c-0.1,0-0.3,0-0.1,0l-0.1,0c-0.2,0-0.3,0-0.5,0s-0.3,0-0.5-0.1
	c-0.1,0-0.4-0.1-0.4-0.1c-0.3-0.1-0.7-0.1-1-0.2c-0.7-0.2-1.3-0.4-2-0.7C22.3,6.9,20.7,6,19.2,5c-0.6-0.4-1.2-0.8-1.8-1.1
	c0.1-0.1,0.2-0.3,0.3-0.4c0.3-0.6,0.6-1.2,0.9-1.8c0.3-0.9-2.2-1.1-2.5-0.3c-0.2,0.5-0.4,1-0.7,1.5C13.3,2,11.2,1.4,9,1.3
	c-1.6-0.1-3.2,0-4.7,0.4C3.2,1.9,2,2.4,1.2,3.2C0.5,3.9,0,4.8,0,5.7c0,0.6,0.3,1,0.7,1.4c1.2,1.1,3.1,1.6,4.6,1.7
	c4.1,0.5,8.3-0.8,11-3.7c0.7,0.5,1.4,1,2.2,1.4c4.6,2.8,10.7,4.8,15.9,2.2C38.5,6.8,40.1,4,40,2.3z M13.4,5.1
	c-0.2,0.2-0.4,0.3-0.6,0.4c-0.1,0.1-0.2,0.1-0.3,0.2l0,0c-0.1,0-0.1,0.1-0.2,0.1c-0.2,0.1-0.5,0.2-0.7,0.3c-0.1,0-0.2,0.1-0.3,0.1
	L11,6.4l-0.1,0c-0.1,0-0.2,0.1-0.3,0.1c-0.1,0-0.2,0.1-0.4,0.1C10,6.7,9.7,6.8,9.5,6.8l0,0l0,0l-0.2,0c-0.1,0-0.2,0-0.4,0.1
	C8.7,6.9,8.4,7,8.2,7H8.2H8.1C8,7,7.9,7,7.8,7C7.5,7,7.3,7,7,7H7C6.9,7,6.8,7,6.7,7C6.4,6.9,6.2,6.9,6,6.9l-0.2,0l-0.1,0
	C5.4,6.8,5.2,6.7,5,6.7L4.8,6.6l0,0l0,0C4.6,6.5,4.4,6.4,4.2,6.4C4.1,6.3,4,6.3,3.9,6.2l0,0C3.7,6.1,3.7,6.1,3.6,6
	C3.5,6,3.4,5.9,3.3,5.8l0,0c0,0-0.1-0.1-0.1-0.1C3.1,5.6,3.1,5.5,3,5.4l0,0c0,0,0-0.1,0-0.1c0-0.3,0-0.7,0.2-1
	c0.1-0.2,0.2-0.3,0.3-0.5c0.1-0.1,0.1-0.2,0.2-0.3c0,0,0,0,0.1-0.1c0,0,0.1-0.1,0.1-0.1C4,3.2,4.2,3.1,4.3,2.9c0,0,0.2-0.1,0.2-0.1
	l0.1-0.1l0.2-0.1c0.1,0,0.2-0.1,0.3-0.1c0,0,0.3-0.1,0.3-0.1C5.7,2.3,6,2.2,6.3,2.2c0.1,0,0.1,0,0.2,0h0c0.2,0,0.3-0.1,0.5-0.1
	c0.1,0,0.3,0,0.4,0l0.1,0l0.2,0c0.3,0,0.7,0,1,0L9,2H9c0.2,0,0.4,0,0.6,0.1c1.6,0.2,3.1,0.6,4.5,1.2c0.3,0.1,0.6,0.2,0.9,0.4
	c-0.1,0.2-0.3,0.3-0.4,0.5C14.2,4.5,13.8,4.8,13.4,5.1z"/>
</svg>
