<svg xmlns="http://www.w3.org/2000/svg" width="40" height="10" viewBox="0 0 40 10">
  <path fill="#000000" d="M39.9967467,2.30912005 C39.9228611,0.790522353 39.2231208,0 37.8627563,0 C36.6849326,0 35.7461507,1.25177866 36.2054005,2.55465033 C36.2054005,2.60148559 36.6559579,5.09510816 33.6382375,7.38010096 L33.5179923,7.46241747 L33.326759,7.58589224 L33.2514246,7.6327275 L33.0688837,7.73633276 C32.697545,7.93905074 32.3133248,8.1182436 31.918586,8.27280933 L31.6476721,8.37073759 C31.5245294,8.4104766 31.4013867,8.4473771 31.2767953,8.48285836 C31.1768324,8.51124336 31.0754208,8.53820911 30.9725604,8.56233637 C30.8928798,8.58220587 30.4133477,8.67445713 30.6915053,8.62762188 C30.4582586,8.66736088 30.2250118,8.70709989 29.9888676,8.73406564 C29.8613787,8.74967739 29.7338898,8.75961214 29.6049521,8.77096614 L29.594811,8.77096614 L29.5629388,8.77096614 C29.5272291,8.77285021 29.4914418,8.77285021 29.4557322,8.77096614 L29.3746029,8.77096614 C29.1012744,8.77948164 28.827463,8.77948164 28.5531687,8.77096614 C28.4966679,8.77096614 28.2460363,8.75109664 28.4082949,8.77096614 L28.3199219,8.76386989 C28.1576633,8.75109664 27.9954047,8.73406564 27.8345948,8.71419614 C27.673785,8.69432663 27.5028339,8.67019938 27.3376779,8.64465288 C27.2768309,8.63471813 26.9479675,8.57369037 26.9610061,8.57936737 C26.6306939,8.51124336 26.3018305,8.4303461 25.9773133,8.34093334 C25.3005117,8.15655472 24.6373743,7.92704686 23.9925428,7.65401625 C22.2786863,6.94439116 20.6995623,5.99917053 19.1682467,4.96737565 C18.5887517,4.57471643 17.9875256,4.20618447 17.3645685,3.86177975 C17.4514927,3.73120874 17.5355195,3.59921847 17.6166488,3.4643897 C17.9655275,2.87762866 18.2658928,2.26444595 18.5148661,1.63071846 C18.8625631,0.762137349 16.3504522,0.566280824 16.0520122,1.30996792 C15.843962,1.8391012 15.6020247,2.35484138 15.3276434,2.85411212 C13.3221557,1.96685379 11.1755865,1.4248105 8.9821729,1.25177866 C7.40304896,1.1424964 5.80654016,1.21203966 4.27377582,1.61794521 C3.16694032,1.91173 2.02823259,2.39995206 1.19665723,3.20040917 C0.508506885,3.8660375 0,4.76300362 0,5.73519 C0,6.30289007 0.33320964,6.77975813 0.740304896,7.16295568 C1.92537222,8.27422858 3.80873106,8.72413089 5.3762651,8.90011791 C9.44142271,9.37698597 13.6340692,8.11811106 16.340311,5.16607067 C17.0849621,5.62874623 17.7890486,6.1425148 18.5438408,6.60093261 C23.1653137,9.43943298 29.2644988,11.362517 34.458223,8.8007704 C38.5451117,6.78969289 40.0807735,4.00654327 39.9967467,2.30912005 Z M13.3904977,5.13192612 C13.1834784,5.28627968 12.9677118,5.43799472 12.7504873,5.56992084 C12.642604,5.63852243 12.5332628,5.70184697 12.4210059,5.76781003 L12.3714378,5.79287599 C12.2970858,5.83245383 12.2256496,5.87203166 12.1469239,5.91029024 C11.9165785,6.02638522 11.686719,6.13280563 11.4573455,6.22955145 C11.3552937,6.27176781 11.253242,6.31398417 11.1497323,6.35356201 L10.9572918,6.42744063 L10.8115036,6.4762533 C10.7502725,6.49604222 10.5884475,6.54881266 10.5505426,6.55936675 C10.433912,6.59498681 10.3158235,6.62796834 10.197735,6.65963061 C9.95135289,6.72559367 9.70351287,6.78100264 9.45275708,6.83377309 L9.40464695,6.84300792 L9.44546766,6.83641161 L9.28947424,6.86279683 C9.17284364,6.87994723 9.05621304,6.89841689 8.93812455,6.91424802 C8.69320029,6.94722955 8.44827603,6.97097625 8.2091833,6.99076517 L8.15378377,6.99076517 L8.0925527,6.99076517 C7.99050093,6.99076517 7.88990703,6.99868074 7.78931314,7 C7.54147312,7 7.29363309,7 7.04579306,6.99208443 L6.99039353,6.99208443 C6.88251022,6.98416887 6.7760848,6.9762533 6.66965938,6.96569921 C6.44077183,6.94327177 6.21042639,6.91424802 5.98299672,6.87994723 L5.78909835,6.84564644 L5.6433101,6.81530343 C5.43774866,6.77044855 5.235103,6.72031662 5.03391521,6.66358839 L4.80356978,6.60158311 L4.76566483,6.58970976 L4.73359142,6.57783641 C4.56156128,6.51319261 4.39244691,6.44591029 4.2262483,6.37203166 C4.10232829,6.31662269 3.98423981,6.25461741 3.86469344,6.19261214 L3.8180412,6.16226913 C3.74952073,6.11741425 3.67954237,6.07387863 3.61393765,6.03034301 C3.51188588,5.95778364 3.42149716,5.87598945 3.32236115,5.79683377 L3.30778233,5.78496042 C3.27279315,5.73746702 3.23197244,5.6939314 3.19698326,5.6530343 C3.13429431,5.56728232 3.09493148,5.47361478 3.04098983,5.38918206 L3.03224253,5.37335092 C3.02349524,5.32717678 3.01183218,5.28100264 3.00745853,5.23350923 C2.97781984,4.89818188 3.03678746,4.56128568 3.17948867,4.25065963 C3.25573301,4.07505255 3.35095758,3.90668917 3.46377576,3.74802111 C3.52792259,3.65831135 3.59790095,3.57255937 3.66933719,3.48416887 C3.68828966,3.46174142 3.7101579,3.43931398 3.73056825,3.41688654 C3.75097861,3.3944591 3.82387273,3.32849604 3.8267885,3.32585752 C3.98831161,3.18413036 4.15972229,3.05193241 4.33996314,2.93007916 C4.37495232,2.90501319 4.50761963,2.82453826 4.55572975,2.79815303 L4.67090247,2.73614776 L4.88812696,2.63060686 C4.98872085,2.58443272 5.08931475,2.5408971 5.1928244,2.49868074 C5.235103,2.48153034 5.53688467,2.37598945 5.4844009,2.39050132 C5.73953034,2.31266491 5.99757554,2.24274406 6.25853651,2.18601583 C6.32268334,2.17150396 6.38537229,2.15831135 6.44951912,2.14643799 L6.47284524,2.14643799 C6.63758596,2.12137203 6.8008688,2.09630607 6.96706741,2.07651715 C7.10265048,2.05936675 7.23969144,2.04617414 7.37673239,2.03430079 L7.50356817,2.0237467 L7.71933478,2.00791557 C8.05270391,1.99736148 8.38607305,1.99736148 8.71944218,2.00791557 L8.95416126,2.01846966 L9.01393444,2.01846966 C9.21074858,2.03430079 9.4090206,2.05145119 9.60583474,2.07387863 C11.1662659,2.25877436 12.6886811,2.64807381 14.1252705,3.22955145 C14.416847,3.34828496 14.7084235,3.47317502 15,3.60422164 C14.8658748,3.76649077 14.7259181,3.92612137 14.5801298,4.08047493 C14.2177856,4.46130493 13.8197618,4.81309654 13.3904977,5.13192612 Z"/>
</svg>
