<?xml version="1.0" encoding="utf-8"?>
<!-- Generator: Adobe Illustrator 22.1.0, SVG Export Plug-In . SVG Version: 6.00 Build 0)  -->
<svg version="1.1" id="Layer_1" xmlns="http://www.w3.org/2000/svg" xmlns:xlink="http://www.w3.org/1999/xlink" x="0px" y="0px"
	 viewBox="0 0 10 9" style="enable-background:new 0 0 10 9;" xml:space="preserve">
<style type="text/css">
	.st0{fill:#FFFFFF;}
</style>
<path class="st0" d="M9.2,6.9H6.5C6.2,6.9,5.9,7,5.6,7.1V2.3C5.6,1.5,6.1,1,6.9,1h2.2L9.2,6.9L9.2,6.9z M4.6,7.1
	C4.3,6.9,4,6.9,3.7,6.9H1V1h2.2C4,1,4.6,1.5,4.6,2.3V7.1z M9.6,0H6.9C6.2,0,5.5,0.4,5.1,0.9C4.7,0.4,4,0,3.3,0H0.6
	C0.3,0,0.2,0.2,0.2,0.4v6.8c0,0.3,0.2,0.4,0.4,0.4h3.1c0.5,0,0.9,0.4,0.9,0.9C4.6,8.8,4.8,9,5.1,9s0.4-0.2,0.4-0.4
	c0-0.5,0.4-0.9,0.9-0.9h3.1c0.3,0,0.4-0.2,0.4-0.4V0.4C10,0.2,9.8,0,9.6,0z"/>
</svg>
