<?xml version="1.0" encoding="utf-8"?>
<!-- Generator: Adobe Illustrator 22.1.0, SVG Export Plug-In . SVG Version: 6.00 Build 0)  -->
<svg version="1.1" id="Layer_1" xmlns="http://www.w3.org/2000/svg" xmlns:xlink="http://www.w3.org/1999/xlink" x="0px" y="0px"
	 viewBox="0 0 9 9" style="enable-background:new 0 0 9 9;" xml:space="preserve">
<style type="text/css">
	.st0{fill:#FFFFFF;}
</style>
<path class="st0" d="M4.1,6.6C4,6.9,3.9,7.2,3.8,7.4C3.7,7.7,3.6,7.9,3.5,8.1C3.3,8.2,3.1,8.4,2.9,8.6C2.6,8.7,2.4,8.8,2.2,8.8
	C2,8.9,1.8,8.9,1.6,8.9c-0.3,0-0.6-0.1-0.9-0.3C0.4,8.5,0.2,8.2,0,7.8l0.9-0.5C1,7.7,1.2,7.9,1.4,8.1c0.2,0.2,0.3,0.3,0.5,0.3
	c0.1,0,0.2,0,0.3-0.1c0.1,0,0.2-0.1,0.3-0.2c0.1-0.1,0.2-0.3,0.2-0.5S2.9,7,3,6.5l0.8-3.9c0.1-0.4,0.2-0.7,0.3-1
	C4.2,1.3,4.3,1,4.5,0.9l0-0.1c-0.6,0-1.1,0-1.5,0.1S2.3,1.1,2.1,1.3S1.8,1.6,1.8,1.9c0,0.2,0.1,0.5,0.2,0.8L1,3.1
	C0.9,3,0.9,2.8,0.8,2.7c0-0.1-0.1-0.3-0.1-0.4c0-0.2,0.1-0.4,0.2-0.6C1.1,1.5,1.3,1.2,1.6,1s0.6-0.4,1-0.6c0.3-0.1,0.7-0.2,1.1-0.3
	C4,0.1,4.4,0.1,5,0.1h0.6c0.9,0,1.6,0.1,2.1,0.3s0.8,0.4,1.1,0.7C8.9,1.4,9,1.8,9,2.2c0,0.6-0.2,1.1-0.5,1.6
	C8.1,4.3,7.7,4.6,7.1,4.9C6.5,5.2,5.7,5.3,4.9,5.3c-0.2,0-0.3,0-0.5,0L4.1,6.6z M4.5,4.4c0.4,0.1,0.8,0.1,1.1,0.1
	c0.5,0,0.9-0.1,1.3-0.3c0.3-0.2,0.6-0.4,0.7-0.8c0.1-0.3,0.2-0.7,0.2-1.1c0-0.6-0.2-1-0.5-1.2C6.9,0.9,6.3,0.8,5.5,0.8H5.3L4.5,4.4z
	"/>
</svg>
