<?xml version="1.0" encoding="UTF-8"?>
<svg id="svg28" xmlns="http://www.w3.org/2000/svg" viewBox="0 0 1600 1600">
  <defs>
    <style>
      .cls-1 {
        fill: #f1ecdf;
      }

      .cls-2 {
        fill: #dbd5ca;
      }

      .cls-3 {
        stroke-width: 1.24px;
      }

      .cls-3, .cls-4, .cls-5, .cls-6 {
        fill: none;
        stroke: #493d36;
        stroke-miterlimit: 10;
      }

      .cls-4 {
        stroke-width: 1.99px;
      }

      .cls-5 {
        stroke-width: 2.06px;
      }

      .cls-6 {
        stroke-width: 1.94px;
      }
    </style>
  </defs>
  <g id="g2077">
    <path id="path4339" class="cls-1" d="M843.2,853.57l-78.07,18.8s15.26-12.13-3.53-59.84c-15.26-34.57-12.53-64.89-6.43-69.95,8.35-2.22,74.86-18.19,74.86-18.19,0,0-4.1,32.11,8.51,65.9,7.8,12.77,19.44,47.91,4.66,63.28Z"/>
    <path id="path3175" class="cls-2" d="M770.43,850.53l-14.62,3.64s-5.3,21.43,8.84,18.4c2.57-3.84,7.87-13.34,5.78-22.04h0Z"/>
    <path id="path4336" class="cls-2" d="M758.54,741.98s73.58-19.41,74.86-19,7.87,1.42,5.94,21.23c-77.59,18.6-78.07,18.8-78.07,18.8,0,0,9.96-12.33-2.73-21.02h0Z"/>
    <path id="path18" class="cls-3" d="M770.94,850.29l-15.11,3.71s-4.91,22.02,9.07,18.6c.66-.16,6.74-9.37,6.08-21.48-.02-.42-.05-.84-.08-1.26-.86-11.91-4.87-26.94-11.16-41.78-11-25.95-11.8-59.38-5.1-64.73,1.24-.99,3.42-1.7,5.1-.48,10.75,7.79,1.96,20.1,1.96,20.1l77.56-18.87s2.59-20.32-5.97-20.51c-8.36-.18-76.57,18.75-76.57,18.75"/>
    <path id="path20" class="cls-3" d="M764.91,872.61l77.29-18.89s9.22-3.93,7.83-27.18c-1.28-21.4-7.2-26.24-11.84-37.73-3.81-9.44-8.63-34.08-8.3-42.42"/>
    <path id="path24" class="cls-6" d="M785.01,834.91c8.39-1.77,42.92-9.84,51.34-11.63"/>
    <path id="path22" class="cls-5" d="M778.24,814.45l50.22-12.68"/>
    <path id="path26" class="cls-5" d="M770.19,792.17l50.22-12.68"/>
    <path id="path26-7" class="cls-5" d="M773.86,803.22l50.22-12.68"/>
    <path id="path26-9" class="cls-4" d="M781.55,824.23l50.96-11.63"/>
    <path id="path26-7-2" class="cls-5" d="M768.03,782.17l22.52-5.56"/>
  </g>
</svg>