<?xml version="1.0" encoding="UTF-8"?>
<svg id="svg28" xmlns="http://www.w3.org/2000/svg" viewBox="0 0 100 150">
  <defs>
    <style>
      .cls-1, .cls-2, .cls-3, .cls-4, .cls-5 {
        fill: none;
      }

      .cls-2 {
        stroke-width: 1.24px;
      }

      .cls-2, .cls-3, .cls-4, .cls-5 {
        stroke: #493d36;
        stroke-miterlimit: 10;
      }

      .cls-3 {
        stroke-width: 1.99px;
      }

      .cls-4 {
        stroke-width: 2.06px;
      }

      .cls-5 {
        stroke-width: 1.94px;
      }
    </style>
  </defs>
  <g id="g2077">
    <path id="path4339" class="cls-1" d="M92.89,130.6L14.82,149.4s15.26-12.13-3.53-59.84C-3.98,54.99-1.24,24.67,4.86,19.62,13.21,17.39,79.72,1.42,79.72,1.42c0,0-4.1,32.11,8.51,65.9,7.8,12.77,19.44,47.91,4.66,63.28Z"/>
    <path id="path3175" class="cls-1" d="M20.12,127.57l-14.62,3.64s-5.3,21.43,8.84,18.4c2.57-3.84,7.87-13.34,5.78-22.04h0Z"/>
    <path id="path4336" class="cls-1" d="M8.23,19.01S81.81-.4,83.09,0s7.87,1.42,5.94,21.23C11.45,39.83,10.96,40.03,10.96,40.03c0,0,9.96-12.33-2.73-21.02h0Z"/>
    <path id="path18" class="cls-2" d="M20.63,127.32l-15.11,3.71s-4.91,22.02,9.07,18.6c.66-.16,6.74-9.37,6.08-21.48-.02-.42-.05-.84-.08-1.26-.86-11.91-4.87-26.94-11.16-41.78C-1.56,59.16-2.36,25.74,4.34,20.39c1.24-.99,3.42-1.7,5.1-.48,10.75,7.79,1.96,20.1,1.96,20.1L88.96,21.14S91.55,.82,82.99,.63C74.62,.45,6.41,19.38,6.41,19.38"/>
    <path id="path20" class="cls-2" d="M14.6,149.64l77.29-18.89s9.22-3.93,7.83-27.18c-1.28-21.4-7.2-26.24-11.84-37.73-3.81-9.44-8.63-34.08-8.3-42.42"/>
    <path id="path24" class="cls-5" d="M34.7,111.94c8.39-1.77,42.92-9.84,51.34-11.63"/>
    <path id="path22" class="cls-4" d="M27.94,91.48l50.22-12.68"/>
    <path id="path26" class="cls-4" d="M19.88,69.2l50.22-12.68"/>
    <path id="path26-7" class="cls-4" d="M23.56,80.25l50.22-12.68"/>
    <path id="path26-9" class="cls-3" d="M31.24,101.27l50.96-11.63"/>
    <path id="path26-7-2" class="cls-4" d="M17.73,59.2l22.52-5.56"/>
  </g>
</svg>