<svg xmlns="http://www.w3.org/2000/svg" viewBox="0 0 342.97 400">
  <defs>
    <style>
      .cls-1 {
      fill: #fff;
      }

      .cls-2 {
      stroke-width: 4.71px;
      }

      .cls-2, .cls-3 {
      fill: none;
      stroke: #fff;
      stroke-miterlimit: 10;
      }

      .cls-3 {
      stroke-width: 4.66px;
      }
    </style>
  </defs>
  <path class="cls-1" d="m338.3,124.37v270.97H4.66V124.37h333.64m4.66-4.66H0v280.3h342.97V119.7h0Z"/>
  <polyline class="cls-2" points="37.19 122.14 171.48 8.14 309.91 122.14"/>
  <path class="cls-3" d="m340.97,259.85c-84.71,11.71-151.58,71.62-197.03,60.6C56.5,299.26,2,310.47,2,310.47"/>
  <path class="cls-1" d="m90.9,228.11c-7.07,0-17.25-1.81-25.58-10.44-8.75-9.07-11.45-22.53-7.04-35.14,4.38-12.5,14.78-21.27,27.17-22.89,1.4-.18,2.85-.28,4.31-.28,7.95,0,15.06,2.71,19.7,5.09-3.88.76-8.84,2.3-13.54,5.15-9.07,5.48-14.05,13.87-14.39,24.26-.69,20.97,16.53,28.56,25.87,31.14-3.7,1.51-9.58,3.11-16.49,3.11h0Z"/>
  <path class="cls-1" d="m89.75,161.69h0c4.62,0,8.97.99,12.66,2.27-2.51.9-5.14,2.08-7.71,3.64-9.78,5.91-15.14,14.97-15.51,26.18-.42,12.8,5.42,22.91,16.88,29.24,1.24.68,2.48,1.29,3.7,1.82-2.66.56-5.68.94-8.87.94-9.62,0-17.67-3.27-23.9-9.73-8.14-8.43-10.64-20.98-6.52-32.75,4.08-11.67,13.76-19.85,25.27-21.35,1.3-.17,2.65-.26,4-.26m0-4.66c-1.51,0-3.05.09-4.61.3-28.79,3.76-41.66,41.07-21.5,61.96,8.21,8.5,18.3,11.16,27.25,11.16,11.89,0,21.77-4.68,22.56-6.55,0,0-30.49-3.23-29.61-29.96.74-22.53,24.23-27.79,31.19-27.79.61,0,1.08.04,1.41.11.08.04.14.07.16.07.52,0-11.72-9.29-26.86-9.29h0Z"/>
  <circle class="cls-1" cx="171.48" cy="8.61" r="8.61"/>
</svg>
