<?xml version="1.0" encoding="UTF-8"?>
<svg xmlns="http://www.w3.org/2000/svg" viewBox="0 0 150 150">
  <defs>
    <style>
      .cls-1 {
        fill: #fff;
      }

      .cls-2, .cls-3 {
        fill: #3c2e28;
      }

      .cls-3 {
        stroke-width: 1.57px;
      }

      .cls-3, .cls-4, .cls-5 {
        stroke: #3c2e28;
        stroke-miterlimit: 13.33;
      }

      .cls-4 {
        stroke-width: 1px;
      }

      .cls-4, .cls-5 {
        fill: none;
      }

      .cls-5 {
        stroke-width: 1.72px;
      }
    </style>
  </defs>
  <g id="Layer_2" data-name="Layer 2">
    <rect class="cls-1" x="11.92" y="45.39" width="126.16" height="103.11"/>
  </g>
  <g id="Layer_3" data-name="Layer 3">
    <path class="cls-2" d="M138.08,96.95c-5.48,1.1-14.1,2.33-23.76,6.32-21.12,8.75-27.91,15.32-42.49,16.47-14.99,1.18-16.01-4.69-38.55-5.11-7.35-.14-21.37,.95-21.37,.95v32.93h126.16c0-17.18,0-34.37,0-51.55Z"/>
  </g>
  <g id="Layer_1" data-name="Layer 1">
    <path id="path144" class="cls-5" d="M11.92,45.39h126.16v103.11H11.92V45.39Z"/>
    <path id="path148" class="cls-5" d="M25.6,45.39L75,4.35l50.92,41.04"/>
    <path id="path160" class="cls-5" d="M138.08,96.95c-31.16,4.31-56.49,26.35-73.21,22.29-32.16-7.8-52.95-3.67-52.95-3.67"/>
    <path id="path172" class="cls-2" d="M78.17,4.67c0,1.75-1.42,3.17-3.17,3.17s-3.17-1.42-3.17-3.17,1.42-3.17,3.17-3.17,3.17,1.42,3.17,3.17"/>
    <path id="path176" class="cls-4" d="M78.17,4.67c0,1.75-1.42,3.17-3.17,3.17s-3.17-1.42-3.17-3.17,1.42-3.17,3.17-3.17,3.17,1.42,3.17,3.17Z"/>
    <path class="cls-3" d="M41.73,72.75c.04,8.12,5.98,10.81,8.73,11.62,.45,.13,.49,.77,.05,.95-1.61,.68-3.37,1.05-5.24,1.05-6.69,0-12.54-4.99-13.49-11.61-1.21-8.42,5.29-15.64,13.48-15.64,2.12,0,4.1,.47,5.88,1.33,.23,.11,.19,.45-.06,.5-2.34,.56-9.4,2.98-9.35,11.79Z"/>
  </g>
</svg>