<?xml version="1.0" encoding="utf-8"?>
<!-- Generator: Adobe Illustrator 22.1.0, SVG Export Plug-In . SVG Version: 6.00 Build 0)  -->
<svg version="1.1" id="Layer_1" xmlns="http://www.w3.org/2000/svg" xmlns:xlink="http://www.w3.org/1999/xlink" x="0px" y="0px"
	 viewBox="0 0 200 200" style="enable-background:new 0 0 200 200;" xml:space="preserve">
<style type="text/css">
	.st0{fill:#ECE9E2;}
	.st1{fill:url(#SVGID_1_);stroke:#4C3D0F;stroke-width:1.79;stroke-miterlimit:10;stroke-opacity:0.15;}
	.st2{fill:url(#SVGID_2_);}
	.st3{fill:#282828;}
	.st4{fill:none;stroke:#000000;stroke-width:16;stroke-miterlimit:10;}
</style>
<rect x="972.9" y="-175.2" class="st0" width="718.5" height="663"/>
<rect x="671.6" y="555.6" class="st0" width="1321" height="485"/>
<title>Asset 14</title>
<linearGradient id="SVGID_1_" gradientUnits="userSpaceOnUse" x1="933.7133" y1="1833.6832" x2="755.991" y2="1655.9609" gradientTransform="matrix(1 0 0 -1 0 2561.2012)">
	<stop  offset="0" style="stop-color:#D4AF24"/>
	<stop  offset="1" style="stop-color:#997E19"/>
</linearGradient>
<path class="st1" d="M950.3,756.1c-0.7-3-1.6-5.9-2.7-8.7c-1.1-2.8-2.5-5.6-4.1-8.2c-3.2-5.2-7.3-9.8-12.2-13.5
	c-2.4-1.8-5-3.5-7.7-4.8c-2.7-1.4-5.5-2.5-8.4-3.3c-1.4-0.4-2.9-0.8-4.4-1.1c-1.5-0.3-3-0.5-4.4-0.7c-2.9-0.4-5.9-0.6-8.8-0.6
	c-5.9-0.1-11.8,0.5-17.6,1.8c-5.7,1.3-11.3,3.3-16.6,5.9c-5.3,2.6-10.3,5.7-14.9,9.2c-9.3,7.1-17.2,15.8-23.6,25.6
	c-2,3.1-3.8,6.4-5.4,9.8c-1.4-0.3-2.9-0.4-4.4-0.4c-6,0-11.8,1.6-17,4.7c-2.5,1.5-4.9,3.3-7.1,5.3c-2.1,2-4.1,4.2-5.9,6.5
	c-3.5,4.7-6.4,9.8-8.5,15.2c-2.2,5.4-3.8,11-4.9,16.7c-1.1,5.7-1.7,11.5-1.8,17.3c-0.1,5.8,0.4,11.6,1.4,17.3
	c0.3,1.7,0.7,3.5,1.1,5.2l-1.3,0.2c-5.7,1-11.3,2.2-16.9,3.8c-2.8,0.8-5.6,1.7-8.3,2.7c-2.7,1-5.4,2.2-8,3.5
	c-1.3,0.7-2.6,1.5-3.8,2.3c-1.3,0.9-2.6,1.9-3.6,3.1c-0.6,0.7-1.1,1.4-1.4,2.2c-0.4,0.9-0.6,1.8-0.6,2.8v0.4c0,0.1,0,0.3,0.1,0.4
	c0.1,0.3,0.1,0.6,0.3,0.9c0.2,0.5,0.5,1,0.9,1.4c0.6,0.6,1.3,1.2,2.1,1.6c1.4,0.8,2.8,1.4,4.3,1.8c1.4,0.4,2.9,0.8,4.4,1
	c2.9,0.5,5.8,0.9,8.8,1c5.8,0.3,11.7,0,17.5-0.7c5.8-0.7,11.5-1.9,17.1-3.5l0.6-0.2c0.4,0.5,0.8,1,1.2,1.4c2,2.1,4.2,4.1,6.6,5.8
	c2.4,1.7,5,3.2,7.6,4.5c5.4,2.4,11.2,3.9,17.1,4.3c3,0.2,6,0.1,9-0.4c3-0.5,6-1.4,8.7-2.8c2.8-1.4,5.3-3.4,7.3-5.8
	c1-1.2,1.9-2.6,2.6-4c0.7-1.5,1.2-3,1.5-4.6c0.6-3.3,0.2-6.6-1.1-9.6c-1.3-2.9-3.2-5.5-5.7-7.6c-2.3-2-5-3.6-7.8-4.8
	c-1.4-0.6-2.8-1.1-4.2-1.6c0.4-0.4,0.8-0.8,1.2-1.2c4-4.2,7.7-8.8,10.8-13.7c1.6-2.4,3.1-4.9,4.4-7.5c1.4-2.5,2.7-5.1,4-7.7
	c2.6-5.2,4.9-10.4,7.1-15.8c2.2-5.3,4.4-10.6,6.4-16l0,0c1.4-3.7,3.3-7.2,5.6-10.4c2-2.8,4.2-5.5,6.5-8.1c3.8-4.3,7.9-8.3,12-12.2
	l6.3-5.9c2.1-2,4.2-4,6.1-6.1c1-1.1,1.9-2.2,2.8-3.4c0.9-1.2,1.7-2.6,2.1-4.1c0.2-0.8,0.3-1.7,0.1-2.6c-0.2-0.9-0.6-1.7-1.2-2.3
	c-0.6-0.6-1.3-1.1-2.1-1.4c-0.8-0.3-1.6-0.4-2.5-0.3c-1.6,0.1-3.1,0.6-4.5,1.3c-1.3,0.7-2.6,1.5-3.8,2.4c-2.3,1.8-4.4,3.9-6.3,6.1
	c-3.8,4.4-7.1,9.2-9.9,14.3c-1.4,2.5-2.7,5.1-3.9,7.7c-0.6,1.3-1.2,2.6-1.8,3.9c-0.6,1.3-1.2,2.6-1.7,4
	c-4.5,10.6-8.5,21.3-12.9,31.9c-2.2,5.3-4.5,10.5-7,15.6c-1.3,2.6-2.5,5.1-3.9,7.6s-2.8,4.9-4.3,7.3c-3.7,5.6-8.1,10.8-12.9,15.5
	l-1-0.2c-5.7-1.2-11.6-1.8-17.4-1.7c-2.9,0-5.8,0.1-8.7,0.3c-2.9,0.2-5.8,0.4-8.6,0.7c-2.9,0.3-5.7,0.6-8.6,1.1
	c-1.7,0.2-3.4,0.5-5.1,0.8c-0.4-1.7-0.8-3.5-1.1-5.2c-1-5.6-1.4-11.3-1.3-16.9c0.1-11.4,2.4-22.6,6.7-33.1
	c2.1-5.2,4.9-10.2,8.3-14.7c1.7-2.2,3.6-4.3,5.6-6.2c2-1.9,4.3-3.6,6.7-5c4.8-2.8,10.3-4.3,15.8-4.3c1.1,0,2.2,0.1,3.4,0.2
	c-0.5,1.2-1,2.4-1.4,3.6c-1,2.8-1.8,5.6-2.3,8.5c-0.3,1.5-0.4,3-0.4,4.5c0,1.6,0.2,3.1,0.6,4.6c0.4,1.6,1.4,3.1,2.7,4.2
	c0.7,0.5,1.4,0.9,2.3,1.2c0.8,0.2,1.6,0.4,2.4,0.4c1.6,0.1,3.3-0.2,4.8-0.9c1.5-0.7,2.7-1.8,3.6-3.2c1.8-2.6,2.7-5.7,2.6-8.8
	c0-3.1-0.8-6.1-2.4-8.8c-1.6-2.7-4-4.8-6.8-6.1c-0.6-0.3-1.2-0.5-1.8-0.7c1.6-3.1,3.3-6.1,5.2-8.9c3.1-4.7,6.7-9.1,10.5-13.2
	c3.9-4.1,8.1-7.9,12.6-11.2c9-6.7,19.3-11.5,30.3-13.8c5.5-1.1,11-1.6,16.6-1.4c2.8,0.1,5.6,0.4,8.3,0.8c1.4,0.2,2.7,0.5,4,0.8
	s2.7,0.7,4,1.1c2.6,0.9,5.1,2,7.4,3.3c2.4,1.3,4.6,2.9,6.7,4.6c4.1,3.5,7.6,7.7,10.2,12.3c1.3,2.3,2.5,4.8,3.4,7.3
	c1,2.5,1.7,5.1,2.3,7.8c1.1,5.3,1.6,10.8,1.4,16.2c-0.5,11.1-3.1,22-7.8,32.2c-2.3,5.1-5.2,9.8-8.8,14.2c-1.8,2.1-3.7,4.2-5.7,6
	c-2,1.9-4.3,3.5-6.6,5c-4.7,3-9.9,5-15.4,5.8c-1.4,0.2-2.7,0.3-4.1,0.3c-1.4,0-2.7-0.1-4.1-0.2c-2.7-0.3-5.3-1.2-7.8-2.4
	c-2.4-1.2-4.5-3-6.2-5.1c-1.6-2.2-2.7-4.7-3.2-7.4c-0.2-1.4-0.4-2.7-0.4-4.1c0-1.4,0-2.8,0.2-4.1c0.3-2.7,1.3-5.3,2.9-7.5
	c0.8-1.1,1.7-2,2.8-2.8c1.1-0.8,2.3-1.3,3.5-1.7c2.6-0.8,5.3-0.7,7.8,0.1c1.2,0.4,2.4,1.1,3.4,1.9c1,0.8,1.7,1.9,2.1,3.2
	c0.4,1.3,0.4,2.7,0.2,4c-0.3,1.4-0.8,2.7-1.5,3.9c0,0.1,0,0.1,0,0.2c0.1,0,0.1,0,0.2,0l0,0c0.9-1.1,1.6-2.4,2.1-3.8
	c0.5-1.5,0.6-3,0.3-4.5c-0.4-1.5-1.1-3-2.3-4.1c-1.1-1.1-2.4-1.9-3.9-2.5c-2.9-1.1-6.1-1.2-9.1-0.4c-3,0.9-5.6,2.7-7.4,5.3
	c-1.7,2.5-2.8,5.4-3.1,8.5c-0.2,1.5-0.3,3-0.2,4.4c0,1.5,0.2,3,0.4,4.4c0.5,3,1.7,5.9,3.5,8.3c1.8,2.4,4.1,4.5,6.8,5.9
	c2.7,1.4,5.5,2.4,8.5,2.9c1.5,0.2,3,0.4,4.5,0.4c1.5,0,3-0.1,4.5-0.2c5.9-0.7,11.6-2.7,16.7-5.8c2.6-1.5,5-3.2,7.2-5.2
	c2.3-1.9,4.4-4,6.3-6.2c3.8-4.5,7.2-9.4,9.9-14.6c1.4-2.6,2.6-5.3,3.7-8c1.1-2.7,2.1-5.5,2.9-8.3c1.7-5.7,2.8-11.6,3.3-17.5
	C952,768.1,951.6,762,950.3,756.1z M824.3,857.8c1.9,0.6,3.8,1.3,5.6,2.2c2.4,1.1,4.7,2.6,6.7,4.4c1,0.9,1.8,1.8,2.6,2.8
	c0.8,1,1.4,2.1,1.9,3.3c1,2.3,1.3,4.8,0.9,7.2c-0.4,2.5-1.5,4.8-3.1,6.8c-1.6,2-3.7,3.7-5.9,5c-1.2,0.6-2.4,1.2-3.6,1.6
	c-1.3,0.5-2.6,0.8-3.9,1.1c-2.7,0.5-5.4,0.8-8.2,0.7c-5.6-0.1-11.1-1.3-16.2-3.5c-5.1-2.2-9.7-5.5-13.5-9.6
	c-0.2-0.2-0.3-0.4-0.5-0.6c10.1-3.2,19.7-8,28.3-14.1C818.5,862.8,821.4,860.4,824.3,857.8z M780,856.6c2.8-0.4,5.7-0.7,8.5-1
	c5.6-0.6,11.3-0.9,17-0.7c5.2,0.1,10.3,0.8,15.3,2c-2.3,2.1-4.8,4-7.3,5.8c-8.8,6.1-18.6,10.8-28.9,13.9c-2.5-3.3-4.6-6.9-6.3-10.6
	c-1.2-2.8-2.3-5.7-3.1-8.6C776.8,857,778.4,856.8,780,856.6z M776.3,866.7c1.6,3.7,3.6,7.2,6,10.4c-5.2,1.4-10.5,2.5-15.8,3.1
	c-5.6,0.7-11.2,0.9-16.9,0.6c-2.8-0.2-5.6-0.5-8.3-1c-1.4-0.3-2.7-0.6-4-1c-1.2-0.4-2.5-0.9-3.6-1.5c-0.5-0.3-0.9-0.6-1.3-1
	c-0.1-0.1-0.2-0.3-0.3-0.4c0,0,0-0.1,0-0.1c0,0,0-0.1,0-0.1v-0.2c0-1,0.4-2,1-2.8c0.7-1.1,1.6-2,2.7-2.8c1.1-0.8,2.3-1.6,3.5-2.2
	c2.5-1.3,5-2.5,7.7-3.5c2.6-1,5.3-1.9,8.1-2.7c5.5-1.5,11-2.8,16.6-3.8l1.5-0.2C773.9,860.7,775,863.8,776.3,866.7L776.3,866.7z
	 M823,771c2.4,1.1,4.4,2.9,5.8,5.2c1.4,2.3,2.1,4.9,2.1,7.6c0.1,2.7-0.7,5.3-2.2,7.5c-0.7,1-1.7,1.9-2.8,2.4
	c-1.1,0.5-2.4,0.8-3.6,0.7c-2.5,0-4.7-1.7-5.2-4.2c-0.3-1.3-0.5-2.6-0.4-3.9c0-1.4,0.2-2.7,0.4-4.1c0.5-2.7,1.3-5.4,2.3-8
	c0.5-1.3,1-2.6,1.6-3.9C821.8,770.5,822.4,770.7,823,771z"/>
<linearGradient id="SVGID_2_" gradientUnits="userSpaceOnUse" x1="1461.6328" y1="318.5135" x2="1226.6263" y2="83.507">
	<stop  offset="0" style="stop-color:#D4AF24"/>
	<stop  offset="1" style="stop-color:#CCA821"/>
</linearGradient>
<path class="st2" d="M1610.1,49.1c-1.7-7.5-3.9-14.8-6.8-21.9c-2.9-7.2-6.3-14.1-10.4-20.6c-8.1-13.1-18.5-24.6-30.8-33.9
	c-6.1-4.6-12.6-8.7-19.4-12.2c-6.8-3.4-13.9-6.3-21.2-8.4c-3.6-1.1-7.3-2-11-2.8c-3.7-0.8-7.6-1.4-11.1-1.8
	c-7.4-0.9-14.8-1.5-22.3-1.6c-14.9-0.2-29.8,1.3-44.3,4.6c-14.5,3.3-28.5,8.3-41.9,14.8c-13.3,6.5-25.9,14.3-37.6,23.2
	c-23.3,17.9-43.4,39.8-59.4,64.5c-5.1,7.9-9.7,16.2-13.7,24.7c-3.6-0.7-7.3-1-11-1c-15.1,0.1-29.9,4.1-42.9,11.7
	c-6.4,3.8-12.4,8.2-17.9,13.3c-5.4,5.1-10.4,10.6-14.8,16.5c-8.8,11.8-16,24.7-21.5,38.4c-5.5,13.6-9.7,27.7-12.4,42.1
	c-2.8,14.4-4.3,28.9-4.6,43.6c-0.3,14.6,0.9,29.3,3.4,43.7c0.8,4.4,1.7,8.7,2.8,13.1l-3.2,0.6c-14.3,2.5-28.6,5.6-42.6,9.6
	c-7,2-14,4.2-20.9,6.7c-6.9,2.5-13.7,5.5-20.2,8.9c-3.3,1.8-6.6,3.7-9.7,5.9c-3.4,2.2-6.4,4.8-9.2,7.7c-1.5,1.7-2.7,3.5-3.6,5.5
	c-1,2.2-1.5,4.7-1.4,7.1v1c0,0.4,0.1,0.7,0.2,1.1c0.1,0.8,0.4,1.6,0.7,2.3c0.6,1.3,1.4,2.5,2.3,3.5c1.6,1.6,3.4,3,5.4,4.1
	c3.5,1.9,7.2,3.4,11,4.5c3.6,1.1,7.3,2,11,2.6c7.3,1.3,14.7,2.2,22.1,2.5c14.7,0.7,29.5,0.1,44.1-1.8c14.6-1.8,29-4.8,43.1-8.8
	l1.5-0.5c1,1.2,2.1,2.4,3.2,3.5c5.1,5.4,10.6,10.3,16.6,14.6c6,4.4,12.5,8.1,19.3,11.2c13.6,6.1,28.2,9.8,43.1,10.8
	c7.6,0.6,15.2,0.3,22.7-0.9c7.6-1.2,15-3.6,21.9-7.1c7.1-3.6,13.4-8.5,18.5-14.6c2.6-3.1,4.8-6.5,6.6-10.1c1.8-3.7,3-7.6,3.7-11.7
	c1.4-8.2,0.4-16.6-2.9-24.3c-3.3-7.4-8.2-13.9-14.4-19.1c-5.9-5-12.6-9-19.7-12.1c-3.5-1.5-7-2.8-10.6-4c1-1,1.9-2,2.9-3
	c10.2-10.6,19.3-22.2,27.3-34.5c4-6.1,7.7-12.5,11.2-18.9c3.4-6.4,6.8-12.9,10.1-19.4c6.5-13,12.3-26.3,17.9-39.7
	c5.6-13.4,11-26.8,16.2-40.3l0,0c3.6-9.3,8.3-18.2,14.1-26.3c5.1-7.1,10.6-13.9,16.5-20.4c9.6-10.8,19.9-20.8,30.3-30.8l15.8-14.8
	c5.3-5,10.5-10.1,15.5-15.4c2.5-2.7,4.9-5.5,7.1-8.5c2.4-3.1,4.2-6.6,5.3-10.3c0.6-2.1,0.7-4.3,0.2-6.4c-0.5-2.2-1.6-4.2-3.2-5.8
	c-1.4-1.6-3.2-2.9-5.2-3.7c-2-0.7-4.2-1-6.3-0.8c-4,0.3-7.8,1.4-11.4,3.3c-3.4,1.7-6.6,3.8-9.5,6.1c-5.8,4.6-11.2,9.7-16,15.4
	c-9.5,11.2-17.8,23.3-24.9,36.2c-3.6,6.4-6.9,12.9-9.9,19.5c-1.6,3.3-3.1,6.6-4.5,9.9s-2.9,6.7-4.4,10.1
	c-11.4,26.6-21.5,53.7-32.5,80.3c-5.5,13.3-11.3,26.5-17.6,39.4c-3.2,6.4-6.4,12.8-9.9,19.1c-3.5,6.3-7,12.4-11,18.4
	c-9.4,14.2-20.3,27.3-32.6,39.1l-2.5-0.6c-14.5-3-29.2-4.4-44-4.2c-7.3,0-14.6,0.2-21.9,0.7c-7.3,0.5-14.5,1.1-21.8,1.9
	c-7.2,0.8-14.4,1.6-21.6,2.7c-4.3,0.6-8.6,1.3-12.9,1.9c-1.1-4.3-2.1-8.7-2.9-13.1c-2.5-14.1-3.6-28.4-3.3-42.7
	c0.4-28.6,6.1-57,16.8-83.5c5.4-13.2,12.4-25.6,20.9-37c4.3-5.6,9-10.9,14.2-15.7c5.1-4.8,10.8-9,16.9-12.6
	c12.1-7,25.9-10.8,39.9-10.8c2.8,0,5.7,0.2,8.5,0.6c-1.3,2.9-2.5,5.9-3.6,8.9c-2.6,7-4.6,14.1-5.9,21.5c-0.6,3.7-1,7.5-1,11.3
	c-0.1,3.9,0.4,7.8,1.5,11.6c1.1,4.1,3.5,7.8,6.8,10.5c1.7,1.3,3.6,2.4,5.7,3c2,0.6,4,0.9,6,1.1c4.1,0.3,8.3-0.5,12-2.3
	c3.7-1.8,6.8-4.6,9.2-7.9c4.4-6.5,6.7-14.3,6.5-22.2c0-7.8-2.1-15.4-6.1-22.1c-4.1-6.7-10-12.1-17.2-15.4c-1.5-0.7-2.9-1.3-4.5-1.8
	c3.9-7.8,8.3-15.3,13.1-22.5c7.9-11.9,16.8-23,26.6-33.4c9.7-10.4,20.4-19.8,31.8-28.3c22.7-17,48.8-28.9,76.5-34.9
	c13.8-2.8,27.8-4,41.9-3.5c7,0.2,14,0.9,20.9,2c3.5,0.5,6.8,1.2,10.1,2s6.8,1.7,10,2.8c6.5,2.2,12.8,5,18.8,8.3
	c5.9,3.3,11.6,7.2,16.8,11.6c10.4,8.8,19.1,19.3,25.8,31.1c3.4,5.9,6.2,12,8.6,18.4c2.4,6.4,4.3,12.9,5.7,19.6
	c2.8,13.4,4.1,27.2,3.6,40.9c-1.2,28-7.8,55.6-19.6,81.1c-5.8,12.8-13.2,24.8-22.1,35.7c-4.4,5.4-9.2,10.5-14.4,15.1
	c-5.2,4.7-10.7,8.9-16.6,12.6c-11.7,7.6-24.9,12.6-38.7,14.7c-3.4,0.5-6.9,0.8-10.4,0.8c-3.5,0-6.9-0.2-10.3-0.6
	c-6.8-0.9-13.5-2.9-19.6-6.1c-6.1-3.1-11.4-7.6-15.5-13c-4.1-5.5-6.9-11.8-8.1-18.6c-0.6-3.4-1-6.9-1.1-10.4
	c-0.1-3.5,0.1-7,0.5-10.4c0.8-6.8,3.3-13.3,7.2-18.9c2-2.7,4.4-5,7.1-6.9c2.7-1.9,5.7-3.3,8.9-4.3c6.4-1.9,13.3-1.9,19.7,0.2
	c3.2,1,6.1,2.7,8.6,4.8c2.5,2.1,4.4,4.9,5.4,8c1,3.3,1.1,6.7,0.4,10.1c-0.8,3.5-2.1,6.8-3.8,9.9c-0.1,0.2-0.1,0.4,0.1,0.5
	c0.2,0.1,0.4,0.1,0.5-0.1l0,0c2.3-2.9,4.2-6.2,5.4-9.7c1.3-3.7,1.5-7.6,0.8-11.4c-0.9-3.9-2.9-7.5-5.7-10.3
	c-2.8-2.8-6.2-4.9-9.8-6.3c-7.3-2.8-15.4-3.1-22.9-0.9c-7.6,2.2-14.2,6.9-18.7,13.4c-4.3,6.4-7,13.7-7.8,21.3
	c-0.5,3.7-0.7,7.5-0.6,11.2c0.1,3.7,0.4,7.5,1,11.2c1.2,7.6,4.2,14.8,8.7,21c4.6,6.2,10.4,11.3,17.2,14.9c6.7,3.6,14,6.1,21.5,7.2
	c3.7,0.6,7.5,0.9,11.3,1c3.8,0,7.5-0.1,11.2-0.6c14.9-1.8,29.3-6.8,42.2-14.6c6.5-3.8,12.6-8.1,18.3-13c5.7-4.8,11-10.1,15.9-15.7
	c9.7-11.3,18.1-23.7,25-36.9c3.5-6.6,6.6-13.3,9.4-20.2c2.8-6.9,5.3-13.9,7.4-21c4.3-14.3,7.1-29.1,8.3-44.1
	C1614.3,79.3,1613.3,64,1610.1,49.1z M1292.3,305.4c4.8,1.5,9.5,3.4,14.1,5.6c6.1,2.9,11.8,6.6,16.9,11c2.4,2.1,4.6,4.5,6.6,7.2
	c1.9,2.5,3.5,5.3,4.7,8.2c2.5,5.7,3.2,12,2.2,18.2c-1.1,6.3-3.7,12.1-7.7,17.1c-4.1,5.1-9.2,9.4-15,12.6c-2.9,1.6-6,3-9.2,4.1
	c-3.2,1.2-6.5,2.1-9.8,2.8c-6.8,1.4-13.7,2-20.5,1.7c-14.1-0.3-27.9-3.3-40.9-8.7c-12.9-5.6-24.5-13.8-34.1-24.1
	c-0.5-0.5-0.9-1-1.3-1.4c25.5-8.1,49.6-20.1,71.3-35.7C1277.6,318.1,1285.1,312,1292.3,305.4z M1180.6,302.3
	c7.1-1,14.3-1.8,21.4-2.5c14.2-1.5,28.5-2.2,42.9-1.9c13,0.3,26,2,38.6,5c-5.9,5.2-12.1,10-18.5,14.5c-22.2,15.5-46.8,27.3-72.8,35
	c-6.3-8.3-11.7-17.3-15.9-26.8c-3.1-7-5.7-14.2-7.8-21.6C1172.5,303.4,1176.5,302.8,1180.6,302.3z M1171.2,327.9
	c4.1,9.3,9.2,18,15.1,26.2c-13.1,3.6-26.5,6.2-40,7.8c-14.1,1.8-28.3,2.3-42.5,1.6c-7-0.4-14-1.2-20.9-2.5
	c-3.4-0.7-6.8-1.5-10.1-2.5c-3.1-0.9-6.2-2.1-9.1-3.7c-1.2-0.7-2.3-1.5-3.2-2.5c-0.3-0.3-0.5-0.6-0.7-1c0-0.1,0-0.2,0-0.2
	c0-0.1,0-0.2,0-0.3v-0.4c0-2.6,0.9-5.1,2.5-7.2c1.9-2.7,4.1-5.1,6.8-7c2.8-2.1,5.7-3.9,8.7-5.6c6.2-3.3,12.7-6.3,19.3-8.7
	c6.7-2.5,13.4-4.8,20.3-6.8c13.7-3.9,27.7-7,41.8-9.5l3.7-0.6C1165.2,312.9,1167.9,320.5,1171.2,327.9L1171.2,327.9z M1289.1,86.6
	c6.1,2.8,11.2,7.3,14.7,13.1c3.5,5.8,5.3,12.4,5.3,19.1c0.2,6.7-1.7,13.3-5.4,18.9c-1.8,2.6-4.3,4.7-7.1,6.1c-2.8,1.3-6,1.9-9.1,1.7
	c-6.3,0.1-11.8-4.3-13-10.5c-0.8-3.2-1.2-6.5-1.1-9.8c0.1-3.4,0.4-6.9,1.1-10.3c1.3-6.9,3.3-13.6,5.9-20.2c1.3-3.3,2.5-6.6,4.1-9.8
	C1286.1,85.3,1287.6,85.9,1289.1,86.6z"/>
<path class="st3" d="M1011.5,744.2h-13.8v-1.7c1,0,1.9-0.1,2.9-0.4c0.6-0.2,1.1-0.5,1.4-1c0.3-0.6,0.4-1.2,0.4-1.8v-21.8
	c-1.3,0-2.6,0.1-3.9,0.3c-0.8,0.1-1.6,0.4-2.3,0.9c-0.6,0.5-1.1,1.2-1.4,1.9c-0.4,1.2-0.6,2.4-0.8,3.6h-2l0.3-8.7
	c1,0,2.4,0.1,4.2,0.2c1.4,0.1,2.7,0.1,4.1,0.1h8c1.4,0,2.8,0,4.1-0.1c1.9-0.1,3.3-0.2,4.2-0.2l0.3,8.7h-2c-0.1-1.2-0.4-2.4-0.7-3.6
	c-0.3-0.8-0.7-1.4-1.4-1.9c-0.7-0.5-1.5-0.8-2.3-0.9c-1.3-0.2-2.6-0.3-3.9-0.3v21.7c0,0.6,0.1,1.2,0.4,1.8c0.3,0.5,0.8,0.9,1.4,1
	c0.9,0.3,1.9,0.4,2.9,0.4L1011.5,744.2z"/>
<path class="st3" d="M1042.1,731.7h-12.6v8c0,0.6,0.1,1.1,0.3,1.7c0.3,0.4,0.7,0.8,1.2,0.9c0.8,0.2,1.6,0.4,2.4,0.3v1.7h-12v-1.6
	c0.8,0,1.6-0.1,2.4-0.4c0.5-0.2,0.9-0.5,1.2-0.9c0.2-0.5,0.4-1.1,0.3-1.7v-17.3c0-0.6-0.1-1.2-0.3-1.7c-0.3-0.4-0.7-0.8-1.2-0.9
	c-0.8-0.2-1.6-0.4-2.4-0.3v-1.6h12v1.6c-0.8,0-1.6,0.1-2.4,0.3c-0.5,0.1-0.9,0.5-1.2,0.9c-0.2,0.5-0.4,1.1-0.3,1.7v7.4h12.6v-7.4
	c0-0.6-0.1-1.2-0.3-1.7c-0.3-0.4-0.7-0.8-1.2-0.9c-0.8-0.2-1.6-0.4-2.4-0.3v-1.6h12v1.6c-0.8,0-1.6,0.1-2.4,0.3
	c-0.5,0.1-0.9,0.5-1.2,0.9c-0.2,0.5-0.4,1.1-0.3,1.7v17.3c0,0.6,0.1,1.1,0.3,1.7c0.3,0.4,0.7,0.8,1.2,0.9c0.8,0.2,1.6,0.4,2.4,0.3
	v1.6h-12v-1.6c0.8,0,1.6-0.1,2.4-0.3c0.5-0.2,0.9-0.5,1.2-0.9c0.2-0.5,0.4-1.1,0.3-1.7L1042.1,731.7z"/>
<path class="st3" d="M1076.8,744.2h-23v-1.6c0.8,0,1.6-0.1,2.4-0.3c0.5-0.2,0.9-0.5,1.2-0.9c0.2-0.5,0.4-1.1,0.3-1.7v-17.3
	c0-0.6-0.1-1.2-0.3-1.7c-0.3-0.4-0.7-0.8-1.2-0.9c-0.8-0.2-1.6-0.4-2.4-0.3v-1.6h15.8c0.7,0,1.4,0,2.2,0s1.4-0.1,2-0.1
	c0.6,0,1.4-0.1,2.3-0.1v8.7h-1.6c-0.1-1.1-0.2-2.2-0.6-3.3c-0.2-0.8-0.7-1.5-1.3-2.1c-0.8-0.6-1.7-0.9-2.7-1.1
	c-1.5-0.2-3-0.4-4.5-0.3h-3.3c-0.1,1.2-0.1,2.2-0.2,3s0,1.4,0,1.9v5.4c1.1,0,2.2-0.1,3.3-0.2c0.7-0.1,1.3-0.3,1.9-0.7
	c0.4-0.3,0.7-0.8,0.9-1.3c0.2-0.7,0.3-1.5,0.4-2.3h1.6v10.5h-1.6c0-0.8-0.2-1.5-0.4-2.3c-0.2-0.5-0.5-1-0.9-1.3
	c-0.6-0.4-1.2-0.6-1.9-0.7c-1.1-0.2-2.2-0.2-3.3-0.2v6.4c0,0.9,0.1,2.5,0.2,4.9c1.6,0.1,2.8,0.1,3.6,0.1c1.5,0,3-0.1,4.5-0.3
	c1-0.1,1.9-0.5,2.8-1c0.8-0.6,1.4-1.3,1.8-2.2c0.6-1.3,1-2.6,1.2-3.9h1.5L1076.8,744.2z"/>
<path class="st3" d="M1005.6,800.8v10.8c0,1,0.1,2,0.6,2.9c0.5,0.8,1.2,1.3,2,1.6c1.3,0.4,2.7,0.6,4.1,0.6v2.8h-20.9v-2.8
	c1.4,0,2.8-0.2,4.1-0.6c0.9-0.3,1.6-0.8,2-1.6c0.4-0.9,0.6-1.9,0.6-2.9v-30c0.1-1-0.1-2-0.6-2.9c-0.5-0.8-1.2-1.3-2-1.6
	c-1.3-0.4-2.7-0.6-4.1-0.6v-2.8h20.8c6.7,0,11.5,1.2,14.6,3.5c3.1,2.3,4.6,5.7,4.7,10c0,2.5-0.7,4.9-2,7c-1.6,2.3-3.9,4.1-6.5,5.2
	c-3.5,1.4-7.2,2.1-11,1.9C1010,801.4,1007.8,801.2,1005.6,800.8z M1005.6,785.2V798c1.8,0.4,3.6,0.6,5.5,0.6
	c2.3,0.1,4.7-0.5,6.8-1.5c1.8-0.9,3.3-2.4,4.3-4.1c1-1.8,1.5-3.8,1.4-5.8c0-3.5-1.1-6.1-3.3-7.9c-2.2-1.8-5.6-2.7-10.4-2.7
	c-0.8,0-2.1,0.1-3.9,0.2C1005.8,780.8,1005.6,783.6,1005.6,785.2z"/>
<path class="st3" d="M1036.5,776.8h19.4v2.6c-1.3,0-2.6,0.1-3.9,0.5c-0.8,0.2-1.5,0.8-1.9,1.5c-0.4,0.9-0.6,1.8-0.5,2.7v20.7
	c-0.1,2.2,0.3,4.5,1.2,6.5c0.7,1.7,2,3.1,3.6,4c1.9,0.9,4,1.4,6.2,1.3c2,0.1,4-0.5,5.8-1.5c1.7-1.1,2.9-2.7,3.7-4.5
	c0.9-2.3,1.3-4.8,1.2-7.2v-15c0.1-2-0.1-4-0.5-5.9c-0.2-1.1-0.9-2-1.8-2.5c-1.3-0.5-2.6-0.7-4-0.7v-2.5h15.9v2.6
	c-1.1,0-2.2,0.1-3.3,0.4c-0.7,0.2-1.3,0.6-1.8,1.2c-0.5,0.8-0.9,1.7-1,2.7c-0.2,1.6-0.3,3.2-0.3,4.9v14c0,6.2-1.4,10.8-4.1,13.7
	c-2.7,2.9-6.8,4.3-12.2,4.3c-2.8,0.1-5.7-0.5-8.3-1.6c-2.3-1-4.1-2.7-5.3-4.9c-1.3-2.5-2-5.3-1.9-8.1v-21.8c0-0.9-0.1-1.9-0.5-2.7
	c-0.4-0.7-1.1-1.2-1.9-1.5c-1.2-0.4-2.6-0.6-3.9-0.5L1036.5,776.8z"/>
<path class="st3" d="M1121.7,819.4h-35.6v-2.6c1.3,0,2.6-0.2,3.9-0.5c0.8-0.2,1.5-0.8,1.9-1.5c0.4-0.8,0.6-1.8,0.5-2.7v-28
	c0-0.9-0.1-1.9-0.5-2.7c-0.4-0.7-1.1-1.2-1.9-1.5c-1.3-0.4-2.6-0.6-3.9-0.5v-2.6h19.5v2.6c-1.3,0-2.6,0.1-3.9,0.5
	c-0.8,0.2-1.5,0.8-1.9,1.5c-0.4,0.9-0.6,1.8-0.5,2.7v24.7c0,1.5,0.1,4.1,0.3,7.9c2.5,0.2,4.4,0.2,5.6,0.2c2.7,0.1,5.4-0.2,8-0.8
	c1.9-0.5,3.4-1.7,4.5-3.4c1.4-2.4,2.3-5.1,2.8-7.8h2.6L1121.7,819.4z"/>
<path class="st3" d="M1157.1,819.4h-20.8v-2.6c1.5,0,2.9-0.2,4.3-0.5c0.9-0.2,1.6-0.7,2.1-1.5c0.4-0.8,0.6-1.8,0.6-2.7v-32.8
	c-2,0-4,0.1-5.9,0.4c-1.3,0.2-2.5,0.6-3.5,1.3c-1,0.8-1.7,1.8-2.1,2.9c-0.6,1.8-1,3.6-1.1,5.4h-3l0.5-13.1c1.5,0,3.6,0.1,6.4,0.3
	c2.1,0.1,4.1,0.2,6.2,0.2h12c2.1,0,4.2,0,6.2-0.2c2.8-0.2,5-0.2,6.4-0.3l0.5,13.1h-3c-0.2-1.8-0.5-3.6-1.1-5.4
	c-0.4-1.2-1.1-2.2-2-2.9c-1.1-0.7-2.3-1.2-3.5-1.3c-2-0.3-4-0.4-5.9-0.4v32.8c0,0.9,0.2,1.9,0.6,2.7c0.5,0.7,1.2,1.3,2.1,1.5
	c1.4,0.4,2.9,0.6,4.4,0.5L1157.1,819.4z"/>
<path class="st3" d="M1208.1,819.4h-37.2v-2.6c1.3,0,2.6-0.1,3.9-0.5c0.8-0.2,1.5-0.8,1.9-1.5c0.4-0.8,0.6-1.8,0.5-2.7v-28
	c0-0.9-0.1-1.9-0.5-2.7c-0.4-0.7-1.1-1.2-1.9-1.5c-1.2-0.4-2.6-0.6-3.9-0.5v-2.6h25.6c1.2,0,2.3,0,3.5-0.1c1.2-0.1,2.3-0.1,3.2-0.2
	c1-0.1,2.2-0.1,3.7-0.2v14h-2.6c-0.1-1.8-0.4-3.6-0.9-5.4c-0.4-1.3-1.1-2.5-2.2-3.3c-1.3-0.9-2.7-1.5-4.3-1.8
	c-2.4-0.4-4.9-0.6-7.4-0.6h-5.3c-0.1,2-0.2,3.6-0.3,4.8c-0.1,1.2-0.1,2.2-0.1,3v8.7c1.8,0,3.6-0.1,5.4-0.4c1.1-0.1,2.1-0.5,3-1.1
	c0.7-0.5,1.2-1.2,1.5-2c0.3-1.2,0.5-2.4,0.6-3.7h2.6v17h-2.6c-0.1-1.2-0.3-2.5-0.6-3.7c-0.3-0.8-0.8-1.5-1.5-2.1
	c-0.9-0.6-1.9-1-3-1.1c-1.8-0.3-3.6-0.4-5.4-0.4v10.4c0,1.5,0.1,4.1,0.3,7.9c2.5,0.2,4.4,0.2,5.8,0.2c2.5,0,4.9-0.1,7.3-0.4
	c1.6-0.2,3.1-0.8,4.4-1.7c1.3-0.9,2.3-2.2,2.9-3.6c0.9-2,1.6-4.2,2-6.3h2.6L1208.1,819.4z"/>
<path class="st3" d="M1234.4,819.4h-19.4v-2.6c1.3,0,2.6-0.2,3.8-0.5c0.8-0.2,1.5-0.8,1.9-1.5c0.4-0.8,0.6-1.8,0.5-2.7v-28
	c0-0.9-0.1-1.9-0.5-2.7c-0.4-0.7-1.1-1.2-1.9-1.5c-1.2-0.4-2.5-0.6-3.8-0.5v-2.6h19.3c3.4-0.1,6.7,0.3,10,1.2c2.3,0.5,4.4,1.7,6,3.5
	c1.3,1.6,2,3.7,1.9,5.7c0,1.4-0.3,2.8-0.9,4.1c-0.6,1.3-1.5,2.4-2.6,3.2c-1.2,0.9-2.6,1.6-4.1,2.1c-1.3,0.4-2.3,0.7-3,0.8
	c-0.7,0.1-0.9,0.3-0.9,0.4s0.3,0.5,0.8,1c0.5,0.5,1,1,1.5,1.5c0.6,0.7,1.2,1.5,1.6,2.3l6.5,10.5c0.5,0.9,1.1,1.8,1.8,2.6
	c0.4,0.5,1,0.8,1.6,1c0.9,0.2,1.7,0.3,2.6,0.3v2.6l-2.7,0.2l-2.8,0.2c-0.9,0.1-1.7,0.1-2.4,0.1c-0.6,0-1.2-0.2-1.7-0.6
	c-0.8-0.7-1.4-1.5-1.9-2.5l-8-13.5c-0.7-1.4-1.7-2.7-2.9-3.7c-1.2-0.7-2.6-1-4-0.9h-2.7v13.4c0,0.9,0.1,1.9,0.6,2.7
	c0.4,0.7,1.1,1.3,1.9,1.5c1.2,0.4,2.6,0.6,3.9,0.5L1234.4,819.4z M1228,787.4v8.7h4.1c2.5,0.1,4.9-0.3,7.2-1.1c1.6-0.6,3-1.6,4-3.1
	c0.8-1.4,1.2-3.1,1.2-4.7c0-1.5-0.4-2.9-1.2-4.1c-1-1.3-2.5-2.3-4.1-2.8c-2.4-0.7-4.8-1.1-7.3-1c-1.2,0-2.4,0.1-3.6,0.2
	C1228.2,783.4,1228,786,1228,787.4L1228,787.4z"/>
<path class="st3" d="M1005.6,876v10.8c-0.1,1,0.1,2,0.6,2.9c0.5,0.8,1.2,1.3,2,1.6c1.3,0.4,2.7,0.6,4.1,0.6v2.8h-20.9v-2.8
	c1.4,0,2.8-0.2,4.1-0.6c0.9-0.3,1.6-0.8,2-1.6c0.4-0.9,0.6-1.9,0.6-2.9v-30c0.1-1-0.1-2-0.6-2.9c-0.5-0.8-1.2-1.3-2-1.6
	c-1.3-0.4-2.7-0.6-4.1-0.6V849h20.8c6.7,0,11.5,1.2,14.6,3.5s4.6,5.7,4.7,10c0,2.5-0.7,4.9-2.1,6.9c-1.6,2.3-3.9,4.1-6.5,5.2
	c-3.5,1.4-7.2,2.1-11,1.9C1009.9,876.6,1007.8,876.4,1005.6,876z M1005.6,860.4v12.8c1.8,0.4,3.6,0.6,5.5,0.6
	c2.3,0.1,4.7-0.5,6.8-1.5c1.8-0.9,3.3-2.4,4.3-4.1c1-1.8,1.5-3.8,1.4-5.8c0-3.5-1.1-6.1-3.3-7.9c-2.2-1.8-5.6-2.7-10.4-2.7
	c-0.8,0-2.1,0.1-3.9,0.2C1005.8,856,1005.6,858.8,1005.6,860.4z"/>
<path class="st3" d="M1055,894.7h-19.5v-2.6c1.3,0,2.6-0.2,3.9-0.5c0.8-0.3,1.5-0.8,1.9-1.5c0.4-0.8,0.6-1.8,0.5-2.7v-28
	c0-0.9-0.1-1.9-0.5-2.7c-0.4-0.7-1.1-1.2-1.9-1.5c-1.2-0.4-2.6-0.6-3.9-0.5v-2.6h19.3c3.4-0.1,6.7,0.3,10,1.2c2.3,0.5,4.4,1.7,6,3.5
	c1.3,1.6,2,3.7,1.9,5.7c0,1.4-0.3,2.8-0.9,4.1c-0.6,1.3-1.5,2.4-2.6,3.2c-1.2,0.9-2.6,1.6-4.1,2.1c-1.3,0.4-2.3,0.7-3,0.8
	c-0.7,0.1-0.9,0.3-0.9,0.4c0,0.2,0.3,0.5,0.8,1c0.5,0.5,1,1,1.5,1.5c0.6,0.7,1.2,1.5,1.6,2.3l6.5,10.5c0.5,0.9,1.1,1.8,1.8,2.5
	c0.4,0.5,1,0.8,1.6,1c0.9,0.2,1.7,0.3,2.6,0.3v2.6l-2.7,0.2l-2.8,0.2c-0.9,0.1-1.7,0.1-2.4,0.1c-0.6,0-1.2-0.2-1.7-0.6
	c-0.8-0.7-1.4-1.5-1.9-2.5l-8-13.5c-0.7-1.4-1.7-2.7-2.9-3.7c-1.2-0.7-2.6-1-4-0.9h-2.7v13.4c0,0.9,0.1,1.9,0.5,2.7
	c0.4,0.7,1.1,1.3,1.9,1.5c1.2,0.4,2.6,0.6,3.9,0.5V894.7z M1048.7,862.7v8.7h4.1c2.5,0.1,4.9-0.3,7.3-1.2c1.6-0.6,3-1.7,3.9-3.1
	c0.8-1.4,1.3-3,1.2-4.7c0-1.5-0.4-2.9-1.2-4.1c-1-1.3-2.5-2.3-4.1-2.8c-2.4-0.7-4.8-1.1-7.3-1c-1.2,0-2.4,0.1-3.6,0.2
	C1048.8,858.6,1048.7,861.2,1048.7,862.7L1048.7,862.7z"/>
<path class="st3" d="M1104.3,851.1c2.6,0,5.1,0.5,7.5,1.5c2.4,1,4.5,2.5,6.2,4.4c1.9,2,3.3,4.4,4.2,7.1c1,3,1.6,6.2,1.5,9.3
	c0.1,4.2-0.8,8.3-2.6,12c-4.7,9.3-16,13.1-25.3,8.4c-3.6-1.8-6.6-4.8-8.4-8.4c-1.8-3.7-2.7-7.8-2.6-12c0-3.2,0.5-6.3,1.5-9.3
	c0.9-2.6,2.4-5,4.3-7.1c1.7-1.9,3.9-3.4,6.2-4.4C1099.2,851.6,1101.8,851.1,1104.3,851.1z M1104.3,853.7c-2.3,0-4.5,0.7-6.3,2.1
	c-2,1.7-3.4,4-4.2,6.5c-1.1,3.6-1.6,7.3-1.5,11c-0.1,3.7,0.4,7.4,1.5,11c0.7,2.6,2.2,4.9,4.2,6.6c1.8,1.4,4,2.2,6.3,2.2
	c1.7,0,3.3-0.4,4.8-1.2c1.5-0.9,2.8-2.1,3.8-3.6c1.2-1.9,2-4,2.4-6.1c0.6-2.9,0.9-5.9,0.8-8.8c0-6.6-1.1-11.5-3.2-14.8
	C1111.2,855.5,1107.9,853.6,1104.3,853.7L1104.3,853.7z"/>
<path class="st3" d="M1139.4,852h20.2v2.6c-1.3,0-2.6,0.1-3.9,0.5c-0.8,0.2-1.5,0.8-1.9,1.5c-0.4,0.9-0.6,1.8-0.5,2.7v22.2
	c0.1,2.8-0.4,5.6-1.6,8.2c-0.9,2-2.5,3.6-4.5,4.5c-2.3,1-4.8,1.5-7.3,1.4c-1.9,0-3.7-0.4-5.4-1.1c-1.5-0.7-2.8-1.8-3.7-3.1
	c-0.9-1.3-1.3-2.9-1.3-4.4c-0.1-1.6,0.4-3.1,1.4-4.4c1-1.2,2.6-1.8,4.2-1.7c1.2,0,2.3,0.4,3.1,1.2c0.9,1,1.3,2.3,1.2,3.6
	c0,0.3-0.1,0.6-0.1,0.9c-1.5-0.1-2.8,1-2.9,2.5c0,0.2,0,0.4,0,0.5c0,0.9,0.3,1.8,1,2.5c0.7,0.7,1.7,1,2.7,1c4.3,0,6.4-3.1,6.4-9.3
	v-22.2c0.1-1.5-0.1-2.9-0.6-4.3c-0.4-0.9-1.1-1.6-2-2c-1.4-0.5-2.9-0.7-4.4-0.6L1139.4,852z"/>
<path class="st3" d="M1201.7,894.7h-37.2v-2.6c1.3,0,2.6-0.1,3.8-0.5c0.8-0.3,1.5-0.8,1.9-1.5c0.4-0.8,0.6-1.8,0.5-2.7v-28
	c0-0.9-0.1-1.9-0.5-2.7c-0.4-0.7-1.1-1.2-1.9-1.5c-1.2-0.4-2.5-0.6-3.8-0.5v-2.6h25.6c1.2,0,2.3,0,3.6-0.1c1.2-0.1,2.3-0.1,3.2-0.2
	c1-0.1,2.2-0.1,3.7-0.2v14h-2.6c-0.1-1.8-0.4-3.6-0.9-5.4c-0.4-1.3-1.1-2.5-2.2-3.3c-1.3-0.9-2.8-1.5-4.3-1.8
	c-2.4-0.4-4.9-0.6-7.4-0.5h-5.3c-0.1,2-0.2,3.6-0.3,4.8c-0.1,1.2-0.1,2.2-0.1,3v8.7c1.8,0,3.6-0.1,5.4-0.4c1.1-0.1,2.1-0.5,3-1.1
	c0.7-0.5,1.2-1.2,1.5-2c0.3-1.2,0.5-2.4,0.6-3.7h2.6v17h-2.6c-0.1-1.2-0.3-2.5-0.6-3.7c-0.3-0.8-0.8-1.5-1.5-2.1
	c-0.9-0.6-1.9-1-3-1.1c-1.8-0.3-3.6-0.4-5.4-0.4V884c0,1.5,0.1,4.1,0.3,7.9c2.5,0.1,4.4,0.2,5.8,0.2c2.5,0,4.9-0.1,7.3-0.4
	c1.6-0.2,3.1-0.8,4.5-1.7c1.3-0.9,2.3-2.2,2.9-3.6c0.9-2,1.6-4.2,2-6.3h2.6L1201.7,894.7z"/>
<path class="st3" d="M1245.5,885.4l2.1,2.3c-1.3,1.6-2.8,3-4.4,4.2c-1.7,1.2-3.6,2.1-5.5,2.8c-2.1,0.7-4.4,1-6.6,1
	c-3.9,0.1-7.7-0.9-11.1-2.9c-3.2-1.9-5.8-4.7-7.4-8c-1.8-3.5-2.7-7.5-2.6-11.4c0-3,0.5-6,1.5-8.8c0.9-2.6,2.4-5,4.3-7.1
	c1.9-2,4.2-3.6,6.8-4.7c2.8-1.1,5.8-1.7,8.8-1.7c2.5,0,4.9,0.1,7.4,0.4c2.1,0.3,4.4,0.6,6.6,1v13.7h-2.9c-0.1-4.3-1.1-7.5-3-9.5
	c-2.2-2.1-5.1-3.2-8.1-3c-2,0-4.1,0.4-5.9,1.3c-1.7,0.9-3.2,2.2-4.3,3.8c-1.2,1.8-2.2,3.9-2.7,6c-0.6,2.6-0.9,5.2-0.9,7.9
	c-0.1,3.5,0.6,7,2,10.2c1.1,2.7,3,5.1,5.3,6.8c2.2,1.6,4.8,2.4,7.4,2.4C1237.3,892.1,1241.7,889.9,1245.5,885.4z"/>
<path class="st3" d="M1282.8,894.7h-20.8v-2.6c1.5,0,2.9-0.2,4.3-0.5c0.9-0.2,1.6-0.8,2.1-1.5c0.4-0.8,0.6-1.8,0.6-2.7v-32.8
	c-2,0-4,0.1-5.9,0.4c-1.3,0.1-2.5,0.6-3.5,1.3c-1,0.8-1.7,1.8-2.1,2.9c-0.6,1.8-1,3.6-1.2,5.4h-3l0.5-13.1c1.5,0,3.6,0.1,6.4,0.3
	c2.1,0.1,4.1,0.2,6.2,0.2h12c2.1,0,4.2-0.1,6.2-0.2c2.8-0.1,4.9-0.2,6.4-0.3l0.5,13.1h-3c-0.2-1.8-0.5-3.6-1.1-5.4
	c-0.4-1.2-1.1-2.2-2-2.9c-1.1-0.7-2.3-1.2-3.5-1.3c-2-0.3-4-0.4-5.9-0.4v32.8c-0.1,0.9,0.1,1.9,0.6,2.7c0.5,0.7,1.2,1.3,2.1,1.5
	c1.4,0.4,2.9,0.6,4.4,0.5L1282.8,894.7z"/>
<text transform="matrix(1 0 0 1 1453.6849 833.3231)" style="font-family:'Lato-Regular'; font-size:57.302px;">CURATIONS</text>
<line class="st4" x1="0" y1="0" x2="200" y2="200"/>
<line class="st4" x1="200" y1="0" x2="0" y2="200"/>
</svg>
