<svg xmlns="http://www.w3.org/2000/svg" viewBox="0 0 516.08 418.48"><defs><style>.cls-1{fill:#d4af24;}.cls-2{opacity:0.15;}.cls-3{fill:none;stroke:#000;stroke-miterlimit:10;}</style></defs><title>ppAsset 4</title><g id="Layer_2" data-name="Layer 2"><g id="Layer_1-2" data-name="Layer 1"><path class="cls-1" d="M512.31,95.07A133.68,133.68,0,0,0,506.13,75a124.34,124.34,0,0,0-9.46-18.8,115.4,115.4,0,0,0-28.14-31.06A112.29,112.29,0,0,0,450.77,14,116.63,116.63,0,0,0,431.4,6.3c-3.33-1-6.69-1.86-10.08-2.57S414.49,2.47,411.13,2A175.68,175.68,0,0,0,390.76.52a169.93,169.93,0,0,0-40.54,4.23,181,181,0,0,0-38.29,13.52,201.15,201.15,0,0,0-34.4,21.27,234.29,234.29,0,0,0-54.33,59,205.81,205.81,0,0,0-12.6,22.58,53.89,53.89,0,0,0-10.11-.88A77.93,77.93,0,0,0,161.32,131,93.37,93.37,0,0,0,145,143.18a118.14,118.14,0,0,0-13.59,15.06,156.69,156.69,0,0,0-19.67,35.12,206.17,206.17,0,0,0-11.38,38.47,228,228,0,0,0-4.18,39.85,208.48,208.48,0,0,0,3.15,40c.71,4,1.57,8,2.55,12l-2.94.51c-13.09,2.38-26.12,5.18-39,8.79-6.43,1.82-12.82,3.81-19.12,6.12a148.29,148.29,0,0,0-18.56,8.12,84.16,84.16,0,0,0-8.83,5.4,45.32,45.32,0,0,0-8.29,7.08,20.67,20.67,0,0,0-3.3,5.06,14.84,14.84,0,0,0-1.32,6.52l.06.86a7.43,7.43,0,0,0,.12,1,8.7,8.7,0,0,0,.67,2.13,11.41,11.41,0,0,0,2.14,3.18,20.42,20.42,0,0,0,4.91,3.78,49.08,49.08,0,0,0,10,4.15,96.58,96.58,0,0,0,10.09,2.42A156.38,156.38,0,0,0,48.77,391a228.08,228.08,0,0,0,40.32-1.63,258,258,0,0,0,39.41-8.18l1.39-.42c.94,1.09,1.89,2.18,2.88,3.24A106.19,106.19,0,0,0,148,397.54,101.9,101.9,0,0,0,165.6,407.8,116,116,0,0,0,205,417.71a86.73,86.73,0,0,0,20.71-.83,67.79,67.79,0,0,0,20.06-6.49A53.91,53.91,0,0,0,262.68,397a45.53,45.53,0,0,0,6-9.31A40.75,40.75,0,0,0,272.09,377a39.24,39.24,0,0,0-2.65-22.2,47.74,47.74,0,0,0-13.17-17.44,70.82,70.82,0,0,0-18-11,98.54,98.54,0,0,0-9.7-3.62c.89-.9,1.79-1.8,2.66-2.72a216.28,216.28,0,0,0,25-31.55c3.68-5.6,7.09-11.43,10.23-17.3s6.23-11.77,9.2-17.73c5.9-11.94,11.28-24.09,16.43-36.32s10-24.55,14.83-36.89l0-.1A108.51,108.51,0,0,1,319.85,156a234.52,234.52,0,0,1,15.07-18.69c8.74-9.84,18.16-19.07,27.76-28.12l14.48-13.56c4.82-4.56,9.63-9.15,14.18-14.07a88.11,88.11,0,0,0,6.49-7.81,29.64,29.64,0,0,0,4.87-9.44,12.58,12.58,0,0,0,.19-5.9A11.38,11.38,0,0,0,400,53.17a12.3,12.3,0,0,0-5-3.27,14.84,14.84,0,0,0-5.75-.75,27,27,0,0,0-10.32,3,54,54,0,0,0-8.74,5.56A102.58,102.58,0,0,0,355.6,71.81a196.53,196.53,0,0,0-22.72,33.11c-3.24,5.84-6.29,11.8-9.09,17.84-1.45,3-2.79,6-4.16,9.08s-2.66,6.09-4,9.14c-10.41,24.44-19.59,49.23-29.7,73.58-5.08,12.16-10.34,24.23-16.14,36-2.93,5.88-5.9,11.74-9.07,17.48s-6.44,11.36-10,16.8a209.77,209.77,0,0,1-29.82,35.76c-.76-.19-1.52-.36-2.28-.53a185.81,185.81,0,0,0-40.25-3.89c-6.7,0-13.4.19-20.06.68s-13.27,1-19.88,1.7-13.22,1.51-19.8,2.44c-4,.56-7.88,1.15-11.82,1.78q-1.52-6-2.62-12a203.93,203.93,0,0,1-3-39,211.52,211.52,0,0,1,15.38-76.42,152.68,152.68,0,0,1,19.11-33.86,113.25,113.25,0,0,1,13-14.34A89.05,89.05,0,0,1,164,135.7a72.5,72.5,0,0,1,36.47-9.94,47.74,47.74,0,0,1,7.76.54q-1.77,4-3.32,8.2a110.66,110.66,0,0,0-5.42,19.63,64.33,64.33,0,0,0-.95,10.34A36.24,36.24,0,0,0,200,175.11a18.9,18.9,0,0,0,6.2,9.58,15.91,15.91,0,0,0,5.23,2.74,25.41,25.41,0,0,0,5.52,1,21.9,21.9,0,0,0,11-2.1,22.64,22.64,0,0,0,8.4-7.25,34.76,34.76,0,0,0,6-20.29,39.84,39.84,0,0,0-5.59-20.25,36,36,0,0,0-15.72-14.09,40.48,40.48,0,0,0-4.07-1.61,199.77,199.77,0,0,1,11.95-20.57,228.42,228.42,0,0,1,24.29-30.55,216.57,216.57,0,0,1,29.15-25.84c20.88-15.38,44.73-26.79,70-31.93a159.75,159.75,0,0,1,38.27-3.19,163.74,163.74,0,0,1,19.14,1.83c3.2.47,6.26,1.08,9.33,1.79s6.09,1.6,9.08,2.57a102.43,102.43,0,0,1,17.17,7.59,100.49,100.49,0,0,1,15.36,10.63,105.06,105.06,0,0,1,23.65,28.49,116.66,116.66,0,0,1,7.88,16.83,121.5,121.5,0,0,1,5.24,17.89,155.35,155.35,0,0,1,3.26,37.41c-.66,25.29-7.43,50.73-17.94,74.17a150.18,150.18,0,0,1-20.17,32.68,126.82,126.82,0,0,1-13.21,13.91,111.8,111.8,0,0,1-15.22,11.6,90.56,90.56,0,0,1-35.44,13.49,79.14,79.14,0,0,1-9.47.74,69.45,69.45,0,0,1-9.46-.58,53.71,53.71,0,0,1-17.92-5.53,42.49,42.49,0,0,1-14.23-11.88,40.14,40.14,0,0,1-7.45-17,67.48,67.48,0,0,1-1-9.51,56.18,56.18,0,0,1,.48-9.54,37.2,37.2,0,0,1,6.62-17.25,28.91,28.91,0,0,1,6.48-6.35,29.43,29.43,0,0,1,8.16-3.93,30.17,30.17,0,0,1,18,.19,23.27,23.27,0,0,1,7.87,4.4,16.36,16.36,0,0,1,4.91,7.35,18.08,18.08,0,0,1,.34,9.14,34,34,0,0,1-3.49,9,.3.3,0,0,0,.08.38.3.3,0,0,0,.43,0,30,30,0,0,0,4.94-8.83,19.6,19.6,0,0,0,.68-10.46,19,19,0,0,0-5.24-9.38,25.5,25.5,0,0,0-9-5.75,32.88,32.88,0,0,0-21-.83,31.7,31.7,0,0,0-17.14,12.23c-4.18,5.81-6.29,12.7-7.17,19.51a69,69,0,0,0-.52,10.25,77.22,77.22,0,0,0,.89,10.22,45,45,0,0,0,8,19.17A47.7,47.7,0,0,0,359.18,281a59.92,59.92,0,0,0,19.64,6.6,75.92,75.92,0,0,0,10.31.9,86.52,86.52,0,0,0,10.31-.54,98.1,98.1,0,0,0,38.61-13.35,117.35,117.35,0,0,0,16.67-11.9,135.51,135.51,0,0,0,14.56-14.39,178.74,178.74,0,0,0,22.86-33.75,191.27,191.27,0,0,0,8.57-18.5c2.53-6.29,4.81-12.7,6.77-19.23a191.47,191.47,0,0,0,7.7-40.35A143.29,143.29,0,0,0,512.31,95.07ZM221.55,329.49a98.05,98.05,0,0,1,12.92,5.11,65.8,65.8,0,0,1,15.42,10.06,42.36,42.36,0,0,1,6,6.57,36.42,36.42,0,0,1,4.35,7.5,30,30,0,0,1,2.05,16.64A34.16,34.16,0,0,1,255.25,391a46.93,46.93,0,0,1-13.7,11.47,57.44,57.44,0,0,1-8.37,3.79,60.63,60.63,0,0,1-9,2.54,79.07,79.07,0,0,1-18.79,1.55,103.86,103.86,0,0,1-37.44-8,92.47,92.47,0,0,1-31.3-22c-.4-.43-.78-.87-1.17-1.31a235.44,235.44,0,0,0,65.27-32.63A221.3,221.3,0,0,0,221.55,329.49Zm-102.16-2.81c6.52-.87,13-1.63,19.6-2.24a309.4,309.4,0,0,1,39.26-1.71,169.33,169.33,0,0,1,35.34,4.56,204.4,204.4,0,0,1-16.93,13.29,230,230,0,0,1-66.56,32,122.7,122.7,0,0,1-14.57-24.53,151.81,151.81,0,0,1-7.23-19.71C112,327.75,115.69,327.18,119.39,326.68Zm-8.57,23.48a128.73,128.73,0,0,0,13.82,24,251.48,251.48,0,0,1-36.55,7.18,224.67,224.67,0,0,1-38.87,1.43,146.54,146.54,0,0,1-19.15-2.23,83.23,83.23,0,0,1-9.19-2.23,41.38,41.38,0,0,1-8.27-3.4,12.5,12.5,0,0,1-2.93-2.22,3.39,3.39,0,0,1-.64-.9.44.44,0,0,1-.07-.22,1.09,1.09,0,0,1,0-.26l0-.38a11.33,11.33,0,0,1,2.25-6.59,27.83,27.83,0,0,1,6.18-6.4,67.33,67.33,0,0,1,8-5.09,143.54,143.54,0,0,1,17.65-8c6.09-2.33,12.31-4.36,18.59-6.2a370.16,370.16,0,0,1,38.35-8.88c1.13-.2,2.27-.38,3.4-.57A155.91,155.91,0,0,0,110.82,350.16ZM218.65,129.34a30.76,30.76,0,0,1,13.45,11.94A34.14,34.14,0,0,1,237,158.8c0,6.12-1.49,12.39-5,17.19a17.31,17.31,0,0,1-6.47,5.55,16.57,16.57,0,0,1-8.31,1.53c-3-.25-5.69-.95-7.7-2.65a13.39,13.39,0,0,1-4.23-6.91,30.81,30.81,0,0,1-1-9,58.73,58.73,0,0,1,1-9.38,104,104,0,0,1,5.39-18.48c1.16-3,2.43-6,3.78-8.94A38,38,0,0,1,218.65,129.34Z"/><g class="cls-2"><path class="cls-3" d="M512.31,95.07A133.68,133.68,0,0,0,506.13,75a124.34,124.34,0,0,0-9.46-18.8,115.4,115.4,0,0,0-28.14-31.06A112.29,112.29,0,0,0,450.77,14,116.63,116.63,0,0,0,431.4,6.3c-3.33-1-6.69-1.86-10.08-2.57S414.49,2.47,411.13,2A175.68,175.68,0,0,0,390.76.52a169.93,169.93,0,0,0-40.54,4.23,181,181,0,0,0-38.29,13.52,201.15,201.15,0,0,0-34.4,21.27,234.29,234.29,0,0,0-54.33,59,205.81,205.81,0,0,0-12.6,22.58,53.89,53.89,0,0,0-10.11-.88A77.93,77.93,0,0,0,161.32,131,93.37,93.37,0,0,0,145,143.18a118.14,118.14,0,0,0-13.59,15.06,156.69,156.69,0,0,0-19.67,35.12,206.17,206.17,0,0,0-11.38,38.47,228,228,0,0,0-4.18,39.85,208.48,208.48,0,0,0,3.15,40c.71,4,1.57,8,2.55,12l-2.94.51c-13.09,2.38-26.12,5.18-39,8.79-6.43,1.82-12.82,3.81-19.12,6.12a148.29,148.29,0,0,0-18.56,8.12,84.16,84.16,0,0,0-8.83,5.4,45.32,45.32,0,0,0-8.29,7.08,20.67,20.67,0,0,0-3.3,5.06,14.84,14.84,0,0,0-1.32,6.52l.06.86a7.43,7.43,0,0,0,.12,1,8.7,8.7,0,0,0,.67,2.13,11.41,11.41,0,0,0,2.14,3.18,20.42,20.42,0,0,0,4.91,3.78,49.08,49.08,0,0,0,10,4.15,96.58,96.58,0,0,0,10.09,2.42A156.38,156.38,0,0,0,48.77,391a228.08,228.08,0,0,0,40.32-1.63,258,258,0,0,0,39.41-8.18l1.39-.42c.94,1.09,1.89,2.18,2.88,3.24A106.19,106.19,0,0,0,148,397.54,101.9,101.9,0,0,0,165.6,407.8,116,116,0,0,0,205,417.71a86.73,86.73,0,0,0,20.71-.83,67.79,67.79,0,0,0,20.06-6.49A53.91,53.91,0,0,0,262.68,397a45.53,45.53,0,0,0,6-9.31A40.75,40.75,0,0,0,272.09,377a39.24,39.24,0,0,0-2.65-22.2,47.74,47.74,0,0,0-13.17-17.44,70.82,70.82,0,0,0-18-11,98.54,98.54,0,0,0-9.7-3.62c.89-.9,1.79-1.8,2.66-2.72a216.28,216.28,0,0,0,25-31.55c3.68-5.6,7.09-11.43,10.23-17.3s6.23-11.77,9.2-17.73c5.9-11.94,11.28-24.09,16.43-36.32s10-24.55,14.83-36.89l0-.1A108.51,108.51,0,0,1,319.85,156a234.52,234.52,0,0,1,15.07-18.69c8.74-9.84,18.16-19.07,27.76-28.12l14.48-13.56c4.82-4.56,9.63-9.15,14.18-14.07a88.11,88.11,0,0,0,6.49-7.81,29.64,29.64,0,0,0,4.87-9.44,12.58,12.58,0,0,0,.19-5.9A11.38,11.38,0,0,0,400,53.17a12.3,12.3,0,0,0-5-3.27,14.84,14.84,0,0,0-5.75-.75,27,27,0,0,0-10.32,3,54,54,0,0,0-8.74,5.56A102.58,102.58,0,0,0,355.6,71.81a196.53,196.53,0,0,0-22.72,33.11c-3.24,5.84-6.29,11.8-9.09,17.84-1.45,3-2.79,6-4.16,9.08s-2.66,6.09-4,9.14c-10.41,24.44-19.59,49.23-29.7,73.58-5.08,12.16-10.34,24.23-16.14,36-2.93,5.88-5.9,11.74-9.07,17.48s-6.44,11.36-10,16.8a209.77,209.77,0,0,1-29.82,35.76c-.76-.19-1.52-.36-2.28-.53a185.81,185.81,0,0,0-40.25-3.89c-6.7,0-13.4.19-20.06.68s-13.27,1-19.88,1.7-13.22,1.51-19.8,2.44c-4,.56-7.88,1.15-11.82,1.78q-1.52-6-2.62-12a203.93,203.93,0,0,1-3-39,211.52,211.52,0,0,1,15.38-76.42,152.68,152.68,0,0,1,19.11-33.86,113.25,113.25,0,0,1,13-14.34A89.05,89.05,0,0,1,164,135.7a72.5,72.5,0,0,1,36.47-9.94,47.74,47.74,0,0,1,7.76.54q-1.77,4-3.32,8.2a110.66,110.66,0,0,0-5.42,19.63,64.33,64.33,0,0,0-.95,10.34A36.24,36.24,0,0,0,200,175.11a18.9,18.9,0,0,0,6.2,9.58,15.91,15.91,0,0,0,5.23,2.74,25.41,25.41,0,0,0,5.52,1,21.9,21.9,0,0,0,11-2.1,22.64,22.64,0,0,0,8.4-7.25,34.76,34.76,0,0,0,6-20.29,39.84,39.84,0,0,0-5.59-20.25,36,36,0,0,0-15.72-14.09,40.48,40.48,0,0,0-4.07-1.61,199.77,199.77,0,0,1,11.95-20.57,228.42,228.42,0,0,1,24.29-30.55,216.57,216.57,0,0,1,29.15-25.84c20.88-15.38,44.73-26.79,70-31.93a159.75,159.75,0,0,1,38.27-3.19,163.74,163.74,0,0,1,19.14,1.83c3.2.47,6.26,1.08,9.33,1.79s6.09,1.6,9.08,2.57a102.43,102.43,0,0,1,17.17,7.59,100.49,100.49,0,0,1,15.36,10.63,105.06,105.06,0,0,1,23.65,28.49,116.66,116.66,0,0,1,7.88,16.83,121.5,121.5,0,0,1,5.24,17.89,155.35,155.35,0,0,1,3.26,37.41c-.66,25.29-7.43,50.73-17.94,74.17a150.18,150.18,0,0,1-20.17,32.68,126.82,126.82,0,0,1-13.21,13.91,111.8,111.8,0,0,1-15.22,11.6,90.56,90.56,0,0,1-35.44,13.49,79.14,79.14,0,0,1-9.47.74,69.45,69.45,0,0,1-9.46-.58,53.71,53.71,0,0,1-17.92-5.53,42.49,42.49,0,0,1-14.23-11.88,40.14,40.14,0,0,1-7.45-17,67.48,67.48,0,0,1-1-9.51,56.18,56.18,0,0,1,.48-9.54,37.2,37.2,0,0,1,6.62-17.25,28.91,28.91,0,0,1,6.48-6.35,29.43,29.43,0,0,1,8.16-3.93,30.17,30.17,0,0,1,18,.19,23.27,23.27,0,0,1,7.87,4.4,16.36,16.36,0,0,1,4.91,7.35,18.08,18.08,0,0,1,.34,9.14,34,34,0,0,1-3.49,9,.3.3,0,0,0,.08.38.3.3,0,0,0,.43,0,30,30,0,0,0,4.94-8.83,19.6,19.6,0,0,0,.68-10.46,19,19,0,0,0-5.24-9.38,25.5,25.5,0,0,0-9-5.75,32.88,32.88,0,0,0-21-.83,31.7,31.7,0,0,0-17.14,12.23c-4.18,5.81-6.29,12.7-7.17,19.51a69,69,0,0,0-.52,10.25,77.22,77.22,0,0,0,.89,10.22,45,45,0,0,0,8,19.17A47.7,47.7,0,0,0,359.18,281a59.92,59.92,0,0,0,19.64,6.6,75.92,75.92,0,0,0,10.31.9,86.52,86.52,0,0,0,10.31-.54,98.1,98.1,0,0,0,38.61-13.35,117.35,117.35,0,0,0,16.67-11.9,135.51,135.51,0,0,0,14.56-14.39,178.74,178.74,0,0,0,22.86-33.75,191.27,191.27,0,0,0,8.57-18.5c2.53-6.29,4.81-12.7,6.77-19.23a191.47,191.47,0,0,0,7.7-40.35A143.29,143.29,0,0,0,512.31,95.07ZM221.55,329.49a98.05,98.05,0,0,1,12.92,5.11,65.8,65.8,0,0,1,15.42,10.06,42.36,42.36,0,0,1,6,6.57,36.42,36.42,0,0,1,4.35,7.5,30,30,0,0,1,2.05,16.64A34.16,34.16,0,0,1,255.25,391a46.93,46.93,0,0,1-13.7,11.47,57.44,57.44,0,0,1-8.37,3.79,60.63,60.63,0,0,1-9,2.54,79.07,79.07,0,0,1-18.79,1.55,103.86,103.86,0,0,1-37.44-8,92.47,92.47,0,0,1-31.3-22c-.4-.43-.78-.87-1.17-1.31a235.44,235.44,0,0,0,65.27-32.63A221.3,221.3,0,0,0,221.55,329.49Zm-102.16-2.81c6.52-.87,13-1.63,19.6-2.24a309.4,309.4,0,0,1,39.26-1.71,169.33,169.33,0,0,1,35.34,4.56,204.4,204.4,0,0,1-16.93,13.29,230,230,0,0,1-66.56,32,122.7,122.7,0,0,1-14.57-24.53,151.81,151.81,0,0,1-7.23-19.71C112,327.75,115.69,327.18,119.39,326.68Zm-8.57,23.48a128.73,128.73,0,0,0,13.82,24,251.48,251.48,0,0,1-36.55,7.18,224.67,224.67,0,0,1-38.87,1.43,146.54,146.54,0,0,1-19.15-2.23,83.23,83.23,0,0,1-9.19-2.23,41.38,41.38,0,0,1-8.27-3.4,12.5,12.5,0,0,1-2.93-2.22,3.39,3.39,0,0,1-.64-.9.44.44,0,0,1-.07-.22,1.09,1.09,0,0,1,0-.26l0-.38a11.33,11.33,0,0,1,2.25-6.59,27.83,27.83,0,0,1,6.18-6.4,67.33,67.33,0,0,1,8-5.09,143.54,143.54,0,0,1,17.65-8c6.09-2.33,12.31-4.36,18.59-6.2a370.16,370.16,0,0,1,38.35-8.88c1.13-.2,2.27-.38,3.4-.57A155.91,155.91,0,0,0,110.82,350.16ZM218.65,129.34a30.76,30.76,0,0,1,13.45,11.94A34.14,34.14,0,0,1,237,158.8c0,6.12-1.49,12.39-5,17.19a17.31,17.31,0,0,1-6.47,5.55,16.57,16.57,0,0,1-8.31,1.53c-3-.25-5.69-.95-7.7-2.65a13.39,13.39,0,0,1-4.23-6.91,30.81,30.81,0,0,1-1-9,58.73,58.73,0,0,1,1-9.38,104,104,0,0,1,5.39-18.48c1.16-3,2.43-6,3.78-8.94A38,38,0,0,1,218.65,129.34Z"/></g></g></g></svg>