<svg xmlns="http://www.w3.org/2000/svg" xmlns:xlink="http://www.w3.org/1999/xlink" viewBox="0 0 184.02 149.73"><defs><style>.cls-1{fill:url(#New_Gradient_Swatch_2);}</style><linearGradient id="New_Gradient_Swatch_2" x1="169.16" y1="10.43" x2="22.68" y2="156.91" gradientUnits="userSpaceOnUse"><stop offset="0" stop-color="#d4af24"/><stop offset="1" stop-color="#997e19"/></linearGradient></defs><title>Asset 4</title><g id="Layer_2" data-name="Layer 2"><g id="Layer_1-2" data-name="Layer 1"><path class="cls-1" d="M75.71,149.73c-.85,0-1.73,0-2.62-.09a41.63,41.63,0,0,1-14.17-3.59,37.6,37.6,0,0,1-6.34-3.71,38.39,38.39,0,0,1-5.47-4.89l-.83-.92-.19.05A92.9,92.9,0,0,1,32,139.51a85.24,85.24,0,0,1-10.47.67c-1.32,0-2.64,0-3.94-.1a56.93,56.93,0,0,1-7.26-.83,35.21,35.21,0,0,1-3.63-.88,18.1,18.1,0,0,1-3.66-1.52,8.22,8.22,0,0,1-1.86-1.44,4.79,4.79,0,0,1-.85-1.27,3.42,3.42,0,0,1-.26-.87,1.91,1.91,0,0,1,0-.36l0-.36A5.73,5.73,0,0,1,.52,130a7.7,7.7,0,0,1,1.25-1.92,16.63,16.63,0,0,1,3-2.6A29.35,29.35,0,0,1,8,123.54a51.35,51.35,0,0,1,6.65-2.92c2-.75,4.28-1.46,6.83-2.19,4.15-1.16,8.69-2.19,13.9-3.13l.54-.09c-.31-1.29-.57-2.57-.79-3.8A75.86,75.86,0,0,1,34,97.06a82.55,82.55,0,0,1,1.51-14.29A74.39,74.39,0,0,1,39.59,69a56.56,56.56,0,0,1,7.06-12.62,42.73,42.73,0,0,1,4.88-5.42,33.56,33.56,0,0,1,5.91-4.4A28,28,0,0,1,71.6,42.64h.1a18.79,18.79,0,0,1,3.21.27,72.7,72.7,0,0,1,4.36-7.77A83.19,83.19,0,0,1,98.7,14,72.17,72.17,0,0,1,111,6.36a64.86,64.86,0,0,1,13.72-4.84A60.35,60.35,0,0,1,138.19,0h1a62.4,62.4,0,0,1,7.29.55c1.27.16,2.5.37,3.66.61s2.38.56,3.62.93a42.29,42.29,0,0,1,7,2.79,41.34,41.34,0,0,1,16.48,15.22,44.71,44.71,0,0,1,3.4,6.78,48.34,48.34,0,0,1,2.21,7.23,51.84,51.84,0,0,1,1,14.92,69.44,69.44,0,0,1-2.77,14.48c-.67,2.24-1.48,4.56-2.42,6.9a70,70,0,0,1-3.07,6.64,64.51,64.51,0,0,1-8.19,12.11,49.2,49.2,0,0,1-5.23,5.18,43.41,43.41,0,0,1-6,4.29,35.57,35.57,0,0,1-13.91,4.81,32.82,32.82,0,0,1-3.38.19h-.34a28.26,28.26,0,0,1-3.73-.33,21.55,21.55,0,0,1-7.13-2.41,17.41,17.41,0,0,1-5.73-5,16.56,16.56,0,0,1-2.92-7,28.06,28.06,0,0,1-.32-3.71,24.49,24.49,0,0,1,.2-3.73,15.58,15.58,0,0,1,2.63-7.17,11.83,11.83,0,0,1,6.35-4.53,12.12,12.12,0,0,1,3.44-.49,11.91,11.91,0,0,1,4.32.8A9.6,9.6,0,0,1,139,72.17a7.17,7.17,0,0,1,1.73,7.57A11,11,0,0,1,138.93,83a.59.59,0,0,1-1-.64,11.33,11.33,0,0,0,1.19-3.09,5.91,5.91,0,0,0-.1-3,5.36,5.36,0,0,0-1.61-2.42,7.66,7.66,0,0,0-2.63-1.47,9.93,9.93,0,0,0-3.14-.5,10.21,10.21,0,0,0-3,.43,9.59,9.59,0,0,0-2.77,1.34,9.69,9.69,0,0,0-2.19,2.14,12.89,12.89,0,0,0-2.27,5.94,19.47,19.47,0,0,0-.16,3.31,22,22,0,0,0,.33,3.32,13.86,13.86,0,0,0,2.55,5.86,14.73,14.73,0,0,0,4.89,4.1,18.63,18.63,0,0,0,6.21,1.93,25,25,0,0,0,3.16.2h.13a27.21,27.21,0,0,0,3.31-.25,31.86,31.86,0,0,0,12.4-4.73,39.53,39.53,0,0,0,5.34-4.09,43.91,43.91,0,0,0,4.65-4.9A52.64,52.64,0,0,0,171.38,75a69.67,69.67,0,0,0,6.35-26.24,55.29,55.29,0,0,0-1.14-13.23A42.63,42.63,0,0,0,172,23.24a36.94,36.94,0,0,0-8.28-10,34.89,34.89,0,0,0-11.4-6.41c-1.09-.36-2.16-.66-3.18-.91s-2.22-.47-3.28-.63a56.14,56.14,0,0,0-6.74-.65c-.71,0-1.44,0-2.15,0a56.81,56.81,0,0,0-11.34,1.15A63.49,63.49,0,0,0,101,17a76.55,76.55,0,0,0-10.3,9.15A80.69,80.69,0,0,0,82.07,37a68.87,68.87,0,0,0-4,6.8c.35.13.67.26,1,.41a13.25,13.25,0,0,1,5.78,5.21,14.57,14.57,0,0,1,2.05,7.47,12.81,12.81,0,0,1-2.21,7.5,8.46,8.46,0,0,1-3.17,2.74,8.12,8.12,0,0,1-3.59.81h-.55a10.11,10.11,0,0,1-2.07-.37,6.4,6.4,0,0,1-2-1.06,7.32,7.32,0,0,1-2.36-3.66,13.33,13.33,0,0,1-.51-3.93,24.14,24.14,0,0,1,.35-3.76,40.15,40.15,0,0,1,2-7.09c.28-.75.59-1.53.94-2.36a17.51,17.51,0,0,0-1.92-.11h-.14A25.18,25.18,0,0,0,58.88,49a31.84,31.84,0,0,0-5.4,4,39.88,39.88,0,0,0-4.56,5.05,54.18,54.18,0,0,0-6.73,12,74.53,74.53,0,0,0-5.45,27.06,72.83,72.83,0,0,0,1.06,13.82c.22,1.24.49,2.53.81,3.82l3.78-.56c2.43-.34,4.8-.63,7-.87,2.45-.25,4.76-.45,7.08-.6,2.09-.15,4.36-.23,7.16-.24a66.78,66.78,0,0,1,14.4,1.41l.56.13A74,74,0,0,0,89,101.54c1.34-2,2.5-4,3.55-5.94s2.22-4.22,3.22-6.22c2.26-4.6,4.25-9.26,5.73-12.81,1.6-3.86,3.17-7.83,4.68-11.66,1.89-4.78,3.84-9.73,5.89-14.56l.42-1c.32-.75.65-1.53,1-2.3l.27-.59c.39-.87.79-1.77,1.22-2.65,1-2.12,2.07-4.27,3.24-6.38a70.18,70.18,0,0,1,8.14-11.88,36.94,36.94,0,0,1,5.28-5.08,20.18,20.18,0,0,1,3.18-2,10.41,10.41,0,0,1,3.85-1.13H139a5.63,5.63,0,0,1,1.86.31,4.9,4.9,0,0,1,2,1.29A4.56,4.56,0,0,1,144,21a4.83,4.83,0,0,1-.08,2.32,11.19,11.19,0,0,1-1.8,3.53,30.92,30.92,0,0,1-2.35,2.82c-1.61,1.75-3.31,3.38-5.06,5l-5.15,4.83c-2.82,2.66-6.48,6.2-9.84,10a80.59,80.59,0,0,0-5.33,6.62,38.51,38.51,0,0,0-4.55,8.47v0c-1.92,5-3.65,9.25-5.28,13.15-2.14,5.07-4,9.19-5.86,13-1,2-2.11,4.2-3.29,6.33s-2.39,4.27-3.65,6.2a78.17,78.17,0,0,1-8.94,11.31l-.4.42c.95.33,1.87.68,2.75,1.07a25.47,25.47,0,0,1,6.52,4,17.51,17.51,0,0,1,4.8,6.4,14.53,14.53,0,0,1,1,8.18,15,15,0,0,1-1.26,3.93A17.09,17.09,0,0,1,94,142.1,19.54,19.54,0,0,1,87.83,147a24.13,24.13,0,0,1-7.27,2.36A29.05,29.05,0,0,1,75.71,149.73ZM49.3,135.58a32.44,32.44,0,0,0,10.87,7.66,36.2,36.2,0,0,0,13.12,2.81h1a26.43,26.43,0,0,0,5.57-.55,20.66,20.66,0,0,0,3.11-.88,18.79,18.79,0,0,0,2.91-1.32,16,16,0,0,0,4.73-4A11.77,11.77,0,0,0,93,134a10.27,10.27,0,0,0-.7-5.67,12.23,12.23,0,0,0-1.48-2.57,14.89,14.89,0,0,0-2.07-2.27A22.89,22.89,0,0,0,83.4,120a34.73,34.73,0,0,0-4.26-1.72,79.38,79.38,0,0,1-7.21,5.88A83.64,83.64,0,0,1,49.3,135.58ZM4,132.58s.06.09.12.15a4.3,4.3,0,0,0,.93.7,14.36,14.36,0,0,0,2.84,1.17,30.18,30.18,0,0,0,3.21.79,52.24,52.24,0,0,0,6.74.79c1.28.07,2.59.1,3.91.1a84.19,84.19,0,0,0,9.82-.6,87.65,87.65,0,0,0,12.25-2.36,46.22,46.22,0,0,1-4.55-8.08,56.72,56.72,0,0,1-2.57-7.12H36.6l-.71.12a131.11,131.11,0,0,0-13.57,3.14c-2.41.71-4.56,1.42-6.57,2.19a50.91,50.91,0,0,0-6.22,2.83,22.41,22.41,0,0,0-2.77,1.77,9.41,9.41,0,0,0-2.1,2.16,5,5,0,0,0-.61,1.26ZM39.4,117.66a52.62,52.62,0,0,0,2.39,6.44,43.3,43.3,0,0,0,4.91,8.39,80.79,80.79,0,0,0,23.2-11.22c1.79-1.26,3.56-2.63,5.27-4.09a60.33,60.33,0,0,0-11.54-1.41c-.8,0-1.63,0-2.46,0-4.13,0-8.28.34-11.43.64-2.22.21-4.56.47-7,.79C41.74,117.3,40.63,117.47,39.4,117.66ZM76.83,46.38c-.42.93-.81,1.85-1.16,2.77a37.58,37.58,0,0,0-1.9,6.5,20.6,20.6,0,0,0-.35,3.26A10.33,10.33,0,0,0,73.76,62a4.25,4.25,0,0,0,1.34,2.22h0a4.25,4.25,0,0,0,2.47.84H78a5.19,5.19,0,0,0,2.31-.51,5.67,5.67,0,0,0,2.12-1.83,9.9,9.9,0,0,0,1.68-5.84,11.79,11.79,0,0,0-1.67-6,10.43,10.43,0,0,0-4.57-4.07C77.52,46.65,77.18,46.51,76.83,46.38Z"/></g></g></svg>