<svg xmlns="http://www.w3.org/2000/svg" xmlns:xlink="http://www.w3.org/1999/xlink" viewBox="0 0 126.02 102.33"><defs><style>.cls-1{fill:url(#New_Gradient_Swatch_1);}.cls-2{opacity:0.2;}.cls-3{fill:none;stroke:#4c3d0f;stroke-miterlimit:10;}</style><linearGradient id="New_Gradient_Swatch_1" x1="115.42" y1="7.44" x2="15.93" y2="106.93" gradientUnits="userSpaceOnUse"><stop offset="0" stop-color="#d4af24"/><stop offset="1" stop-color="#806915"/></linearGradient></defs><title>ppAsset 1</title><g id="Layer_2" data-name="Layer 2"><g id="Layer_1-2" data-name="Layer 1"><path class="cls-1" d="M124.73,23.45a32.57,32.57,0,0,0-1.5-4.87,30,30,0,0,0-2.3-4.56,27.93,27.93,0,0,0-6.83-7.54,27.48,27.48,0,0,0-4.31-2.69,27.93,27.93,0,0,0-4.7-1.88c-.81-.24-1.62-.45-2.45-.63S101,1,100.17.87a43,43,0,0,0-5-.36,41.1,41.1,0,0,0-9.83,1,44.68,44.68,0,0,0-9.3,3.28A48.43,48.43,0,0,0,67.74,10,56.72,56.72,0,0,0,54.55,24.3a49.82,49.82,0,0,0-3,5.49A12.79,12.79,0,0,0,49,29.57a18.94,18.94,0,0,0-9.51,2.61,23,23,0,0,0-4,3,27.83,27.83,0,0,0-3.29,3.66,38,38,0,0,0-4.78,8.52,50.05,50.05,0,0,0-2.76,9.34,55.2,55.2,0,0,0-1,9.67,50.06,50.06,0,0,0,.77,9.7c.17,1,.38,2,.62,2.91l-.72.13c-3.17.57-6.34,1.25-9.46,2.13-1.56.44-3.11.92-4.64,1.48a36.6,36.6,0,0,0-4.5,2A19.78,19.78,0,0,0,3.64,86a11,11,0,0,0-2,1.71,5.67,5.67,0,0,0-.8,1.23A3.6,3.6,0,0,0,.5,90.48l0,.21a1.2,1.2,0,0,0,0,.24,2.1,2.1,0,0,0,.16.52,3,3,0,0,0,.52.77,5.16,5.16,0,0,0,1.19.92,11.73,11.73,0,0,0,2.44,1,21.63,21.63,0,0,0,2.44.59,39.21,39.21,0,0,0,4.92.56,55.06,55.06,0,0,0,9.78-.4,62.28,62.28,0,0,0,9.57-2l.34-.11c.22.27.45.53.69.79a26.23,26.23,0,0,0,3.7,3.28,24.93,24.93,0,0,0,4.27,2.49,28.34,28.34,0,0,0,9.57,2.41,21.21,21.21,0,0,0,5-.2A16.44,16.44,0,0,0,60,100a13.11,13.11,0,0,0,4.1-3.25,10.63,10.63,0,0,0,1.45-2.26,9.68,9.68,0,0,0,.83-2.59,9.56,9.56,0,0,0-.64-5.39,11.61,11.61,0,0,0-3.2-4.23,17.08,17.08,0,0,0-4.37-2.68,23.17,23.17,0,0,0-2.36-.88c.22-.22.44-.43.65-.66a52.73,52.73,0,0,0,6.06-7.66C63.45,69,64.28,67.62,65,66.2s1.51-2.86,2.24-4.31c1.43-2.9,2.73-5.85,4-8.81s2.44-6,3.6-9v0A26.79,26.79,0,0,1,78,38.25c1.14-1.57,2.37-3.08,3.66-4.53,2.12-2.39,4.41-4.63,6.74-6.83l3.52-3.29c1.16-1.11,2.33-2.22,3.44-3.42a22.16,22.16,0,0,0,1.57-1.89A7.2,7.2,0,0,0,98.12,16a3,3,0,0,0,0-1.43,2.76,2.76,0,0,0-.7-1.29,3,3,0,0,0-1.2-.79,3.56,3.56,0,0,0-1.4-.18,6.43,6.43,0,0,0-2.51.74,12.83,12.83,0,0,0-2.11,1.35,25,25,0,0,0-3.56,3.41,47.63,47.63,0,0,0-5.51,8Q80,28,79,30.18c-.35.72-.68,1.46-1,2.2s-.64,1.48-1,2.22c-2.52,5.93-4.75,11.95-7.2,17.86-1.24,2.95-2.51,5.88-3.92,8.74-.71,1.43-1.43,2.85-2.2,4.24s-1.57,2.76-2.44,4.08A51,51,0,0,1,54,78.2l-.55-.13a45.51,45.51,0,0,0-9.77-.94c-1.63,0-3.25,0-4.87.16s-3.22.25-4.83.42-3.2.36-4.8.59c-1,.13-1.92.28-2.87.43-.25-1-.46-1.94-.64-2.92a50.06,50.06,0,0,1-.73-9.47,51.23,51.23,0,0,1,3.73-18.55,37.16,37.16,0,0,1,4.64-8.22,27.35,27.35,0,0,1,3.15-3.48,21.94,21.94,0,0,1,3.74-2.77,17.71,17.71,0,0,1,8.86-2.42,13.1,13.1,0,0,1,1.88.13c-.29.66-.56,1.32-.81,2a27.57,27.57,0,0,0-1.31,4.77,14.92,14.92,0,0,0-.23,2.51,8.83,8.83,0,0,0,.33,2.58,4.6,4.6,0,0,0,1.51,2.33,4,4,0,0,0,1.27.66,6.41,6.41,0,0,0,1.34.24,5.37,5.37,0,0,0,2.66-.51,5.54,5.54,0,0,0,2-1.76,8.51,8.51,0,0,0,1.45-4.93A9.59,9.59,0,0,0,57.82,34,8.7,8.7,0,0,0,54,30.58a10.15,10.15,0,0,0-1-.39,48.85,48.85,0,0,1,2.9-5,55.28,55.28,0,0,1,5.9-7.41,51.9,51.9,0,0,1,7.07-6.27,43.5,43.5,0,0,1,17-7.75A39.16,39.16,0,0,1,95.16,3a40.21,40.21,0,0,1,4.65.45c.77.11,1.51.26,2.26.43s1.48.39,2.2.63a24,24,0,0,1,7.9,4.42,25.42,25.42,0,0,1,5.74,6.91,27.67,27.67,0,0,1,1.91,4.09,29.58,29.58,0,0,1,1.27,4.34,37.77,37.77,0,0,1,.8,9.08,47.49,47.49,0,0,1-4.36,18,36.56,36.56,0,0,1-4.89,7.94,32,32,0,0,1-3.21,3.37,26.76,26.76,0,0,1-3.7,2.82,21.79,21.79,0,0,1-8.6,3.27,17.68,17.68,0,0,1-2.3.18,15.91,15.91,0,0,1-2.29-.14,13.11,13.11,0,0,1-4.35-1.34,10.49,10.49,0,0,1-3.46-2.88,9.76,9.76,0,0,1-1.8-4.13,15.85,15.85,0,0,1-.24-2.31,12.74,12.74,0,0,1,.12-2.31,9,9,0,0,1,1.6-4.19A7,7,0,0,1,86,50.07a7.12,7.12,0,0,1,2-1,7.35,7.35,0,0,1,4.38,0,5.7,5.7,0,0,1,1.91,1.07A4.06,4.06,0,0,1,95.45,52a4.38,4.38,0,0,1,.08,2.22,8.15,8.15,0,0,1-.85,2.19s0,.08,0,.1a.09.09,0,0,0,.11,0A7.3,7.3,0,0,0,96,54.36a4.74,4.74,0,0,0,.16-2.54,4.59,4.59,0,0,0-1.27-2.27,6.12,6.12,0,0,0-2.19-1.4,8,8,0,0,0-5.09-.2,7.67,7.67,0,0,0-4.16,3,10.43,10.43,0,0,0-1.74,4.73,16,16,0,0,0-.12,2.49,19,19,0,0,0,.21,2.48,11,11,0,0,0,1.94,4.66,11.54,11.54,0,0,0,3.81,3.31,14.47,14.47,0,0,0,4.77,1.61,17.45,17.45,0,0,0,2.5.21,19,19,0,0,0,2.5-.13A23.65,23.65,0,0,0,106.7,67a27.57,27.57,0,0,0,4-2.89,32.31,32.31,0,0,0,3.53-3.49,42.77,42.77,0,0,0,5.55-8.19A44.47,44.47,0,0,0,121.91,48c.62-1.53,1.17-3.08,1.64-4.67a46.16,46.16,0,0,0,1.87-9.79A34.5,34.5,0,0,0,124.73,23.45ZM54.15,80.35a25.3,25.3,0,0,1,3.14,1.24A15.9,15.9,0,0,1,61,84a10.5,10.5,0,0,1,1.47,1.59,9,9,0,0,1,1,1.82,7.37,7.37,0,0,1,.5,4,8.27,8.27,0,0,1-1.72,3.79A11.2,11.2,0,0,1,59,98.06,13.78,13.78,0,0,1,57,99a14.33,14.33,0,0,1-2.18.61,19.26,19.26,0,0,1-4.56.38,25.46,25.46,0,0,1-9.08-1.93,22.52,22.52,0,0,1-7.6-5.35c-.1-.1-.19-.21-.29-.32a57.42,57.42,0,0,0,15.85-7.92A53.64,53.64,0,0,0,54.15,80.35Zm-24.79-.68c1.58-.21,3.17-.39,4.75-.54a76.23,76.23,0,0,1,9.53-.42,40.9,40.9,0,0,1,8.58,1.11,51.68,51.68,0,0,1-4.11,3.23A55.62,55.62,0,0,1,32,90.81a29.49,29.49,0,0,1-3.54-6,35.15,35.15,0,0,1-1.75-4.79C27.56,79.93,28.46,79.79,29.36,79.67Zm-2.08,5.7a30.93,30.93,0,0,0,3.35,5.82,61,61,0,0,1-8.87,1.75,54.18,54.18,0,0,1-9.44.34,34.15,34.15,0,0,1-4.64-.54,20.15,20.15,0,0,1-2.23-.54,9.84,9.84,0,0,1-2-.83,2.79,2.79,0,0,1-.71-.53,1,1,0,0,1-.16-.22l0-.06v-.15a2.78,2.78,0,0,1,.54-1.6,6.9,6.9,0,0,1,1.51-1.55A15.27,15.27,0,0,1,6.53,86a33.73,33.73,0,0,1,4.28-1.94c1.48-.57,3-1.06,4.51-1.5a89.14,89.14,0,0,1,9.31-2.16l.82-.14A37.23,37.23,0,0,0,27.28,85.37Zm26.17-53.6a7.45,7.45,0,0,1,3.26,2.9,8.24,8.24,0,0,1,1.2,4.25,7,7,0,0,1-1.21,4.17,4.14,4.14,0,0,1-1.57,1.35,4,4,0,0,1-2,.37,3.28,3.28,0,0,1-1.87-.64,3.24,3.24,0,0,1-1-1.68A7.41,7.41,0,0,1,50,40.31,14.71,14.71,0,0,1,50.21,38a25.59,25.59,0,0,1,1.31-4.49c.29-.73.59-1.45.92-2.17A8.79,8.79,0,0,1,53.45,31.77Z"/><g class="cls-2"><path class="cls-3" d="M124.73,23.45a32.57,32.57,0,0,0-1.5-4.87,30,30,0,0,0-2.3-4.56,27.93,27.93,0,0,0-6.83-7.54,27.48,27.48,0,0,0-4.31-2.69,27.93,27.93,0,0,0-4.7-1.88c-.81-.24-1.62-.45-2.45-.63S101,1,100.17.87a43,43,0,0,0-5-.36,41.1,41.1,0,0,0-9.83,1,44.68,44.68,0,0,0-9.3,3.28A48.43,48.43,0,0,0,67.74,10,56.72,56.72,0,0,0,54.55,24.3a49.82,49.82,0,0,0-3,5.49A12.79,12.79,0,0,0,49,29.57a18.94,18.94,0,0,0-9.51,2.61,23,23,0,0,0-4,3,27.83,27.83,0,0,0-3.29,3.66,38,38,0,0,0-4.78,8.52,50.05,50.05,0,0,0-2.76,9.34,55.2,55.2,0,0,0-1,9.67,50.06,50.06,0,0,0,.77,9.7c.17,1,.38,2,.62,2.91l-.72.13c-3.17.57-6.34,1.25-9.46,2.13-1.56.44-3.11.92-4.64,1.48a36.6,36.6,0,0,0-4.5,2A19.78,19.78,0,0,0,3.64,86a11,11,0,0,0-2,1.71,5.67,5.67,0,0,0-.8,1.23A3.6,3.6,0,0,0,.5,90.48l0,.21a1.2,1.2,0,0,0,0,.24,2.1,2.1,0,0,0,.16.52,3,3,0,0,0,.52.77,5.16,5.16,0,0,0,1.19.92,11.73,11.73,0,0,0,2.44,1,21.63,21.63,0,0,0,2.44.59,39.21,39.21,0,0,0,4.92.56,55.06,55.06,0,0,0,9.78-.4,62.28,62.28,0,0,0,9.57-2l.34-.11c.22.27.45.53.69.79a26.23,26.23,0,0,0,3.7,3.28,24.93,24.93,0,0,0,4.27,2.49,28.34,28.34,0,0,0,9.57,2.41,21.21,21.21,0,0,0,5-.2A16.44,16.44,0,0,0,60,100a13.11,13.11,0,0,0,4.1-3.25,10.63,10.63,0,0,0,1.45-2.26,9.68,9.68,0,0,0,.83-2.59,9.56,9.56,0,0,0-.64-5.39,11.61,11.61,0,0,0-3.2-4.23,17.08,17.08,0,0,0-4.37-2.68,23.17,23.17,0,0,0-2.36-.88c.22-.22.44-.43.65-.66a52.73,52.73,0,0,0,6.06-7.66C63.45,69,64.28,67.62,65,66.2s1.51-2.86,2.24-4.31c1.43-2.9,2.73-5.85,4-8.81s2.44-6,3.6-9v0A26.79,26.79,0,0,1,78,38.25c1.14-1.57,2.37-3.08,3.66-4.53,2.12-2.39,4.41-4.63,6.74-6.83l3.52-3.29c1.16-1.11,2.33-2.22,3.44-3.42a22.16,22.16,0,0,0,1.57-1.89A7.2,7.2,0,0,0,98.12,16a3,3,0,0,0,0-1.43,2.76,2.76,0,0,0-.7-1.29,3,3,0,0,0-1.2-.79,3.56,3.56,0,0,0-1.4-.18,6.43,6.43,0,0,0-2.51.74,12.83,12.83,0,0,0-2.11,1.35,25,25,0,0,0-3.56,3.41,47.63,47.63,0,0,0-5.51,8Q80,28,79,30.18c-.35.72-.68,1.46-1,2.2s-.64,1.48-1,2.22c-2.52,5.93-4.75,11.95-7.2,17.86-1.24,2.95-2.51,5.88-3.92,8.74-.71,1.43-1.43,2.85-2.2,4.24s-1.57,2.76-2.44,4.08A51,51,0,0,1,54,78.2l-.55-.13a45.51,45.51,0,0,0-9.77-.94c-1.63,0-3.25,0-4.87.16s-3.22.25-4.83.42-3.2.36-4.8.59c-1,.13-1.92.28-2.87.43-.25-1-.46-1.94-.64-2.92a50.06,50.06,0,0,1-.73-9.47,51.23,51.23,0,0,1,3.73-18.55,37.16,37.16,0,0,1,4.64-8.22,27.35,27.35,0,0,1,3.15-3.48,21.94,21.94,0,0,1,3.74-2.77,17.71,17.71,0,0,1,8.86-2.42,13.1,13.1,0,0,1,1.88.13c-.29.66-.56,1.32-.81,2a27.57,27.57,0,0,0-1.31,4.77,14.92,14.92,0,0,0-.23,2.51,8.83,8.83,0,0,0,.33,2.58,4.6,4.6,0,0,0,1.51,2.33,4,4,0,0,0,1.27.66,6.41,6.41,0,0,0,1.34.24,5.37,5.37,0,0,0,2.66-.51,5.54,5.54,0,0,0,2-1.76,8.51,8.51,0,0,0,1.45-4.93A9.59,9.59,0,0,0,57.82,34,8.7,8.7,0,0,0,54,30.58a10.15,10.15,0,0,0-1-.39,48.85,48.85,0,0,1,2.9-5,55.28,55.28,0,0,1,5.9-7.41,51.9,51.9,0,0,1,7.07-6.27,43.5,43.5,0,0,1,17-7.75A39.16,39.16,0,0,1,95.16,3a40.21,40.21,0,0,1,4.65.45c.77.11,1.51.26,2.26.43s1.48.39,2.2.63a24,24,0,0,1,7.9,4.42,25.42,25.42,0,0,1,5.74,6.91,27.67,27.67,0,0,1,1.91,4.09,29.58,29.58,0,0,1,1.27,4.34,37.77,37.77,0,0,1,.8,9.08,47.49,47.49,0,0,1-4.36,18,36.56,36.56,0,0,1-4.89,7.94,32,32,0,0,1-3.21,3.37,26.76,26.76,0,0,1-3.7,2.82,21.79,21.79,0,0,1-8.6,3.27,17.68,17.68,0,0,1-2.3.18,15.91,15.91,0,0,1-2.29-.14,13.11,13.11,0,0,1-4.35-1.34,10.49,10.49,0,0,1-3.46-2.88,9.76,9.76,0,0,1-1.8-4.13,15.85,15.85,0,0,1-.24-2.31,12.74,12.74,0,0,1,.12-2.31,9,9,0,0,1,1.6-4.19A7,7,0,0,1,86,50.07a7.12,7.12,0,0,1,2-1,7.35,7.35,0,0,1,4.38,0,5.7,5.7,0,0,1,1.91,1.07A4.06,4.06,0,0,1,95.45,52a4.38,4.38,0,0,1,.08,2.22,8.15,8.15,0,0,1-.85,2.19s0,.08,0,.1a.09.09,0,0,0,.11,0A7.3,7.3,0,0,0,96,54.36a4.74,4.74,0,0,0,.16-2.54,4.59,4.59,0,0,0-1.27-2.27,6.12,6.12,0,0,0-2.19-1.4,8,8,0,0,0-5.09-.2,7.67,7.67,0,0,0-4.16,3,10.43,10.43,0,0,0-1.74,4.73,16,16,0,0,0-.12,2.49,19,19,0,0,0,.21,2.48,11,11,0,0,0,1.94,4.66,11.54,11.54,0,0,0,3.81,3.31,14.47,14.47,0,0,0,4.77,1.61,17.45,17.45,0,0,0,2.5.21,19,19,0,0,0,2.5-.13A23.65,23.65,0,0,0,106.7,67a27.57,27.57,0,0,0,4-2.89,32.31,32.31,0,0,0,3.53-3.49,42.77,42.77,0,0,0,5.55-8.19A44.47,44.47,0,0,0,121.91,48c.62-1.53,1.17-3.08,1.64-4.67a46.16,46.16,0,0,0,1.87-9.79A34.5,34.5,0,0,0,124.73,23.45ZM54.15,80.35a25.3,25.3,0,0,1,3.14,1.24A15.9,15.9,0,0,1,61,84a10.5,10.5,0,0,1,1.47,1.59,9,9,0,0,1,1,1.82,7.37,7.37,0,0,1,.5,4,8.27,8.27,0,0,1-1.72,3.79A11.2,11.2,0,0,1,59,98.06,13.78,13.78,0,0,1,57,99a14.33,14.33,0,0,1-2.18.61,19.26,19.26,0,0,1-4.56.38,25.46,25.46,0,0,1-9.08-1.93,22.52,22.52,0,0,1-7.6-5.35c-.1-.1-.19-.21-.29-.32a57.42,57.42,0,0,0,15.85-7.92A53.64,53.64,0,0,0,54.15,80.35Zm-24.79-.68c1.58-.21,3.17-.39,4.75-.54a76.23,76.23,0,0,1,9.53-.42,40.9,40.9,0,0,1,8.58,1.11,51.68,51.68,0,0,1-4.11,3.23A55.62,55.62,0,0,1,32,90.81a29.49,29.49,0,0,1-3.54-6,35.15,35.15,0,0,1-1.75-4.79C27.56,79.93,28.46,79.79,29.36,79.67Zm-2.08,5.7a30.93,30.93,0,0,0,3.35,5.82,61,61,0,0,1-8.87,1.75,54.18,54.18,0,0,1-9.44.34,34.15,34.15,0,0,1-4.64-.54,20.15,20.15,0,0,1-2.23-.54,9.84,9.84,0,0,1-2-.83,2.79,2.79,0,0,1-.71-.53,1,1,0,0,1-.16-.22l0-.06v-.15a2.78,2.78,0,0,1,.54-1.6,6.9,6.9,0,0,1,1.51-1.55A15.27,15.27,0,0,1,6.53,86a33.73,33.73,0,0,1,4.28-1.94c1.48-.57,3-1.06,4.51-1.5a89.14,89.14,0,0,1,9.31-2.16l.82-.14A37.23,37.23,0,0,0,27.28,85.37Zm26.17-53.6a7.45,7.45,0,0,1,3.26,2.9,8.24,8.24,0,0,1,1.2,4.25,7,7,0,0,1-1.21,4.17,4.14,4.14,0,0,1-1.57,1.35,4,4,0,0,1-2,.37,3.28,3.28,0,0,1-1.87-.64,3.24,3.24,0,0,1-1-1.68A7.41,7.41,0,0,1,50,40.31,14.71,14.71,0,0,1,50.21,38a25.59,25.59,0,0,1,1.31-4.49c.29-.73.59-1.45.92-2.17A8.79,8.79,0,0,1,53.45,31.77Z"/></g></g></g></svg>