<?xml version="1.0" encoding="utf-8"?>
<!-- Generator: Adobe Illustrator 26.5.0, SVG Export Plug-In . SVG Version: 6.00 Build 0)  -->
<svg version="1.1" id="Layer_1" xmlns="http://www.w3.org/2000/svg" xmlns:xlink="http://www.w3.org/1999/xlink" x="0px" y="0px"
	 viewBox="0 0 100 150" style="enable-background:new 0 0 100 150;" xml:space="preserve">
<style type="text/css">
	.st0{fill:#FFFFFF;}
	.st1{fill:none;stroke:#3C2E28;stroke-width:2.48;stroke-miterlimit:22.35;}
	.st2{fill:none;stroke:#3C2E28;stroke-width:2.5;stroke-miterlimit:22.35;}
</style>
<g>
	<path class="st0" d="M12.9,144.3c4.3,2,8.6,4.8,13.6,4.1c1.2-0.4,1.4-1.8,1-3c-0.7-2.6-2.5-4.3-3.8-6.8l6-12.5
		c2.1,0.1,4.2-0.1,6.2-0.3c0.3-0.1,0.7-0.4,0.9-0.8c4-7.8,7.3-16.1,11.7-23.7c1.8,0.2,3.5-0.7,5-1.7l13.9-28.9c0,0,2,0.9,3,0.8
		c4.6-0.4,24.5-36.6,25.5-38.1l0.3-0.2c1.1-0.7-3.3,5.5-2.7,4.4c2.9-6.1-19-0.1-27.1-9.4C52.7,21.3,49.5,8,46.5,14.1
		c-0.5,1,1.8-6.3,2-5.1l0,0.1C48,10.8,32.1,49,34.5,53c0.5,0.9,2.4,2,2.4,2L22.4,84.9c-0.2,0.4-0.2,0.9-0.1,1.3
		c0.4,1.1,1.3,1.6,2.4,2.7c-3.2,8.2-7.7,15.9-11.3,23.9c-0.2,0.4-0.2,0.9-0.1,1.2c1.1,1.8,2.1,3.6,3.5,5.3l-6,12.5
		c-2.6,0.4-5.1-0.1-7.5,0.9c-1.2,0.4-2.1,1.4-1.8,2.6C4,140,8.7,141.9,12.9,144.3"/>
	<g id="path356_00000118376911579211756280000015672497567836276367_">
		<path class="st0" d="M98.2,30.7c-4.1,7.7-16.8,4-23.2,1.9c-7-2.5-13.6-6.2-19-11.3c-5.2-4.5-12.1-15.2-2.2-18.7
			c4.8-1.3,10-0.2,14.4,1c8.4,2.6,16.1,6.3,22.9,12.1C95.1,19.3,100.3,24.6,98.2,30.7L98.2,30.7z M93.2,28.5
			c0.5-1.2-0.3-3.1-1.1-4.3c-1.1-1.8-2.5-3.5-4.2-5C82.2,13.5,74.8,10,67,7.8c-3.3-0.9-6.7-1.5-9.8-1.4c-1.5,0.1-3,0.5-3.5,1.1
			c-2,2.8,3.1,8.5,5.1,10.6c7.2,7.1,17.3,11.6,27.4,12.2c2.2,0,4.5,0,6.3-1.1C93,29,93.1,28.8,93.2,28.5L93.2,28.5z"/>
	</g>
	<path id="path340" class="st1" d="M12.9,144.3C8.7,142,4,140,1.6,135.5c-0.4-1.2,0.6-2.2,1.8-2.6c2.4-1,4.9-0.5,7.5-0.9l6-12.5
		c-1.4-1.7-2.4-3.5-3.5-5.3c-0.1-0.3-0.1-0.8,0.1-1.2c3.6-8,8.1-15.7,11.3-23.9c-1-1.2-2-1.6-2.4-2.7c-0.1-0.4-0.1-0.9,0.1-1.3
		L36.9,55c0,0-1.9-1.1-2.4-2c-2.5-4,13.5-42.2,14-43.9"/>
	<path id="path344" class="st1" d="M36.8,54.9c4.4,2.8,9.2,5.7,14.6,8.5c5.7,3,11.1,5.4,16.2,7.5"/>
	<path id="path348" class="st1" d="M12.9,144.3c4.3,2,8.6,4.8,13.6,4.1c1.2-0.4,1.4-1.8,1-3c-0.7-2.6-2.5-4.3-3.8-6.8l6-12.5
		c2.1,0.1,4.2-0.1,6.2-0.3c0.3-0.1,0.7-0.4,0.9-0.8c4-7.8,7.3-16.1,11.7-23.7c1.8,0.2,3.5-0.7,5-1.7l13.9-28.9c0,0,2,0.9,3,0.8
		c4.6-0.4,24.5-36.6,25.5-38.1"/>
	<path id="path352" class="st1" d="M24.7,89c3.2,2.3,6.9,4.7,11.3,6.9c4.5,2.3,8.7,4.1,12.4,5.3"/>
	<path id="path356" class="st1" d="M97.9,31c-2.9,6.1-16.3,5.4-29.8-1.6S46.1,11.7,49,5.6C52-0.5,65.3,0.3,78.8,7.3
		S100.9,24.9,97.9,31z"/>
	<path id="path360" class="st2" d="M92.4,28.1c-2,4.2-12.2,3.3-22.6-2.2S52.5,12.7,54.5,8.5s12.2-3.3,22.6,2.2S94.5,23.9,92.4,28.1z
		"/>
	<path id="path364" class="st1" d="M16.8,119.4c1.2,1.3,3.3,2.7,6,4.1c2.7,1.4,5.1,2.3,6.8,2.5"/>
</g>
</svg>
