<?xml version="1.0" encoding="UTF-8"?>
<svg id="Layer_6" data-name="Layer 6" xmlns="http://www.w3.org/2000/svg" viewBox="0 0 2000 2000">
  <defs>
    <style>
      .cls-1 {
        fill: none;
        stroke: #fff;
        stroke-miterlimit: 10;
        stroke-width: 40px;
      }
    </style>
  </defs>
  <path class="cls-1" d="M1195.91,1182.7c.4,7.92,.64,16.09,.33,24.24,105.75-41.67,180.59-144.75,180.59-265.3V326.52c0-157.43-127.62-285.05-285.05-285.05h0c-157.43,0-285.05,127.62-285.05,285.05V941.63c0,150.91,117.27,274.41,265.65,284.38"/>
  <path class="cls-1" d="M1191.88,1075.88c35.78-29.11,58.64-73.48,58.64-123.19V315.46c0-87.67-71.07-158.74-158.74-158.74h0c-87.67,0-158.74,71.07-158.74,158.74V952.69c0,81.88,61.99,149.27,141.6,157.82"/>
  <path class="cls-1" d="M789.63,799.22c-33.37,1.08-62.37,19.08-85.37,42.08-27,27-46,57-59,92-6,16-11,32-14,49-2,16-3,31-6,46-2,216-3,433-1,649,1,21,1,42,8,62,1,6,2,12,4,18l3,9c17,49,46,92,87,126,42,35,90,55,144,64h8c34,5,66,1,100-6,1,0,3-2,4-2,3-1,7-1,10-2,10-4,19-7,29-10,19-7,34-17,52-29,17-12,30-24,44-38,4-5,8-9,12-14,36-44,57-97,64-152,3-223,0-445,1-668-3-45-17-87-41-127-32-52-78-90-133-114-8-3-17-6-25-9-14-5-29-8-44.01-9.9"/>
  <path class="cls-1" d="M788.45,939.07c-9.18,1.23-14.18,12.23-19.18,19.23-12,23-16,47-18,72-1,21,0,42,0,63-1,206-4,412,1,618,4,23,14,44,27,65,2,2,3,4,5,7,11,12,21,25,36,33l3,3c36,23,75,32,116,23,33-8,60-23,84-46,25-25,41-57,43-92,2-31,1-62,2-93,1-44,0-87,0-131,1-152,1-303-1-455-4-21-10-42-22-61l-3-3c-21-34-54.45-67.84-89.95-67.84"/>
</svg>