<?xml version="1.0" encoding="UTF-8"?>
<svg id="Layer_1" data-name="Layer 1" xmlns="http://www.w3.org/2000/svg" viewBox="0 0 2000 2000">
  <defs>
    <style>
      .cls-1, .cls-2, .cls-3, .cls-4, .cls-5 {
        stroke: #231f20;
        stroke-miterlimit: 10;
      }

      .cls-1, .cls-4 {
        fill: none;
      }

      .cls-1, .cls-5 {
        stroke-width: 95px;
      }

      .cls-2 {
        fill: #231f20;
      }

      .cls-2, .cls-3 {
        stroke-width: 10px;
      }

      .cls-3, .cls-5 {
        fill: #fff;
      }

      .cls-4 {
        stroke-width: 85px;
      }
    </style>
  </defs>
  <path class="cls-3" d="M999.91,371.73s-714.84-78.1-779.15,10.21-109.55,361.94-101.58,566.63-.91,683.17-.91,683.17H1886.93l13.07-893.17s42.85-395.29-358.62-394.94-541.47,28.1-541.47,28.1Z"/>
  <path class="cls-5" d="M830.5,848.48l-729.14,5.88v802.39H1898.47V848.48h-728.97"/>
  <rect class="cls-4" x="830.5" y="658.21" width="339" height="529.82" rx="64.99" ry="64.99"/>
  <path class="cls-1" d="M1898.47,848.48s34.12-499.76-219.9-503.55-678.66,0-678.66,0"/>
  <path class="cls-1" d="M101.36,856.02s-32.59-507.29,221.43-511.08c254.02-3.79,678.66,0,678.66,0"/>
  <path class="cls-2" d="M931.88,849.62c0,37.57,30.46,68.03,68.03,68.03,15.44,0,29.69-5.15,41.1-13.82,16.36-12.42,26.93-32.09,26.93-54.22,0-37.57-30.46-68.03-68.03-68.03s-68.03,30.46-68.03,68.03Z"/>
  <polyline class="cls-2" points="1034.17 903.83 1093.51 1064.66 906.32 1064.66 959.14 908.58"/>
</svg>