<?xml version="1.0" encoding="utf-8"?>
<!-- Generator: Adobe Illustrator 22.1.0, SVG Export Plug-In . SVG Version: 6.00 Build 0)  -->
<svg version="1.1" id="Layer_1" xmlns="http://www.w3.org/2000/svg" xmlns:xlink="http://www.w3.org/1999/xlink" x="0px" y="0px"
	 viewBox="0 0 512 512" style="enable-background:new 0 0 512 512;" xml:space="preserve">
<style type="text/css">
	.st0{fill:#FFFFFF;}
</style>
<title></title>
<g id="icomoon-ignore">
</g>
<path class="st0" d="M497.9,497.9c-18.8,18.8-49.2,18.8-68,0L345,413c-34.9,22.4-76.1,35.7-120.7,35.7C100.5,448.8,0,348.3,0,224.4
	S100.5,0,224.4,0s224.4,100.5,224.4,224.4c0,44.5-13.4,85.8-35.7,120.7L498,430C516.7,448.7,516.7,479.1,497.9,497.9z M224.4,64.1
	c-88.5,0-160.3,71.7-160.3,160.3s71.8,160.3,160.3,160.3S384.7,313,384.7,224.4S312.9,64.1,224.4,64.1L224.4,64.1z"/>
</svg>
