<?xml version="1.0" encoding="utf-8"?>
<!-- Generator: Adobe Illustrator 26.0.1, SVG Export Plug-In . SVG Version: 6.00 Build 0)  -->
<svg version="1.1" id="Layer_1" xmlns="http://www.w3.org/2000/svg" xmlns:xlink="http://www.w3.org/1999/xlink" x="0px" y="0px"
	 viewBox="0 0 120 120" style="enable-background:new 0 0 120 120;" xml:space="preserve">
<style type="text/css">
	.st0{fill:#FFFFFF;}
</style>
<g>
	<path class="st0" d="M12,116H8c-4.4,0-8-3.6-8-8V24c0-4.4,3.6-8,8-8h4c4.4,0,8,3.6,8,8v84C20,112.4,16.4,116,12,116z"/>
	<path class="st0" d="M56,40c0-4.4-3.6-8-8-8H32c-4.4,0-8,3.6-8,8v7c0,0.6,0.4,1,1,1h30c0.6,0,1-0.4,1-1V40z"/>
	<path class="st0" d="M24,108c0,4.4,3.6,8,8,8h16c4.4,0,8-3.6,8-8v-7.5c0-0.3-0.2-0.5-0.5-0.5h-31c-0.3,0-0.5,0.2-0.5,0.5V108z"/>
	<path class="st0" d="M24.5,56h31c0.3,0,0.5,0.2,0.5,0.5v35c0,0.3-0.2,0.5-0.5,0.5h-31c-0.3,0-0.5-0.2-0.5-0.5v-35
		C24,56.2,24.2,56,24.5,56z"/>
	<path class="st0" d="M76,116h-8c-4.4,0-8-3.6-8-8V12c0-4.4,3.6-8,8-8h8c4.4,0,8,3.6,8,8v96C84,112.4,80.4,116,76,116z"/>
	<path class="st0" d="M120,107.4l-8.1-85c-0.4-3.9-4.2-6.7-8.6-6.3l-8,0.7c-4.4,0.4-7.7,3.9-7.3,7.8l8.1,85c0.4,3.9,4.2,6.7,8.6,6.3
		l8-0.8C117.1,114.8,120.3,111.3,120,107.4z"/>
</g>
</svg>
