<?xml version="1.0" encoding="utf-8"?>
<!-- Generator: Adobe Illustrator 26.0.1, SVG Export Plug-In . SVG Version: 6.00 Build 0)  -->
<svg version="1.1" id="Layer_1" xmlns="http://www.w3.org/2000/svg" xmlns:xlink="http://www.w3.org/1999/xlink" x="0px" y="0px"
	 viewBox="0 0 120 120" style="enable-background:new 0 0 120 120;" xml:space="preserve">
<style type="text/css">
	.st0{fill-rule:evenodd;clip-rule:evenodd;fill:#FFFFFF;}
</style>
<path id="Telescope" class="st0" d="M113.9,45l-8-2.2c-0.6-0.2-1.3-0.3-1.9-0.3c-1-2.3-3-4-5.3-4.7L87.9,35c-0.2,0-0.3,0-0.5-0.1
	c-0.1-1.3-0.4-2.5-1.1-3.6c-1.1-1.9-2.9-3.4-5-3.9L33.4,14.3c-0.2,0-0.3,0-0.5-0.1c-0.2-3.6-2.7-6.6-6.1-7.6l-8-2.2
	c-2.1-0.6-4.4-0.3-6.3,0.9c-1.9,1.1-3.3,3-3.8,5.1L0.3,43.3c-1.2,4.5,1.4,9.1,5.9,10.3l8,2.2c2.1,0.6,4.4,0.3,6.3-0.9
	c1.1-0.6,2-1.5,2.7-2.6c0.2,0.1,0.3,0.1,0.5,0.2l23.4,6.4l-12.6,51.6c-0.6,2.3,0.8,4.5,3,5.2c2.2,0.5,4.5-0.8,5-3.1c0,0,0,0,0,0
	l12.6-51.5L68,64.6l10.4,47.8c0.4,1.9,2.1,3.3,4,3.3c0.3,0,0.6,0,0.9-0.1c2.3-0.5,3.7-2.8,3.1-5l-9.8-45.4c1.6-0.6,2.9-1.7,3.8-3.1
	c0.1,0.1,0.3,0.1,0.4,0.2l10.6,2.9c0.7,0.2,1.4,0.3,2.1,0.3c1.7,0,3.4-0.5,4.8-1.6c0.6,0.3,1.2,0.6,1.8,0.7l8,2.2
	c0.7,0.2,1.4,0.3,2.1,0.3c1.5,0,2.9-0.4,4.1-1.1c1.9-1.1,3.3-3,3.8-5.1l1.4-5.5C120.9,50.9,118.3,46.3,113.9,45z M79.7,35.3
	l-5.5,22.6c-0.9-0.6-48.5-13.5-48.5-13.5l3.8-14.8l1.8-7.1L79.7,35.3z M8.3,45.5l8.5-32.7l8,2.2l-3.2,12.5l-3.8,14.8l0,0l-1.4,5.5
	L8.3,45.5z M93.6,57L83,54.1l2.8-10.9l10.6,2.9L93.6,57z M110.3,58.6l-8-2.2l1.4-5.5l8,2.2L110.3,58.6z"/>
</svg>
