<?xml version="1.0" encoding="utf-8"?>
<!-- Generator: Adobe Illustrator 26.0.1, SVG Export Plug-In . SVG Version: 6.00 Build 0)  -->
<svg version="1.1" id="Layer_1" xmlns="http://www.w3.org/2000/svg" xmlns:xlink="http://www.w3.org/1999/xlink" x="0px" y="0px"
	 viewBox="0 0 120 120" style="enable-background:new 0 0 120 120;" xml:space="preserve">
<style type="text/css">
	.st0{display:none;fill:#FFFFFF;}
	.st1{fill:url(#SVGID_1_);}
</style>
<rect x="22" y="3" class="st0" width="76" height="114"/>
<g>
	<linearGradient id="SVGID_1_" gradientUnits="userSpaceOnUse" x1="60" y1="120" x2="60" y2="-9.094947e-13">
		<stop  offset="0" style="stop-color:#D4AF24"/>
		<stop  offset="1" style="stop-color:#EEC429"/>
	</linearGradient>
	<path class="st1" d="M100.8,37.7h-8.2c-0.2-8.9-2-16-5.7-21.1c-3.6-5.2-9.2-7.7-16.7-7.7c-4.2,0-7.8,0.9-10.7,2.6
		c-2.9,1.7-5.1,4-6.5,6.9c-1.4,2.8-2.1,5.9-2.1,9c0,5,1.6,8.9,4.8,11.6c3.2,2.8,9,6.6,17.3,11.6c8.3,5,14.5,9.9,18.7,14.9
		c4.2,4.9,6.2,11.4,6.2,19.4c0,10.7-4,19.3-11.9,25.6c-8,6.4-19,9.5-33.2,9.5c-11.4,0-23.4-2-36.3-6l2.5-35.3h9.1v4.1
		c0,5.3,0.8,10.1,2.5,14.4c1.6,4.3,4.4,7.7,8.4,10.2c3.9,2.5,9.1,3.8,15.5,3.8c6.9,0,12.3-2,16-6c3.8-4,5.6-8.6,5.6-13.9
		c0-5.4-1.8-9.6-5.4-12.8c-3.6-3.1-9.4-7.1-17.3-11.9c-8-4.8-14-9.6-18.1-14.4c-4.1-4.8-6.2-11-6.2-18.7c0-6.8,1.7-12.8,5-17.8
		c3.3-5.1,8.1-8.9,14.2-11.7C54.5,1.4,61.7,0,69.9,0C75,0,80.8,0.6,87.3,1.9c6.5,1.3,11.8,2.7,16.1,4.4L100.8,37.7z"/>
</g>
</svg>
