<?xml version="1.0" encoding="utf-8"?>
<!-- Generator: Adobe Illustrator 26.0.1, SVG Export Plug-In . SVG Version: 6.00 Build 0)  -->
<svg version="1.1" id="Layer_1" xmlns="http://www.w3.org/2000/svg" xmlns:xlink="http://www.w3.org/1999/xlink" x="0px" y="0px"
	 viewBox="0 0 120 120" style="enable-background:new 0 0 120 120;" xml:space="preserve">
<style type="text/css">
	.st0{display:none;fill:#FFFFFF;}
	.st1{fill:#FFFFFF;}
</style>
<rect x="22" y="3" class="st0" width="76" height="114"/>
<g>
	<path class="st1" d="M60,0.2C35.8,0.2,16.2,19.9,16.2,44v51.5c0,6.4,2.5,12.5,7,17.1c4.4,4.6,10.5,7.2,16.9,7.2
		c9.2,0,16.7-3.9,22.5-11.6c1.1-1.5,2.4-3.7,3.8-6.2c3.8-6.6,9-15.6,15.7-20.1C88.5,77.5,93.9,72,97.5,66c4.2-6.8,6.3-14.2,6.3-22
		C103.8,19.9,84.2,0.2,60,0.2z M83.9,46c-2.2,0-4-1.8-4-4c0-9.9-8.9-17.9-19.9-17.9s-19.9,8-19.9,17.9v7.6c6.8-2,14.5-1.7,16-1.6
		c6.6,0.1,11.9,5.5,11.8,12.1c0,2.5-0.8,4.8-2.2,6.8c-0.1,0.1-0.2,0.2-0.2,0.3c-4.1,4.7-9,11.3-9.6,13.7c-0.6,2.1-2.8,3.3-4.9,2.7
		c-2.1-0.6-3.3-2.7-2.8-4.8c1.4-5.2,9.2-14.5,11.1-16.7c1.2-1.8,0.7-4.3-1.1-5.5C57.5,56.2,56.8,56,56,56h-0.2
		c-4.1-0.2-11.4,0.2-15.7,2.1V72c0,2.2-1.8,4-4,4s-4-1.8-4-4V42.1c0-14.3,12.5-25.9,27.9-25.9s27.9,11.6,27.9,25.9
		C87.9,44.3,86.1,46,83.9,46z"/>
</g>
</svg>
