<?xml version="1.0" encoding="utf-8"?>
<!-- Generator: Adobe Illustrator 22.1.0, SVG Export Plug-In . SVG Version: 6.00 Build 0)  -->
<svg version="1.1" id="Layer_1" xmlns="http://www.w3.org/2000/svg" xmlns:xlink="http://www.w3.org/1999/xlink" x="0px" y="0px"
	 viewBox="0 0 768 768" style="enable-background:new 0 0 768 768;" xml:space="preserve">
<style type="text/css">
	.st0{fill:#FFFFFF;}
</style>
<title></title>
<g id="icomoon-ignore">
</g>
<path class="st0" d="M753.6,350.2l-336-336c-4.8-4.8-9.6-9.6-14.4-9.6c-9.6-4.8-24-4.8-38.4,0c-4.8,4.8-9.6,4.8-14.4,9.6l-336,336
	c-19.2,19.2-19.2,48,0,67.2s48,19.2,67.2,0L336,163v556.8c0,28.8,19.2,48,48,48s48-19.2,48-48V163l254.4,254.4
	c9.6,9.6,24,14.4,33.6,14.4s24-4.8,33.6-14.4C772.8,398.2,772.8,369.4,753.6,350.2z"/>
</svg>
