<svg id="a" xmlns="http://www.w3.org/2000/svg" viewBox="0 0 2000 2000">
	<path class="bp inner" d="M1494.29,234.14c3.71,7.05,6.73,14.59,8.36,22.55,9.23,42.46-21.8,81.18-56.38,101.94-39.47,23.84-90.77,35.25-135,17.22-36.82-16-62.92-49.71-76.85-86.42-18.93-49.04-14.7-106.61,9.84-153.27C1285.32,58.41,1369.49,7.83,1456.37,.76c118.11-9.43,203.07,70.11,244,174.31,59.66,155.66,51.71,326.32,36.36,488.52-42.77,424.59-187.79,834.02-512.28,1125.12-71.37,65-271.13,211.29-271.13,211.29,38.96-68.53,79.52-138.57,105.62-212.8,8.53-23.3,16.28-47.79,22.66-71.67,32.68-121.02,38.86-249.31,18.74-372.72-7.51-44.57-18.45-89.3-33.8-131.8-3.16-9.14-6.99-18.96-11.03-27.72-6.49-13.96-14.76-27.34-23.43-39.88-24.07-35.35-54.75-68.09-95.51-84.19-54.88-22.52-119.05-8.94-169.32,19.77-42.42,24.62-76.31,61.27-92.34,106.15-8.76,22.02-7.9,47.95,4.54,68,10.59,17.92,28.35,30.47,48.6,34.05,116.95,23.24,243.92-68.6,294.91-172.43,67.03-136.5,131.71-277.28,134.27-430.1,3.32-147.98-48.9-295.43-147.36-405.92-47.85-53.39-105.63-100.55-172.65-126.28-15.97-6.14-31.82-9.8-48.63-11.87-106.59-15.33-219.59,6.67-306.68,71.71-44.38,32.44-81.76,74.81-110.5,121.71-72.53,120.58-110.84,299.03-28.77,423.39,53.05,79.11,148.28,115.38,239.77,128.24,56.28,7.94,114.6,5.29,168.9-11.88,89.59-27.85,169.86-98.99,192.63-192,19.76-83.82-20.26-150.89-107.73-162.07-76.47-13.18-160.81,16.8-192.54,91.77-15.15,35.19-13.6,78.76,10.85,109.48,17.72,22.14,45.56,40.35,74.95,37,29.56-3.66,53.17-26.2,68.65-50.39h0" fill="none" stroke="#000" stroke-linecap="round" stroke-linejoin="round" stroke-miterlimit="10"/><path class="bp inner" d="M1494.29,234.14c5.99,14.78,7.93,31.07,4.41,46.11-14.4,58.21-91.64,89.64-146.74,82.45-28.89-3.1-53.23-20.82-69.28-44.61-32.93-47.7-33.51-113.92-3.89-163.09,36.76-61.96,109.41-100.35,180.36-102.66,56.75-2.13,108.49,24.06,141.97,69.6,83.64,115.06,80.34,301.94,71.64,440.06-23.32,280.25-81.64,561.95-208.09,814.25-111.61,226.6-266.34,410.71-462.5,567.78,0,0,70.06-94.86,99.47-155.59,59-124.61,94.84-262.12,91.8-400.57,.06-7.45-1.06-25.53-1.32-32.42-.69-8.12-1.21-15.26-2-24.31l-.93-8.09-1.9-16.19c-3.71-26.33-8.92-54.55-15.71-80.26-8.66-32.79-18.87-65.76-34.33-96.07-37.98-77.06-108.93-115.9-193.24-114.61-86.53,1.83-172.21,25.1-241.62,77.63-35.07,27.06-67.54,64.2-78.41,108.54-13.73,58.71,24.96,120.84,83.04,136.76,105.45,28.9,218-16.42,296.2-87.54,33.45-30.79,67.39-71.23,89.44-111.88,25.71-47.4,68.11-136.85,91.39-206.96,54.89-155.86,67.44-334.34,11.25-491.41-55.76-160.73-194.11-327.18-362.8-373.35-4.29-1.1-12.77-2.86-17.16-3.61-68.24-11.34-138.66-10.34-205.95,7.75-124.16,31.69-226.21,123.31-285.02,235.14-74.26,141.35-110.33,333.22-12.95,472.29,61.05,85.6,166.51,124.76,267.34,135.68,60.4,6.77,122.56,2.08,180.26-17.92,95.5-32.5,179.46-111,201.27-211.64,19.29-91.72-26.54-166.53-122.55-176.59-80.32-11.77-167.93,21.33-199.48,100.46-15.01,36.91-12.4,82.43,13.65,113.74,18.74,22.4,47.61,40.4,77.75,36.48,29.84-4.21,53.26-27.26,68.45-51.95" fill="none" stroke="#000" stroke-linecap="round" stroke-linejoin="round" stroke-miterlimit="10"/>
</svg>
