<svg class="drop-cap" xmlns="http://www.w3.org/2000/svg" viewBox="0 0 2000 2000">
	<path d="M545.86,707.53c-15.2,24.69-38.62,47.73-68.45,51.95-30.14,3.92-59.01-14.09-77.75-36.48-26.05-31.31-28.66-76.83-13.65-113.74,31.56-79.14,119.16-112.24,199.48-100.46,96,10.06,141.83,84.87,122.55,176.59-21.81,100.64-105.76,179.14-201.27,211.64-57.7,20-119.86,24.69-180.26,17.92-100.83-10.92-206.29-50.08-267.34-135.68C-38.21,640.2-2.14,448.33,72.12,306.98c58.81-111.82,160.86-203.45,285.02-235.14,67.28-18.09,137.7-19.09,205.95-7.75,4.38,.75,12.87,2.51,17.16,3.61,168.69,46.17,307.05,212.63,362.8,373.35,56.18,157.07,43.63,335.55-11.25,491.41-23.28,70.11-65.68,159.56-91.39,206.96-22.05,40.66-55.99,81.09-89.44,111.88-78.2,71.13-190.75,116.45-296.2,87.54-58.08-15.93-96.77-78.05-83.04-136.76,10.87-44.35,43.35-81.48,78.41-108.54,69.41-52.53,155.1-75.8,241.62-77.63,84.31-1.29,155.25,37.55,193.24,114.61,15.45,30.32,25.67,63.29,34.33,96.07,6.79,25.71,12,53.93,15.71,80.26l1.9,16.19,.93,8.09c.79,9.05,1.31,16.19,2,24.31,.27,6.89,1.39,24.97,1.32,32.42,3.03,138.45-32.8,275.96-91.8,400.57-29.42,60.73-99.47,155.59-99.47,155.59,196.15-157.07,350.89-341.17,462.5-567.78,126.45-252.3,184.78-534,208.09-814.25,8.7-138.12,11.99-325-71.64-440.06-33.48-45.53-85.21-71.72-141.97-69.6-70.95,2.31-143.6,40.7-180.36,102.66-29.62,49.18-29.04,115.39,3.89,163.09,16.05,23.79,40.39,41.52,69.28,44.61,55.1,7.19,132.35-24.24,146.74-82.45,3.52-15.05,1.58-31.33-4.41-46.11,3.71,7.05,6.73,14.59,8.36,22.55,9.23,42.46-21.8,81.18-56.38,101.94-39.47,23.84-90.77,35.25-135,17.22-36.82-16-62.92-49.71-76.85-86.42-18.93-49.04-14.7-106.61,9.84-153.27C1033.06,58.41,1117.23,7.83,1204.1,.76c118.11-9.43,203.07,70.11,244,174.31,59.66,155.66,51.71,326.32,36.36,488.52-42.77,424.59-187.79,834.02-512.28,1125.12-71.37,65-271.13,211.29-271.13,211.29,38.96-68.53,79.52-138.57,105.62-212.8,8.53-23.3,16.28-47.79,22.66-71.67,32.68-121.02,38.86-249.31,18.74-372.72-7.51-44.57-18.45-89.3-33.8-131.8-3.16-9.14-6.99-18.96-11.03-27.72-6.49-13.96-14.76-27.34-23.43-39.88-24.07-35.35-54.75-68.09-95.51-84.19-54.88-22.52-119.05-8.94-169.32,19.77-42.42,24.62-76.31,61.27-92.34,106.15-8.76,22.02-7.9,47.95,4.54,68,10.59,17.92,28.35,30.47,48.6,34.05,116.95,23.24,243.92-68.6,294.91-172.43,67.03-136.5,131.71-277.28,134.27-430.1,3.32-147.98-48.9-295.43-147.36-405.92-47.85-53.39-105.63-100.55-172.65-126.28-15.97-6.14-31.82-9.8-48.63-11.87-106.59-15.33-219.59,6.67-306.68,71.71-44.38,32.44-81.76,74.81-110.5,121.71-72.53,120.58-110.84,299.03-28.77,423.39,53.05,79.11,148.28,115.38,239.77,128.24,56.28,7.94,114.6,5.29,168.9-11.88,89.59-27.85,169.86-98.99,192.63-192,19.76-83.82-20.26-150.89-107.73-162.07-76.47-13.18-160.81,16.8-192.54,91.77-15.15,35.19-13.6,78.76,10.85,109.48,17.72,22.14,45.56,40.35,74.95,37,29.56-3.66,53.17-26.2,68.65-50.39h0Z"/>
</svg>
