<?xml version="1.0" encoding="UTF-8"?><svg id="Layer_2" xmlns="http://www.w3.org/2000/svg" viewBox="0 0 634.38 848.39"><defs><style>.cls-1{fill:#f1f2f2;}</style></defs><g id="Layer_1-2"><path class="cls-1" d="M231.55,300.13c-6.45,10.47-16.38,20.25-29.04,22.04-12.78,1.66-25.03-5.98-32.98-15.48-11.05-13.28-12.16-32.59-5.79-48.25,13.39-33.57,50.55-47.61,84.62-42.62,40.72,4.27,60.17,36,51.98,74.91-9.25,42.69-44.86,75.99-85.38,89.78-24.48,8.48-50.84,10.47-76.47,7.6-42.77-4.63-87.51-21.24-113.4-57.55C-16.21,271.57-.91,190.18,30.59,130.22,55.54,82.78,98.83,43.92,151.5,30.47c28.54-7.68,58.41-8.1,87.36-3.29,1.86,.32,5.46,1.07,7.28,1.53,71.56,19.59,130.25,90.2,153.9,158.38,23.83,66.63,18.51,142.34-4.77,208.45-9.88,29.74-27.86,67.68-38.77,87.79-9.35,17.25-23.75,34.4-37.94,47.46-33.17,30.17-80.91,49.4-125.65,37.14-24.64-6.76-41.05-33.11-35.23-58.01,4.61-18.81,18.39-34.56,33.26-46.04,29.44-22.28,65.79-32.15,102.49-32.93,35.76-.55,65.86,15.93,81.97,48.62,6.56,12.86,10.89,26.85,14.56,40.75,2.88,10.91,5.09,22.88,6.66,34.05l.81,6.87,.39,3.43c.34,3.84,.56,6.87,.85,10.31,.11,2.92,.59,10.59,.56,13.75,1.29,58.73-13.92,117.06-38.94,169.92-12.48,25.76-42.2,66-42.2,66,83.21-66.63,148.84-144.72,196.19-240.85,53.64-107.03,78.38-226.52,88.27-345.4,3.69-58.59,5.09-137.87-30.39-186.67-14.2-19.31-36.15-30.42-60.22-29.52-30.1,.98-60.91,17.27-76.51,43.55-12.57,20.86-12.32,48.95,1.65,69.18,6.81,10.09,17.13,17.61,29.39,18.92,23.37,3.05,56.14-10.28,62.25-34.97,1.49-6.38,.67-13.29-1.87-19.56,1.57,2.99,2.86,6.19,3.55,9.57,3.92,18.01-9.25,34.44-23.92,43.24-16.74,10.11-38.5,14.95-57.27,7.31-15.62-6.79-26.69-21.09-32.6-36.66-8.03-20.8-6.24-45.23,4.18-65.02C438.22,24.78,473.93,3.32,510.78,.32c50.1-4,86.14,29.74,103.5,73.94,25.31,66.03,21.94,138.42,15.43,207.23-18.14,180.11-79.66,353.79-217.31,477.27-30.27,27.57-115.01,89.63-115.01,89.63,16.53-29.07,33.73-58.78,44.8-90.27,3.62-9.88,6.91-20.27,9.61-30.4,13.86-51.34,16.48-105.76,7.95-158.11-3.19-18.91-7.83-37.88-14.34-55.91-1.34-3.88-2.97-8.04-4.68-11.76-2.75-5.92-6.26-11.6-9.94-16.92-10.21-15-23.22-28.89-40.51-35.71-23.28-9.55-50.5-3.79-71.82,8.39-17.99,10.44-32.37,25.99-39.17,45.03-3.71,9.34-3.35,20.34,1.93,28.85,4.49,7.6,12.03,12.92,20.62,14.44,49.61,9.86,103.47-29.1,125.1-73.15,28.43-57.9,55.87-117.62,56.96-182.45,1.41-62.77-20.74-125.32-62.51-172.19-20.3-22.65-44.81-42.65-73.24-53.57-6.77-2.6-13.5-4.16-20.63-5.04-45.21-6.5-93.15,2.83-130.09,30.42-18.83,13.76-34.68,31.74-46.87,51.63-30.77,51.15-47.02,126.85-12.2,179.6,22.5,33.56,62.9,48.94,101.71,54.4,23.87,3.37,48.61,2.24,71.65-5.04,38-11.81,72.05-41.99,81.71-81.45,8.38-35.56-8.59-64.01-45.7-68.75-32.44-5.59-68.22,7.13-81.68,38.93-6.43,14.93-5.77,33.41,4.6,46.44,7.52,9.39,19.33,17.12,31.79,15.7,12.54-1.55,22.56-11.12,29.12-21.38h0Z"/></g></svg>