<svg class="drop-cap" xmlns="http://www.w3.org/2000/svg" viewBox="0 0 2000 2000">
	<path class="bp inner" d="M546.36,655.82c-15.2,24.69-38.62,47.73-68.45,51.95-30.14,3.92-59.01-14.09-77.75-36.48-26.05-31.31-28.66-76.83-13.65-113.74,31.56-79.14,119.16-112.24,199.48-100.46,96,10.06,141.83,84.87,122.55,176.59-21.81,100.64-105.76,179.14-201.27,211.64-57.7,20-119.86,24.69-180.26,17.92-100.83-10.92-206.29-50.08-267.34-135.68C-37.71,588.49-1.64,396.61,72.62,255.26,131.43,143.44,233.48,51.81,357.64,20.13,424.92,2.03,495.34,1.04,563.59,12.37c4.38,.75,12.87,2.51,17.16,3.61,168.69,46.17,307.05,212.63,362.8,373.35,56.18,157.07,43.63,335.55-11.25,491.41-23.28,70.11-65.68,159.56-91.39,206.96-22.05,40.66-55.99,81.09-89.44,111.88-78.2,71.13-190.75,116.45-296.2,87.54-58.08-15.93-96.77-78.05-83.04-136.76,10.87-44.35,43.35-81.48,78.41-108.54,69.41-52.53,155.1-75.8,241.62-77.63,84.31-1.29,155.25,37.55,193.24,114.61,15.45,30.32,25.67,63.29,34.33,96.07,6.79,25.71,12,53.93,15.71,80.26l1.9,16.19,.93,8.09c.79,9.05,1.31,16.19,2,24.31,.27,6.89,1.39,24.97,1.32,32.42,3.03,138.45-32.8,275.96-91.8,400.57-29.42,60.73-99.47,155.59-99.47,155.59,196.15-157.07,350.89-341.17,462.5-567.78,126.45-252.3,184.78-534,208.09-814.25,8.7-138.12,11.99-325-71.64-440.06C1315.88,24.68,1264.14-1.51,1207.39,.62c-70.95,2.31-143.6,40.7-180.36,102.66-29.62,49.18-29.04,115.39,3.89,163.09,16.05,23.79,40.39,41.52,69.28,44.61,55.1,7.19,132.35-24.24,146.74-82.45,3.52-15.05,1.58-31.33-4.41-46.11" fill="none" stroke="#000" stroke-linecap="round" stroke-linejoin="round" stroke-miterlimit="10"/>
</svg>
