<?xml version="1.0" encoding="UTF-8"?><svg id="Layer_2" xmlns="http://www.w3.org/2000/svg" viewBox="0 0 605.38 805.78"><defs><style>.cls-1{fill:none;stroke:#ef3824;stroke-miterlimit:10;}</style></defs><g id="Layer_1-2"><path class="cls-1" d="M232.05,278.48c-6.45,10.47-16.38,20.25-29.04,22.04-12.78,1.66-25.03-5.98-32.98-15.48-11.05-13.28-12.16-32.59-5.79-48.25,13.39-33.57,50.55-47.61,84.62-42.62,40.72,4.27,60.17,36,51.98,74.91-9.25,42.69-44.86,75.99-85.38,89.78-24.48,8.48-50.84,10.47-76.47,7.6-42.77-4.63-87.51-21.24-113.4-57.55C-15.71,249.92-.41,168.53,31.09,108.57,56.04,61.13,99.33,22.27,152,8.83c28.54-7.68,58.41-8.1,87.36-3.29,1.86,.32,5.46,1.07,7.28,1.53,71.56,19.59,130.25,90.2,153.9,158.38,23.83,66.63,18.51,142.34-4.77,208.45-9.88,29.74-27.86,67.68-38.77,87.79-9.35,17.25-23.75,34.4-37.94,47.46-33.17,30.17-80.91,49.4-125.65,37.14-24.64-6.76-41.05-33.11-35.23-58.01,4.61-18.81,18.39-34.56,33.26-46.04,29.44-22.28,65.79-32.15,102.49-32.93,35.76-.55,65.86,15.93,81.97,48.62,6.56,12.86,10.89,26.85,14.56,40.75,2.88,10.91,5.09,22.88,6.66,34.05l.81,6.87,.39,3.43c.34,3.84,.56,6.87,.85,10.31,.11,2.92,.59,10.59,.56,13.75,1.29,58.73-13.92,117.06-38.94,169.92-12.48,25.76-42.2,66-42.2,66,83.21-66.63,148.84-144.72,196.19-240.85,53.64-107.03,78.38-226.52,88.27-345.4,3.69-58.59,5.09-137.87-30.39-186.67-14.2-19.31-36.15-30.42-60.22-29.52-30.1,.98-60.91,17.27-76.51,43.55-12.57,20.86-12.32,48.95,1.65,69.18,6.81,10.09,17.13,17.61,29.39,18.92,23.37,3.05,56.14-10.28,62.25-34.97,1.49-6.38,.67-13.29-1.87-19.56"/></g></svg>