<svg class="drop-cap" xmlns="http://www.w3.org/2000/svg" viewBox="0 0 2000 2000">
	<path class="bp inner" d="M1198.35,234.64c3.71,7.05,6.73,14.59,8.36,22.55,9.23,42.46-21.8,81.18-56.38,101.94-39.47,23.84-90.77,35.25-135,17.22-36.82-16-62.92-49.71-76.85-86.42-18.93-49.04-14.7-106.61,9.84-153.27C989.38,58.91,1073.56,8.33,1160.43,1.26c118.11-9.43,203.07,70.11,244,174.31,59.66,155.66,51.71,326.32,36.36,488.52-42.77,424.59-187.79,834.02-512.28,1125.12-71.37,65-271.13,211.29-271.13,211.29,38.96-68.53,79.52-138.57,105.62-212.8,8.53-23.3,16.28-47.79,22.66-71.67,32.68-121.02,38.86-249.31,18.74-372.72-7.51-44.57-18.45-89.3-33.8-131.8-3.16-9.14-6.99-18.96-11.03-27.72-6.49-13.96-14.76-27.34-23.43-39.88-24.07-35.35-54.75-68.09-95.51-84.19-54.88-22.52-119.05-8.94-169.32,19.77-42.42,24.62-76.31,61.27-92.34,106.15-8.76,22.02-7.9,47.95,4.54,68,10.59,17.92,28.35,30.47,48.6,34.05,116.95,23.24,243.92-68.6,294.91-172.43,67.03-136.5,131.71-277.28,134.27-430.1,3.32-147.98-48.9-295.43-147.36-405.92-47.85-53.39-105.63-100.55-172.65-126.28-15.97-6.14-31.82-9.8-48.63-11.87-106.59-15.33-219.59,6.67-306.68,71.71-44.38,32.44-81.76,74.81-110.5,121.71C2.95,455.08-35.35,633.54,46.72,757.9c53.05,79.11,148.28,115.38,239.77,128.24,56.28,7.94,114.6,5.29,168.9-11.88,89.59-27.85,169.86-98.99,192.63-192,19.76-83.82-20.26-150.89-107.73-162.07-76.47-13.18-160.81,16.8-192.54,91.77-15.15,35.19-13.6,78.76,10.85,109.48,17.72,22.14,45.56,40.35,74.95,37,29.56-3.66,53.17-26.2,68.65-50.39h0" fill="none" stroke="#000" stroke-linecap="round" stroke-linejoin="round" stroke-miterlimit="10"/>
</svg>
