<?xml version="1.0" encoding="UTF-8"?><svg id="Layer_2" xmlns="http://www.w3.org/2000/svg" viewBox="0 0 616.64 850.68"><defs><style>.cls-1{fill:none;stroke:#ef3824;stroke-miterlimit:10;}</style></defs><g id="Layer_1-2"><path class="cls-1" d="M508.63,99.82c1.57,2.99,2.86,6.19,3.55,9.57,3.92,18.01-9.25,34.44-23.92,43.24-16.74,10.11-38.5,14.95-57.27,7.31-15.62-6.79-26.69-21.09-32.6-36.66-8.03-20.8-6.24-45.23,4.18-65.02C419.98,25.28,455.69,3.82,492.54,.82c50.1-4,86.14,29.74,103.5,73.94,25.31,66.03,21.94,138.42,15.43,207.23-18.14,180.11-79.66,353.79-217.31,477.27-30.27,27.57-115.01,89.63-115.01,89.63,16.53-29.07,33.73-58.78,44.8-90.27,3.62-9.88,6.91-20.27,9.61-30.4,13.86-51.34,16.48-105.76,7.95-158.11-3.19-18.91-7.83-37.88-14.34-55.91-1.34-3.88-2.97-8.04-4.68-11.76-2.75-5.92-6.26-11.6-9.94-16.92-10.21-15-23.22-28.89-40.51-35.71-23.28-9.55-50.5-3.79-71.82,8.39-17.99,10.44-32.37,25.99-39.17,45.03-3.71,9.34-3.35,20.34,1.93,28.85,4.49,7.6,12.03,12.92,20.62,14.44,49.61,9.86,103.47-29.1,125.1-73.15,28.43-57.9,55.87-117.62,56.96-182.45,1.41-62.77-20.74-125.32-62.51-172.19-20.3-22.65-44.81-42.65-73.24-53.57-6.77-2.6-13.5-4.16-20.63-5.04-45.21-6.5-93.15,2.83-130.09,30.42-18.83,13.76-34.68,31.74-46.87,51.63C1.54,193.33-14.71,269.03,20.11,321.79c22.5,33.56,62.9,48.94,101.71,54.4,23.87,3.37,48.61,2.24,71.65-5.04,38-11.81,72.05-41.99,81.71-81.45,8.38-35.56-8.59-64.01-45.7-68.75-32.44-5.59-68.22,7.13-81.68,38.93-6.43,14.93-5.77,33.41,4.6,46.44,7.52,9.39,19.33,17.12,31.79,15.7,12.54-1.55,22.56-11.12,29.12-21.38h0"/></g></svg>