<svg class="drop-cap uppercase-L" viewBox="0 0 2000 2000" xmlns="http://www.w3.org/2000/svg">
<path class="bp inner" d="m 98.351752,291.80835 c 1.57995,0.57853 3.245118,0.82359 4.902348,0.90828 1.65987,0.0789 3.32345,-0.0169 4.9722,-0.2043 3.29912,-0.39699 6.55005,-1.12318 9.75335,-2.01609 3.2033,-0.89716 6.36056,-1.96263 9.48446,-3.1181 3.12708,-1.14539 6.22135,-2.39029 9.28915,-3.69608 12.27387,-5.22839 24.19732,-11.29042 35.97788,-17.60122 11.78107,-6.31821 23.4023,-12.94817 34.94308,-19.71999 11.53761,-6.77765 22.99106,-13.7072 34.38363,-20.74101 22.77827,-14.07718 45.36811,-28.48197 67.80181,-43.13289 22.41518,-14.66205 44.78218,-29.48129 66.86866,-44.56836 l 0.17202,-0.11702 0.13923,-0.0821 c 15.57297,-9.09438 31.07235,-18.51321 46.37378,-28.14218 15.29931,-9.649599 30.42924,-19.565969 45.17492,-29.974049 7.36886,-5.20563 14.64087,-10.53935 21.69533,-16.10649 7.04493,-5.56344 13.93161,-11.34388 20.16567,-17.59488 3.0932,-3.12496 6.05409,-6.38913 8.39622,-9.82955 1.15704,-1.70751 2.16006,-3.48384 2.71582,-5.13523 0.27735,-0.81883 0.4282,-1.59477 0.42768,-2.21193 0.001,-0.628283 -0.11538,-1.053307 -0.33612,-1.440222 -0.21859,-0.38585 -0.61186,-0.795 -1.2195,-1.189327 -0.60233,-0.392211 -1.38569,-0.746838 -2.2532,-1.030017 -0.8797,-0.279999 -1.7885,-0.504949 -2.73171,-0.638332 -0.93843,-0.143435 -1.90176,-0.22441 -2.88519,-0.22654 -3.93427,-0.04231 -8.06118,0.906687 -12.07484,2.304565 -4.02636,1.410571 -7.96167,3.308623 -11.79748,5.430583 -3.83634,2.12935 -7.57847,4.49742 -11.2338,7.01794 -7.31699,5.03943 -14.27723,10.68544 -21.04164,16.56433 -13.51241,11.79907 -26.09061,24.74567 -38.06065,38.20673 -23.92844,26.965539 -45.38612,56.117599 -65.27919,86.066769 -9.91107,14.99921 -19.45376,30.21541 -28.32159,45.67457 -1.11417,1.92823 -2.21141,3.86335 -3.29646,5.80215 l -1.67788,2.98683 c -0.57905,1.01572 -1.14221,2.0399 -1.7345,3.04875 -2.32942,4.05705 -4.7896,8.04107 -7.30799,11.99068 -5.06378,7.88122 -10.49225,15.54491 -16.28858,22.92964 -11.57412,14.78326 -24.66043,28.41847 -38.97315,40.56899 -14.29312,12.18016 -29.84543,22.7915 -46.08954,31.98008 -16.25416,9.18595 -33.21705,16.94279 -50.56528,23.45578 -4.34022,1.6223 -8.69686,3.18954 -13.08261,4.66046 -4.38523,1.46668 -8.73763,2.86508 -13.1456,4.21319 -8.79744,2.70418 -17.70709,5.12835 -26.73266,7.19367 -9.031908,2.0415 -18.183438,3.73155 -27.486888,4.74727 -9.29815,0.99614 -18.75509,1.41586 -28.29036,0.50865 -4.76208,-0.45838 -9.5448,-1.2375 -14.25183,-2.56444 -2.35166,-0.66162 -4.69116,-1.42276 -6.98194,-2.36385 -2.28815,-0.94214 -4.53344,-2.03196 -6.70143,-3.28586 -4.338115,-2.49564 -8.328478,-5.7307 -11.653518,-9.53316 -3.3515068,-3.78924 -5.9720498,-8.14587 -7.9537348,-12.67983 l -0.101575,-0.23289 -0.06617,-0.2149 c -1.50531903,-4.87481 -2.48929003,-10.05504 -2.36120303,-15.41257 0.06932,-2.67136 0.392751,-5.37765 1.07130703,-8.02784 0.67062,-2.65019 1.682633,-5.23951 3.011689,-7.65468 2.660782,-4.84307 6.5749268,-8.90224 11.0104338,-11.89436 4.437083,-3.01751 9.346301,-5.0876 14.359271,-6.42989 5.01615,-1.35818 10.15984,-1.98221 15.28396,-2.04679 5.12677,-0.0641 10.24348,0.46314 15.26015,1.51749 10.02487,2.10131 19.68877,6.42461 27.94897,12.8979 l -0.55417,-0.4065 c 3.15937,2.01185 5.73863,4.20261 8.20251,6.40979 2.44164,2.22039 4.734018,4.47148 6.963418,6.74535 4.45508,4.54295 8.69527,9.12506 12.90001,13.70295 l 24.89175,27.27306 c 8.24539,9.01761 16.46218,17.98549 25.04472,26.55321 8.56137,8.58148 17.41702,16.82368 26.60933,24.61069 18.36022,15.60419 38.05957,29.40877 58.94931,40.90774 20.8977,11.46933 43.05192,20.55893 66.16207,26.59819 l -0.84741,-0.15243 c 4.96533,0.78494 9.92378,1.35924 14.81871,1.60589 4.89123,0.24718 9.72687,0.16037 14.35452,-0.43615 4.61917,-0.60709 9.02873,-1.7292 12.89207,-3.61615 3.87181,-1.87212 7.16827,-4.52019 9.71736,-8.00613 2.55808,-3.47536 4.32012,-7.7886 5.39088,-12.47605 1.05806,-4.69487 1.45186,-9.73165 1.40634,-14.84041 -0.0301,-5.11723 -0.50283,-10.31758 -1.17768,-15.54014 -0.34617,-2.61049 -0.73679,-5.23157 -1.15546,-7.86164 -0.19849,-1.31848 -0.41603,-2.63643 -0.59916,-3.96762 -0.12235,-1.21856 -0.15039,-3.56957 -0.15039,-3.56957"/>
</svg>