<svg class="drop-cap uppercase-L" viewBox="0 0 2000 2000" xmlns="http://www.w3.org/2000/svg">
<path class="bp inner" d="M372.35,1102.79c5.97,2.18,12.25,3.11,18.51,3.43,6.27,.3,12.55-.06,18.77-.77,12.45-1.5,24.73-4.24,36.83-7.61,12.1-3.39,24.02-7.41,35.81-11.77,11.81-4.32,23.49-9.02,35.07-13.95,46.34-19.74,91.36-42.63,135.84-66.46,44.48-23.86,88.36-48.89,131.93-74.46,43.56-25.59,86.81-51.75,129.82-78.31,86.01-53.15,171.3-107.54,256-162.86,84.63-55.36,169.09-111.32,252.48-168.28l.65-.44,.53-.31c58.8-34.34,117.32-69.9,175.09-106.26,57.77-36.43,114.9-73.88,170.57-113.17,27.82-19.66,55.28-39.79,81.91-60.81,26.6-21.01,52.6-42.83,76.14-66.43,11.68-11.8,22.86-24.12,31.7-37.11,4.37-6.45,8.15-13.16,10.26-19.39,1.04-3.09,1.61-6.02,1.61-8.35,0-2.37-.44-3.98-1.27-5.44-.83-1.46-2.31-3-4.6-4.49-2.27-1.48-5.23-2.82-8.51-3.89-3.32-1.06-6.75-1.91-10.31-2.41-3.54-.54-7.18-.85-10.89-.86-14.86-.16-30.44,3.42-45.59,8.7-15.2,5.33-30.06,12.49-44.54,20.5-14.49,8.04-28.61,16.98-42.42,26.5-27.63,19.03-53.91,40.35-79.45,62.54-51.02,44.55-98.51,93.43-143.71,144.26-90.35,101.81-171.37,211.88-246.48,324.97-37.42,56.63-73.45,114.08-106.93,172.46-4.21,7.28-8.35,14.59-12.45,21.91l-6.34,11.28c-2.18,3.84-4.31,7.7-6.55,11.51-8.8,15.32-18.09,30.36-27.59,45.27-19.12,29.76-39.62,58.69-61.5,86.58-43.7,55.82-93.11,107.3-147.15,153.18-53.97,45.99-112.69,86.05-174.02,120.75-61.37,34.68-125.42,63.97-190.92,88.56-16.39,6.13-32.84,12.04-49.4,17.6-16.56,5.54-32.99,10.82-49.63,15.91-33.22,10.21-66.86,19.36-100.94,27.16-34.1,7.71-68.66,14.09-103.78,17.92-35.11,3.76-70.81,5.35-106.82,1.92-17.98-1.73-36.04-4.67-53.81-9.68-8.88-2.5-17.71-5.37-26.36-8.93-8.64-3.56-17.12-7.67-25.3-12.41-16.38-9.42-31.45-21.64-44-36-12.65-14.31-22.55-30.76-30.03-47.88l-.38-.88-.25-.81c-5.68-18.41-9.4-37.97-8.91-58.19,.26-10.09,1.48-20.3,4.04-30.31,2.54-10,6.36-19.78,11.37-28.9,10.05-18.29,24.82-33.61,41.57-44.91,16.75-11.39,35.29-19.21,54.22-24.28,18.94-5.13,38.36-7.48,57.71-7.73,19.36-.24,38.68,1.75,57.62,5.73,37.85,7.94,74.34,24.26,105.53,48.7l-2.09-1.53c11.93,7.6,21.67,15.87,30.97,24.2,9.22,8.38,17.88,16.88,26.29,25.47,16.82,17.15,32.83,34.46,48.71,51.74l93.98,102.98c31.13,34.05,62.16,67.91,94.56,100.26,32.33,32.4,65.76,63.52,100.47,92.92,69.32,58.92,143.7,111.04,222.58,154.46,78.91,43.3,162.55,77.62,249.81,100.43l-3.2-.57c18.75,2.96,37.47,5.13,55.95,6.06,18.47,.93,36.73,.61,54.2-1.65,17.44-2.29,34.09-6.53,48.68-13.65,14.62-7.07,27.07-17.07,36.69-30.23,9.66-13.12,16.31-29.41,20.35-47.11,4-17.72,5.48-36.74,5.31-56.03-.12-19.32-1.9-38.96-4.45-58.68-1.31-9.86-2.78-19.75-4.36-29.68-.75-4.98-1.57-9.95-2.26-14.98-.34-2.52-.68-5.04-.89-7.59-.09-1.28-.17-2.57-.11-3.88,.05-.65,.07-1.33,.43-2.01,.17-.38,.73-.55,1.04-.38,.32,.13,.57,.34,.8,.56-.52-.3-1.32-.5-1.36,.05-.11,.5,.01,1.12,.14,1.7,.28,1.18,.69,2.35,1.11,3.52,.85,2.33,1.8,4.65,2.77,6.97l5.86,13.92c3.87,9.33,7.64,18.75,11.07,28.34,6.92,19.16,12.69,38.94,16.65,59.45,3.86,20.5,5.98,41.81,4.48,63.77-1.42,21.87-6.74,44.7-18.17,65.72-5.67,10.48-12.85,20.36-21.21,29.13-8.35,8.78-17.87,16.4-27.93,22.8-20.23,12.78-42.36,20.64-64.23,25.5-21.94,4.88-43.83,6.88-65.37,7.34-21.55,.43-42.79-.77-63.74-2.92l-.72-.07-2.48-.5c-94.47-19.07-186.34-52.5-271.25-98.15-85.06-45.53-163.12-102.68-234.44-166.06-35.75-31.65-69.77-64.99-102.62-99.22-32.77-34.31-64.49-69.45-94.49-105.77-15.01-18.15-29.64-36.54-44.01-55.05l-42.62-55.49c-7.06-9.19-14.18-18.32-21.31-27.32-7.13-9.02-14.33-17.92-21.65-26.52-7.33-8.59-14.74-16.99-22.35-24.73-7.55-7.73-15.41-14.89-22.91-20.2l-1.78-1.26-.32-.27c-24.11-20.87-53.79-36.07-85.49-44.28-31.63-8.22-65.52-9.8-97.01-2.62-15.68,3.64-30.68,9.53-43.73,17.88-12.97,8.43-23.89,19.35-31.23,32.33-7.28,13-11.14,27.88-11.47,43.41-.34,15.54,2.63,31.55,7.53,47.21l-.63-1.69c6.42,14.15,14.49,27.35,24.77,38.55,5.1,5.63,10.65,10.82,16.6,15.53,5.96,4.72,12.4,8.85,19.11,12.56,13.43,7.44,28.16,12.86,43.52,16.6,15.35,3.78,31.32,5.86,47.47,6.86,16.17,.97,32.54,.67,48.94-.41,16.41-1.08,32.84-3.04,49.24-5.64,32.8-5.16,65.43-12.79,97.77-21.72,32.35-8.97,64.41-19.36,96.28-30.53,15.9-5.59,31.87-11.44,47.57-17.43,15.68-6.03,31.25-12.28,46.65-18.93,61.61-26.53,120.78-58.19,176.58-94.56,55.82-36.35,108.26-77.29,157.19-121.79,48.92-44.52,94.33-92.71,135.82-144.2,20.81-25.7,40.48-52.34,59.25-79.65,9.35-13.68,18.47-27.53,27.36-41.55,2.25-3.49,4.4-7.04,6.6-10.56l6.7-10.86c4.58-7.45,9.19-14.86,13.86-22.23,37.51-58.83,77.89-115.23,120.06-170.12,42.22-54.84,86.05-108.27,131.4-160.33,45.29-52.1,91.81-103.07,139.92-152.55,48.18-49.4,97.81-97.49,150.68-142.32,26.48-22.36,53.91-43.75,82.9-63.32,14.49-9.79,29.42-19.06,44.97-27.5,15.55-8.42,31.74-16.02,48.88-22.01,17.15-5.86,35.43-10.26,54.92-10.04,4.85,.04,9.77,.45,14.69,1.22,4.92,.73,9.83,1.93,14.66,3.5,4.84,1.63,9.81,3.71,14.74,6.88,4.88,3.14,9.84,7.6,13.3,13.59,3.52,5.94,5.04,12.99,4.95,19.16-.04,6.25-1.33,11.79-2.99,16.81-3.41,10.02-8.3,18.27-13.47,26.01-10.47,15.34-22.4,28.51-34.69,41.15-12.33,12.57-25.15,24.41-38.21,35.88-13.07,11.46-26.35,22.58-39.82,33.43-26.95,21.68-54.46,42.47-82.28,62.76-55.7,40.53-112.65,79.06-170.18,116.64-28.79,18.76-57.71,37.29-86.85,55.49-29.16,18.22-58.33,36.19-88.02,53.83l1.18-.75c-41.7,29.2-83.62,57.66-125.78,85.95-21.1,14.1-42.24,28.13-63.43,42.09-21.21,13.93-42.5,27.74-63.82,41.5-85.37,54.92-171.6,108.54-259.37,159.7-43.88,25.57-88.11,50.59-132.84,74.73-44.73,24.13-89.95,47.43-135.92,69.29-46,21.74-92.69,42.29-140.85,59.19-24.1,8.35-48.58,15.84-73.69,20.85-12.55,2.46-25.26,4.38-38.08,4.74-6.41,.17-12.84-.02-19.18-.88-6.34-.85-12.62-2.45-18.34-5.2Z"/>
</svg>