<svg class="drop-cap uppercase-L" viewBox="0 0 2000 2000" xmlns="http://www.w3.org/2000/svg">
<path class="bp inner" d="m 98.351819,291.80756 c 1.57995,0.57852 3.245121,0.82359 4.902341,0.90827 1.65988,0.0789 3.32346,-0.0169 4.97221,-0.20431 3.29911,-0.39697 6.55005,-1.12316 9.75335,-2.01609 3.2033,-0.89715 6.36055,-1.96263 9.48446,-3.11808 3.12709,-1.1454 6.22135,-2.3903 9.28916,-3.69608 12.27385,-5.22839 24.19731,-11.29042 35.97786,-17.60122 11.78108,-6.31821 23.40232,-12.94818 34.9431,-19.72 11.5376,-6.77764 22.99105,-13.70719 34.38362,-20.74101 22.77828,-14.07717 45.36812,-28.48197 67.80182,-43.1329 22.41517,-14.66204 44.78218,-29.48128 66.86867,-44.56835 l 0.17202,-0.11697 0.1392,-0.082 c 15.57296,-9.09437 31.07235,-18.5132 46.37378,-28.14217 15.29932,-9.649599 30.42925,-19.565968 45.17492,-29.974054 7.36887,-5.20563 14.64087,-10.539351 21.69534,-16.106491 7.04493,-5.563434 13.93161,-11.343881 20.16566,-17.594872 3.09321,-3.124966 6.05409,-6.389137 8.39623,-9.829564 1.15704,-1.707511 2.16006,-3.48383 2.71582,-5.135235 0.27735,-0.818821 0.4282,-1.59477 0.42767,-2.211929 0.002,-0.628275 -0.11538,-1.0533 -0.3361,-1.440216 -0.2186,-0.385857 -0.61187,-0.795003 -1.2195,-1.189329 -0.60234,-0.392209 -1.3857,-0.746837 -2.25321,-1.030011 -0.87969,-0.279998 -1.7885,-0.504949 -2.7317,-0.638332 -0.93845,-0.143439 -1.90177,-0.224421 -2.8852,-0.226538 -3.93426,-0.04234 -8.06118,0.906684 -12.07484,2.304556 -4.02636,1.410575 -7.96168,3.308632 -11.79749,5.430582 -3.83634,2.129359 -7.57846,4.497432 -11.23378,7.017941 -7.317,5.039432 -14.27725,10.685437 -21.04166,16.564333 -13.5124,11.799076 -26.09061,24.745668 -38.06064,38.206735 -23.92844,26.965534 -45.38612,56.117594 -65.27919,86.066774 -9.91108,14.99921 -19.45377,30.21542 -28.3216,45.67458 -1.11417,1.92823 -2.2114,3.86334 -3.29646,5.80215 l -1.67787,2.98682 c -0.57905,1.01572 -1.14222,2.03991 -1.7345,3.04875 -2.32944,4.05706 -4.7896,8.04107 -7.308,11.99068 -5.06378,7.88122 -10.49224,15.54491 -16.28857,22.92965 -11.57412,14.78325 -24.66045,28.41846 -38.97315,40.56899 -14.29312,12.18017 -29.84544,22.7915 -46.08955,31.98009 -16.25416,9.18594 -33.21706,16.94278 -50.56528,23.45577 -4.34023,1.62229 -8.69687,3.18954 -13.08262,4.66046 -4.38522,1.46668 -8.73762,2.86508 -13.1456,4.2132 -8.79744,2.70417 -17.70709,5.12835 -26.73265,7.19366 -9.031915,2.0415 -18.183451,3.73154 -27.486895,4.74726 -9.298151,0.99614 -18.75509,1.41587 -28.290366,0.50866 -4.76208,-0.45837 -9.544803,-1.2375 -14.251836,-2.56444 -2.351664,-0.66163 -4.691154,-1.42275 -6.981949,-2.36384 -2.288149,-0.94215 -4.533424,-2.03197 -6.701422,-3.28587 -4.338114,-2.49564 -8.32848,-5.7307 -11.653521,-9.53316 -3.3515047,-3.78924 -5.9720517,-8.14588 -7.9537367,-12.67983 l -0.101625,-0.23289 -0.06616,-0.21489 c -1.50531996,-4.87482 -2.48928196,-10.05505 -2.36119196,-15.41259 0.06934,-2.67136 0.392738,-5.37765 1.07129596,-8.02784 0.670619,-2.65018 1.682634,-5.2395 3.011697,-7.65468 2.660773,-4.84306 6.5749197,-8.90224 11.0104247,-11.89435 4.437092,-3.01752 9.346317,-5.0876 14.359283,-6.42989 5.016142,-1.35818 10.159845,-1.98222 15.283964,-2.04679 5.126766,-0.0641 10.243475,0.46313 15.260146,1.51749 10.024875,2.10131 19.68877,6.4246 27.94897,12.89789 l -0.554173,-0.40649 c 3.15937,2.01185 5.738632,4.20261 8.202507,6.40978 2.441644,2.22039 4.734028,4.47149 6.963428,6.74535 4.45508,4.54295 8.69528,9.12507 12.90001,13.70295 l 24.89175,27.27306 c 8.24538,9.01763 16.46218,17.9855 25.04472,26.55322 8.56137,8.58148 17.41703,16.82369 26.60932,24.6107 18.36024,15.60418 38.05959,29.40876 58.94933,40.90773 20.89769,11.46932 43.05192,20.55893 66.16206,26.59821 l -0.8474,-0.15244 c 4.96533,0.78494 9.92378,1.35923 14.81871,1.60588 4.89123,0.24718 9.72688,0.16038 14.35452,-0.43614 4.61917,-0.6071 9.02874,-1.72921 12.89207,-3.61615 3.87181,-1.87212 7.16826,-4.52019 9.71736,-8.00614 2.55809,-3.47536 4.32011,-7.7886 5.39088,-12.47605 1.05806,-4.69485 1.45186,-9.73164 1.40634,-14.84041 -0.0302,-5.11724 -0.50283,-10.31757 -1.17768,-15.54014 -0.34616,-2.61049 -0.73678,-5.23157 -1.15546,-7.86164 -0.19848,-1.31848 -0.41602,-2.63643 -0.59916,-3.96761 -0.09,-0.66585 -0.1789,-1.33383 -0.23607,-2.01027 -0.0243,-0.33928 -0.0455,-0.68014 -0.0291,-1.02789 0.0148,-0.17308 0.0196,-0.35198 0.11486,-0.53141 0.045,-0.10004 0.19213,-0.14609 0.27523,-0.0995 0.0852,0.0349 0.14979,0.091 0.21119,0.14661 -0.13814,-0.0799 -0.35092,-0.13126 -0.36098,0.0127 -0.0281,0.13126 0.003,0.2964 0.037,0.4499 0.0725,0.31281 0.18155,0.62404 0.29429,0.93262 0.22548,0.61822 0.4769,1.23167 0.73308,1.8446 l 1.55189,3.6876 c 1.02419,2.47023 2.02351,4.96586 2.93125,7.50596 1.83348,5.07542 3.36156,10.31228 4.41063,15.74498 1.02313,5.43058 1.58259,11.07182 1.18668,16.88879 -0.37739,5.79315 -1.78585,11.83983 -4.81236,17.40697 -1.50109,2.77616 -3.40391,5.39195 -5.61743,7.71503 -2.21246,2.32626 -4.73191,4.34499 -7.39903,6.03715 -5.35701,3.38432 -11.21844,5.46764 -17.01159,6.75436 -5.81168,1.29254 -11.60959,1.82077 -17.31382,1.94516 -5.70793,0.11433 -11.33223,-0.20378 -16.88032,-0.7733 l -0.19002,-0.0196 -0.65685,-0.13285 c -25.01985,-5.05055 -49.35213,-13.90356 -71.84194,-25.99534 -22.52792,-12.05949 -43.20171,-27.19525 -62.08965,-43.98136 -9.46753,-8.38193 -18.47774,-17.21272 -27.17884,-26.27851 -8.67941,-9.08696 -17.07987,-18.39358 -25.02673,-28.01248 -3.97501,-4.8076 -7.84999,-9.67872 -11.65563,-14.57894 L 104.0841,357.66421 c -1.87,-2.43529 -3.75483,-4.85153 -5.644418,-7.23601 -1.886942,-2.38924 -3.794526,-4.74514 -5.73281,-7.02429 -1.942518,-2.27386 -3.90409,-4.50008 -5.92018,-6.54952 -2.000741,-2.04784 -4.081935,-3.94273 -6.067855,-5.35065 l -0.470544,-0.33399 -0.08363,-0.0725 c -6.385433,-5.52798 -14.246544,-9.55381 -22.643302,-11.72868 -8.376646,-2.17806 -17.351926,-2.59567 -25.692579,-0.69444 -4.152331,0.96438 -8.124701,2.52315 -11.582065,4.73614 -3.435663,2.23416 -6.32721,5.12518 -8.271845,8.56243 -1.928757,3.44202 -2.9513567,7.38316 -3.0376327,11.49791 -0.08945,4.1174 0.698142,8.35706 1.9933307,12.50304 l -0.167787,-0.44673 c 1.699571,3.74795 3.837929,7.24448 6.559042,10.21013 1.349706,1.48944 2.819033,2.86402 4.397395,4.11211 1.577832,1.24914 3.283226,2.34372 5.059544,3.32768 3.556343,1.96951 7.459904,3.4055 11.527018,4.39687 4.064468,1.0009 8.295663,1.55137 12.57185,1.8176 4.281478,0.25777 8.617475,0.17785 12.961411,-0.10797 4.344995,-0.2853 8.698458,-0.80401 13.041335,-1.49368 8.687872,-1.36558 17.328637,-3.38591 25.893712,-5.7508 8.56825,-2.37496 17.06028,-5.1273 25.50045,-8.0866 4.21161,-1.48097 8.43963,-3.03075 12.59778,-4.61758 4.1518,-1.59689 8.27767,-3.252 12.3559,-5.01296 16.31715,-7.02589 31.98909,-15.41153 46.76598,-25.0442 14.78325,-9.62684 28.67305,-20.47054 41.63129,-32.25638 12.9577,-11.79272 24.98279,-24.55459 35.97363,-38.19139 5.50998,-6.80675 10.72143,-13.86227 15.69258,-21.09669 2.47605,-3.62357 4.89282,-7.29159 7.24607,-11.00566 0.59493,-0.92363 1.16392,-1.86472 1.74774,-2.79628 l 1.77526,-2.87567 c 1.21262,-1.97268 2.43476,-3.93584 3.6712,-5.88683 9.93436,-15.58196 20.62986,-30.51976 31.79854,-45.05583 11.18298,-14.52337 22.79151,-28.67464 34.80124,-42.46334 11.99439,-13.79929 24.31641,-27.29846 37.05869,-40.402785 12.76028,-13.084209 25.90377,-25.82014 39.90684,-37.693317 7.01318,-5.922298 14.27777,-11.587358 21.95627,-16.770229 3.8374,-2.592494 7.79231,-5.047371 11.91076,-7.283119 4.11846,-2.230985 8.40576,-4.241253 12.94606,-5.829142 4.54137,-1.552956 9.3839,-2.717408 14.54613,-2.658127 1.28513,0.0095 2.58879,0.118562 3.89033,0.322342 1.3026,0.192663 2.60361,0.511829 3.88186,0.927327 1.28195,0.431377 2.59884,0.982374 3.90356,1.822368 1.29201,0.832054 2.6052,2.013443 3.52247,3.599745 0.93209,1.573069 1.33382,3.440427 1.31106,5.075423 -0.009,1.65511 -0.35145,3.123908 -0.79077,4.453501 -0.9035,2.652304 -2.19869,4.839357 -3.56692,6.889322 -2.77405,4.062351 -5.93289,7.552002 -9.18647,10.897156 -3.2647,3.330333 -6.66067,6.464297 -10.11962,9.502458 -3.4616,3.034986 -6.98036,5.979462 -10.54676,8.852484 -7.13651,5.740749 -14.42333,11.24702 -21.7922,16.622555 -14.75202,10.733073 -29.83485,20.940028 -45.07329,30.891328 -7.62505,4.96851 -15.28503,9.87667 -23.00217,14.69645 -7.72243,4.82612 -15.44805,9.58344 -23.3118,14.25607 l 0.31122,-0.19902 c -11.04377,7.73302 -22.14576,15.27232 -33.31286,22.76451 -5.58778,3.73419 -11.18774,7.44985 -16.79934,11.14646 -5.61795,3.68866 -11.25654,7.34663 -16.90308,10.99137 -22.6089,14.54453 -45.44804,28.74715 -68.69262,42.29661 -11.62282,6.7734 -23.33668,13.39808 -35.18287,19.79304 -11.84777,6.39178 -23.82416,12.56126 -35.99745,18.35018 -12.18334,5.75874 -24.54771,11.2015 -37.30375,15.6767 -6.38279,2.21246 -12.86773,4.19679 -19.51781,5.52268 -3.32239,0.65209 -6.68978,1.16074 -10.08627,1.25496 -1.6964,0.0445 -3.39967,-0.006 -5.08019,-0.23395 -1.6784,-0.22601 -3.342508,-0.64998 -4.858942,-1.37723"/>
</svg>