<svg class="drop-cap uppercase-L" viewBox="0 0 2000 2000" xmlns="http://www.w3.org/2000/svg">
	<path class="bp inner" d="m 371.77569,425.16076 c 0,0 0.77405,2.29033 1.18991,3.28619 l 1.5519,3.68762 c 1.02419,2.47022 2.02351,4.96585 2.93124,7.50595 1.83348,5.07543 3.36156,10.31228 4.41063,15.74498 1.02314,5.43058 1.58261,11.07181 1.18669,16.88878 -0.37739,5.79315 -1.78584,11.83984 -4.81237,17.40697 -1.50109,2.77616 -3.4039,5.39195 -5.61742,7.71503 -2.21246,2.32626 -4.73191,4.345 -7.39904,6.03716 -5.357,3.38432 -11.21843,5.46763 -17.01159,6.75434 -5.81167,1.29256 -11.60957,1.82079 -17.31381,1.94517 -5.70794,0.11433 -11.33223,-0.20378 -16.88032,-0.7733 l -0.19002,-0.0195 -0.65685,-0.13278 c -25.01985,-5.05054 -49.35214,-13.90355 -71.84193,-25.99533 -22.52792,-12.05949 -43.20171,-27.19525 -62.08965,-43.98136 -9.46753,-8.38194 -18.47773,-17.21272 -27.17885,-26.27851 -8.6794,-9.08696 -17.07985,-18.39358 -25.02672,-28.01248 -3.97501,-4.8076 -7.85,-9.67871 -11.65563,-14.57894 L 104.08408,357.6643 c -1.87,-2.43529 -3.75482,-4.85153 -5.644418,-7.236 -1.88693,-2.38925 -3.79452,-4.74514 -5.7328,-7.02431 -1.94252,-2.27385 -3.90409,-4.50007 -5.92018,-6.54951 -2.00074,-2.04785 -4.08194,-3.94272 -6.06786,-5.35065 l -0.47055,-0.33399 -0.0836,-0.0725 c -6.38543,-5.52797 -14.24653,-9.55381 -22.64329,-11.72868 -8.37665,-2.17805 -17.35192,-2.59568 -25.69259,-0.69445 -4.15232,0.96438 -8.12468,2.52316 -11.582055,4.73616 -3.435663,2.23415 -6.327202,5.12516 -8.271843,8.56242 -1.928753,3.44202 -2.9513588,7.38316 -3.0376298,11.4979 -0.08942,4.1174 0.698136,8.35706 1.9933288,12.50304 l -0.167786,-0.44671 c 1.699571,3.74794 3.837925,7.24448 6.559038,10.21012 1.349701,1.48944 2.819041,2.86402 4.397397,4.1121 1.57784,1.24915 3.28323,2.34373 5.05954,3.32768 3.55636,1.96952 7.4599,3.40551 11.52703,4.39688 4.06446,1.00089 8.29565,1.55136 12.57183,1.8176 4.28148,0.25776 8.61749,0.17784 12.96143,-0.10803 4.34499,-0.28529 8.69845,-0.804 13.04133,-1.49367 8.68786,-1.36559 17.32863,-3.38591 25.893708,-5.75081 8.56824,-2.37496 17.06027,-5.12729 25.50044,-8.08659 4.21161,-1.48097 8.43963,-3.03076 12.59778,-4.61758 4.1518,-1.59688 8.27767,-3.252 12.35589,-5.01297 16.31716,-7.02587 31.98909,-15.41152 46.76599,-25.04418 14.78326,-9.62686 28.67305,-20.47054 41.63129,-32.25639 12.9577,-11.79273 24.98279,-24.55459 35.97363,-38.19139 5.50996,-6.80675 10.72142,-13.86227 15.69257,-21.0967 2.47606,-3.62355 4.89282,-7.29158 7.24607,-11.00565 0.59493,-0.92362 1.16393,-1.86471 1.74774,-2.79628 l 1.77526,-2.87566 c 1.21261,-1.97269 2.43477,-3.93586 3.67121,-5.88683 9.93435,-15.58197 20.62984,-30.51976 31.79854,-45.05584 11.18296,-14.52336 22.7915,-28.67464 34.80122,-42.46333 11.99439,-13.79929 24.31642,-27.29846 37.0587,-40.402779 12.76028,-13.08421 25.90378,-25.82014 39.90684,-37.69332 7.01317,-5.9223 14.27777,-11.58736 21.95627,-16.77022 3.8374,-2.5925 7.79231,-5.047376 11.91076,-7.28312 4.11845,-2.230987 8.40575,-4.241254 12.94606,-5.829139 4.54137,-1.552955 9.3839,-2.717421 14.54612,-2.658126 1.28514,0.009 2.5888,0.118529 3.89034,0.322339 1.30259,0.192662 2.6036,0.51182 3.88185,0.927317 1.28196,0.431386 2.59885,0.982381 3.90357,1.822377 1.29201,0.832044 2.60519,2.013433 3.52246,3.599742 0.93209,1.573061 1.33383,3.440419 1.31106,5.07541 -0.009,1.65512 -0.35144,3.12392 -0.79076,4.45352 -0.90351,2.6523 -2.1987,4.83934 -3.56693,6.88931 -2.77405,4.06235 -5.93288,7.55201 -9.18647,10.89715 -3.2647,3.33034 -6.66066,6.46431 -10.11962,9.50246 -3.46159,3.03499 -6.98036,5.97946 -10.54676,8.85249 -7.1365,5.74075 -14.42332,11.24701 -21.79219,16.62254 -14.75202,10.73308 -29.83486,20.940039 -45.0733,30.891329 -7.62505,4.96852 -15.28502,9.87668 -23.00217,14.69645 -7.72242,4.82613 -15.44804,9.58345 -23.3118,14.25608 l 0.31123,-0.19903 c -11.04376,7.73303 -22.14576,15.27232 -33.31285,22.76451 -5.58779,3.73419 -11.18775,7.44986 -16.79935,11.14646 -5.61795,3.68867 -11.25654,7.34663 -16.90307,10.99137 -22.60891,14.54453 -45.44805,28.74715 -68.69263,42.29661 -11.62281,6.7734 -23.33668,13.39808 -35.18286,19.79303 -11.84778,6.3918 -23.82416,12.56126 -35.99744,18.35018 -12.18335,5.75875 -24.54772,11.2015 -37.30377,15.67671 -6.38277,2.21246 -12.86772,4.19679 -19.5178,5.52268 -3.32239,0.65209 -6.68977,1.16074 -10.08627,1.25496 -1.69639,0.0444 -3.39967,-0.006 -5.08019,-0.23395 -1.6784,-0.22601 -3.342498,-0.64997 -4.858938,-1.37723" fill="none" stroke="#000" stroke-linecap="round" stroke-linejoin="round" stroke-miterlimit="10"/><path class="bp inner" d="m 98.351752,291.80835 c 1.57995,0.57853 3.245118,0.82359 4.902348,0.90828 1.65987,0.0789 3.32345,-0.0169 4.9722,-0.2043 3.29912,-0.39699 6.55005,-1.12318 9.75335,-2.01609 3.2033,-0.89716 6.36056,-1.96263 9.48446,-3.1181 3.12708,-1.14539 6.22135,-2.39029 9.28915,-3.69608 12.27387,-5.22839 24.19732,-11.29042 35.97788,-17.60122 11.78107,-6.31821 23.4023,-12.94817 34.94308,-19.71999 11.53761,-6.77765 22.99106,-13.7072 34.38363,-20.74101 22.77827,-14.07718 45.36811,-28.48197 67.80181,-43.13289 22.41518,-14.66205 44.78218,-29.48129 66.86866,-44.56836 l 0.17202,-0.11702 0.13923,-0.0821 c 15.57297,-9.09438 31.07235,-18.51321 46.37378,-28.14218 15.29931,-9.649599 30.42924,-19.565969 45.17492,-29.974049 7.36886,-5.20563 14.64087,-10.53935 21.69533,-16.10649 7.04493,-5.56344 13.93161,-11.34388 20.16567,-17.59488 3.0932,-3.12496 6.05409,-6.38913 8.39622,-9.82955 1.15704,-1.70751 2.16006,-3.48384 2.71582,-5.13523 0.27735,-0.81883 0.4282,-1.59477 0.42768,-2.21193 0.001,-0.628283 -0.11538,-1.053307 -0.33612,-1.440222 -0.21859,-0.38585 -0.61186,-0.795 -1.2195,-1.189327 -0.60233,-0.392211 -1.38569,-0.746838 -2.2532,-1.030017 -0.8797,-0.279999 -1.7885,-0.504949 -2.73171,-0.638332 -0.93843,-0.143435 -1.90176,-0.22441 -2.88519,-0.22654 -3.93427,-0.04231 -8.06118,0.906687 -12.07484,2.304565 -4.02636,1.410571 -7.96167,3.308623 -11.79748,5.430583 -3.83634,2.12935 -7.57847,4.49742 -11.2338,7.01794 -7.31699,5.03943 -14.27723,10.68544 -21.04164,16.56433 -13.51241,11.79907 -26.09061,24.74567 -38.06065,38.20673 -23.92844,26.965539 -45.38612,56.117599 -65.27919,86.066769 -9.91107,14.99921 -19.45376,30.21541 -28.32159,45.67457 -1.11417,1.92823 -2.21141,3.86335 -3.29646,5.80215 l -1.67788,2.98683 c -0.57905,1.01572 -1.14221,2.0399 -1.7345,3.04875 -2.32942,4.05705 -4.7896,8.04107 -7.30799,11.99068 -5.06378,7.88122 -10.49225,15.54491 -16.28858,22.92964 -11.57412,14.78326 -24.66043,28.41847 -38.97315,40.56899 -14.29312,12.18016 -29.84543,22.7915 -46.08954,31.98008 -16.25416,9.18595 -33.21705,16.94279 -50.56528,23.45578 -4.34022,1.6223 -8.69686,3.18954 -13.08261,4.66046 -4.38523,1.46668 -8.73763,2.86508 -13.1456,4.21319 -8.79744,2.70418 -17.70709,5.12835 -26.73266,7.19367 -9.031908,2.0415 -18.183438,3.73155 -27.486888,4.74727 -9.29815,0.99614 -18.75509,1.41586 -28.29036,0.50865 -4.76208,-0.45838 -9.5448,-1.2375 -14.25183,-2.56444 -2.35166,-0.66162 -4.69116,-1.42276 -6.98194,-2.36385 -2.28815,-0.94214 -4.53344,-2.03196 -6.70143,-3.28586 -4.338115,-2.49564 -8.328478,-5.7307 -11.653518,-9.53316 -3.3515068,-3.78924 -5.9720498,-8.14587 -7.9537348,-12.67983 l -0.101575,-0.23289 -0.06617,-0.2149 c -1.50531903,-4.87481 -2.48929003,-10.05504 -2.36120303,-15.41257 0.06932,-2.67136 0.392751,-5.37765 1.07130703,-8.02784 0.67062,-2.65019 1.682633,-5.23951 3.011689,-7.65468 2.660782,-4.84307 6.5749268,-8.90224 11.0104338,-11.89436 4.437083,-3.01751 9.346301,-5.0876 14.359271,-6.42989 5.01615,-1.35818 10.15984,-1.98221 15.28396,-2.04679 5.12677,-0.0641 10.24348,0.46314 15.26015,1.51749 10.02487,2.10131 19.68877,6.42461 27.94897,12.8979 l -0.55417,-0.4065 c 3.15937,2.01185 5.73863,4.20261 8.20251,6.40979 2.44164,2.22039 4.734018,4.47148 6.963418,6.74535 4.45508,4.54295 8.69527,9.12506 12.90001,13.70295 l 24.89175,27.27306 c 8.24539,9.01761 16.46218,17.98549 25.04472,26.55321 8.56137,8.58148 17.41702,16.82368 26.60933,24.61069 18.36022,15.60419 38.05957,29.40877 58.94931,40.90774 20.8977,11.46933 43.05192,20.55893 66.16207,26.59819 l -0.84741,-0.15243 c 4.96533,0.78494 9.92378,1.35924 14.81871,1.60589 4.89123,0.24718 9.72687,0.16037 14.35452,-0.43615 4.61917,-0.60709 9.02873,-1.7292 12.89207,-3.61615 3.87181,-1.87212 7.16827,-4.52019 9.71736,-8.00613 2.55808,-3.47536 4.32012,-7.7886 5.39088,-12.47605 1.05806,-4.69487 1.45186,-9.73165 1.40634,-14.84041 -0.0301,-5.11723 -0.50283,-10.31758 -1.17768,-15.54014 -0.34617,-2.61049 -0.73679,-5.23157 -1.15546,-7.86164 -0.19849,-1.31848 -0.41603,-2.63643 -0.59916,-3.96762 -0.12235,-1.21856 -0.15039,-3.56957 -0.15039,-3.56957" fill="none" stroke="#000" stroke-linecap="round" stroke-linejoin="round" stroke-miterlimit="10"/>
    </svg>