<svg class="drop-cap uppercase-L" viewBox="0 0 2000 2000" xmlns="http://www.w3.org/2000/svg">
	<path class="bp inner" d="M1406.57,1606.48c-.52-.3-1.32-.5-1.36,.05-.11,.5,.01,1.12,.14,1.7,.28,1.18,.69,2.35,1.11,3.52,.85,2.33,1.8,4.65,2.77,6.97l5.86,13.92c3.87,9.33,7.64,18.75,11.07,28.34,6.92,19.16,12.69,38.94,16.65,59.45,3.86,20.5,5.98,41.81,4.48,63.77-1.42,21.87-6.74,44.7-18.17,65.72-5.67,10.48-12.85,20.36-21.21,29.13-8.35,8.78-17.87,16.4-27.93,22.8-20.23,12.78-42.36,20.64-64.23,25.5-21.94,4.88-43.83,6.88-65.37,7.34-21.55,.43-42.79-.77-63.74-2.92l-.72-.07-2.48-.5c-94.47-19.07-186.34-52.5-271.25-98.15-85.06-45.53-163.12-102.68-234.44-166.06-35.75-31.65-69.77-64.99-102.62-99.22-32.77-34.31-64.49-69.45-94.49-105.77-15.01-18.15-29.64-36.54-44.01-55.05l-42.62-55.49c-7.06-9.19-14.18-18.32-21.31-27.32-7.13-9.02-14.33-17.92-21.65-26.52-7.33-8.59-14.74-16.99-22.35-24.73-7.55-7.73-15.41-14.89-22.91-20.2l-1.78-1.26-.32-.27c-24.11-20.87-53.79-36.07-85.49-44.28-31.63-8.22-65.52-9.8-97.01-2.62-15.68,3.64-30.68,9.53-43.73,17.88-12.97,8.43-23.89,19.35-31.23,32.33-7.28,13-11.14,27.88-11.47,43.41-.34,15.54,2.63,31.55,7.53,47.21l-.63-1.69c6.42,14.15,14.49,27.35,24.77,38.55,5.1,5.63,10.65,10.82,16.6,15.53,5.96,4.72,12.4,8.85,19.11,12.56,13.43,7.44,28.16,12.86,43.52,16.6,15.35,3.78,31.32,5.86,47.47,6.86,16.17,.97,32.54,.67,48.94-.41,16.41-1.08,32.84-3.04,49.24-5.64,32.8-5.16,65.43-12.79,97.77-21.72,32.35-8.97,64.41-19.36,96.28-30.53,15.9-5.59,31.87-11.44,47.57-17.43,15.68-6.03,31.25-12.28,46.65-18.93,61.61-26.53,120.78-58.19,176.58-94.56,55.82-36.35,108.26-77.29,157.19-121.79,48.92-44.52,94.33-92.71,135.82-144.2,20.81-25.7,40.48-52.34,59.25-79.65,9.35-13.68,18.47-27.53,27.36-41.55,2.25-3.49,4.4-7.04,6.6-10.56l6.7-10.86c4.58-7.45,9.19-14.86,13.86-22.23,37.51-58.83,77.89-115.23,120.06-170.12,42.22-54.84,86.05-108.27,131.4-160.33,45.29-52.1,91.81-103.07,139.92-152.55,48.18-49.4,97.81-97.49,150.68-142.32,26.48-22.36,53.91-43.75,82.9-63.32,14.49-9.79,29.42-19.06,44.97-27.5,15.55-8.42,31.74-16.02,48.88-22.01,17.15-5.86,35.43-10.26,54.92-10.04,4.85,.04,9.77,.45,14.69,1.22,4.92,.73,9.83,1.93,14.66,3.5,4.84,1.63,9.81,3.71,14.74,6.88,4.88,3.14,9.84,7.6,13.3,13.59,3.52,5.94,5.04,12.99,4.95,19.16-.04,6.25-1.33,11.79-2.99,16.81-3.41,10.02-8.3,18.27-13.47,26.01-10.47,15.34-22.4,28.51-34.69,41.15-12.33,12.57-25.15,24.41-38.21,35.88-13.07,11.46-26.35,22.58-39.82,33.43-26.95,21.68-54.46,42.47-82.28,62.76-55.7,40.53-112.65,79.06-170.18,116.64-28.79,18.76-57.71,37.29-86.85,55.49-29.16,18.22-58.33,36.19-88.02,53.83l1.18-.75c-41.7,29.2-83.62,57.66-125.78,85.95-21.1,14.1-42.24,28.13-63.43,42.09-21.21,13.93-42.5,27.74-63.82,41.5-85.37,54.92-171.6,108.54-259.37,159.7-43.88,25.57-88.11,50.59-132.84,74.73-44.73,24.13-89.95,47.43-135.92,69.29-46,21.74-92.69,42.29-140.85,59.19-24.1,8.35-48.58,15.84-73.69,20.85-12.55,2.46-25.26,4.38-38.08,4.74-6.41,.17-12.84-.02-19.18-.88-6.34-.85-12.62-2.45-18.34-5.2" fill="none" stroke="#000" stroke-linecap="round" stroke-linejoin="round" stroke-miterlimit="10"/><path class="bp inner" d="M1406.57,1606.48c-.23-.21-.48-.42-.8-.56-.31-.18-.87,0-1.04,.38-.36,.68-.38,1.35-.43,2.01-.06,1.31,.02,2.6,.11,3.88,.22,2.55,.55,5.08,.89,7.59,.69,5.03,1.51,10,2.26,14.98,1.58,9.93,3.06,19.83,4.36,29.68,2.55,19.72,4.33,39.35,4.45,58.68,.17,19.29-1.32,38.31-5.31,56.03-4.04,17.7-10.7,33.99-20.35,47.11-9.63,13.16-22.07,23.16-36.69,30.23-14.59,7.12-31.24,11.36-48.68,13.65-17.47,2.25-35.73,2.58-54.2,1.65-18.48-.93-37.2-3.1-55.95-6.06l3.2,.57c-87.26-22.8-170.9-57.12-249.81-100.43-78.87-43.42-153.26-95.54-222.58-154.46-34.71-29.4-68.14-60.52-100.47-92.92-32.4-32.35-63.43-66.21-94.56-100.26l-93.98-102.98c-15.88-17.28-31.89-34.58-48.71-51.74-8.42-8.58-17.07-17.08-26.29-25.47-9.3-8.33-19.04-16.6-30.97-24.2l2.09,1.53c-31.19-24.44-67.68-40.76-105.53-48.7-18.94-3.98-38.26-5.97-57.62-5.73-19.35,.24-38.77,2.6-57.71,7.73-18.93,5.07-37.46,12.88-54.22,24.28-16.75,11.29-31.52,26.62-41.57,44.91-5.02,9.12-8.84,18.9-11.37,28.9-2.56,10.01-3.78,20.23-4.04,30.31-.48,20.23,3.23,39.79,8.91,58.19l.25,.81,.38,.88c7.48,17.12,17.38,33.57,30.03,47.88,12.56,14.36,27.62,26.57,44,36,8.18,4.73,16.66,8.85,25.3,12.41,8.65,3.55,17.48,6.43,26.36,8.93,17.77,5.01,35.83,7.95,53.81,9.68,36,3.43,71.71,1.84,106.82-1.92,35.13-3.83,69.68-10.22,103.78-17.92,34.08-7.8,67.72-16.95,100.94-27.16,16.64-5.09,33.08-10.37,49.63-15.91,16.56-5.56,33.01-11.47,49.4-17.6,65.5-24.59,129.55-53.88,190.92-88.56,61.33-34.69,120.05-74.76,174.02-120.75,54.04-45.88,103.45-97.36,147.15-153.18,21.89-27.88,42.38-56.82,61.5-86.58,9.51-14.91,18.8-29.95,27.59-45.27,2.23-3.81,4.36-7.68,6.55-11.51l6.34-11.28c4.1-7.32,8.24-14.63,12.45-21.91,33.48-58.37,69.51-115.82,106.93-172.46,75.11-113.08,156.13-223.15,246.48-324.97,45.2-50.83,92.69-99.71,143.71-144.26,25.54-22.2,51.82-43.52,79.45-62.54,13.8-9.52,27.93-18.46,42.42-26.5,14.48-8.01,29.34-15.18,44.54-20.5,15.15-5.28,30.74-8.86,45.59-8.7,3.71,0,7.35,.31,10.89,.86,3.56,.5,6.99,1.35,10.31,2.41,3.28,1.07,6.23,2.41,8.51,3.89,2.29,1.49,3.78,3.03,4.6,4.49,.83,1.46,1.27,3.07,1.27,5.44,0,2.33-.57,5.26-1.61,8.35-2.1,6.23-5.89,12.94-10.26,19.39-8.84,12.99-20.02,25.31-31.7,37.11-23.54,23.6-49.54,45.43-76.14,66.43-26.63,21.02-54.09,41.16-81.91,60.81-55.68,39.3-112.8,76.74-170.57,113.17-57.77,36.36-116.29,71.92-175.09,106.26l-.53,.31-.65,.44c-83.39,56.96-167.85,112.92-252.48,168.28-84.7,55.32-170,109.7-256,162.86-43.01,26.56-86.26,52.72-129.82,78.31-43.57,25.57-87.45,50.6-131.93,74.46-44.48,23.83-89.5,46.72-135.84,66.46-11.58,4.93-23.26,9.63-35.07,13.95-11.8,4.36-23.72,8.39-35.81,11.77-12.09,3.37-24.37,6.11-36.83,7.61-6.23,.71-12.51,1.07-18.77,.77-6.26-.32-12.54-1.25-18.51-3.43" fill="none" stroke="#000" stroke-linecap="round" stroke-linejoin="round" stroke-miterlimit="10"/>
    </svg>