<svg class="drop-cap uppercase-L" viewBox="0 0 2000 2000" xmlns="http://www.w3.org/2000/svg">
	<path class="bp inner" d="M372.35,1102.79c5.73,2.74,12.01,4.35,18.34,5.2,6.35,.86,12.78,1.05,19.18,.88,12.83-.36,25.54-2.28,38.08-4.74,25.11-5.01,49.59-12.5,73.69-20.85,48.16-16.9,94.85-37.45,140.85-59.19,45.96-21.86,91.18-45.15,135.92-69.29,44.73-24.15,88.96-49.16,132.84-74.73,87.77-51.16,174-104.79,259.37-159.7,21.32-13.76,42.61-27.57,63.82-41.5,21.19-13.96,42.33-27.99,63.43-42.09,42.16-28.29,84.08-56.76,125.78-85.95l-1.18,.75c29.69-17.64,58.86-35.6,88.02-53.83,29.14-18.2,58.06-36.73,86.85-55.49,57.54-37.57,114.49-76.11,170.18-116.64,27.82-20.3,55.34-41.09,82.28-62.76,13.47-10.85,26.75-21.97,39.82-33.43,13.06-11.47,25.88-23.3,38.21-35.88,12.29-12.63,24.21-25.81,34.69-41.15,5.17-7.74,10.06-16,13.47-26.01,1.66-5.02,2.95-10.56,2.99-16.81,.09-6.18-1.43-13.22-4.95-19.16-3.46-5.99-8.42-10.45-13.3-13.59-4.93-3.17-9.9-5.25-14.74-6.88-4.83-1.57-9.74-2.77-14.66-3.5-4.92-.77-9.84-1.18-14.69-1.22-19.49-.22-37.78,4.17-54.92,10.04-17.14,5.99-33.33,13.59-48.88,22.01-15.55,8.44-30.48,17.71-44.97,27.5-28.99,19.57-56.42,40.96-82.9,63.32-52.87,44.83-102.5,92.92-150.68,142.32-48.11,49.48-94.64,100.45-139.92,152.55-45.35,52.06-89.18,105.49-131.4,160.33-42.17,54.88-82.55,111.28-120.06,170.12-4.67,7.37-9.28,14.78-13.86,22.23l-6.7,10.86c-2.2,3.52-4.35,7.07-6.6,10.56-8.88,14.02-18.01,27.87-27.36,41.55-18.77,27.32-38.44,53.96-59.25,79.65-41.5,51.49-86.9,99.68-135.82,144.2-48.93,44.5-101.37,85.44-157.19,121.79-55.79,36.37-114.97,68.03-176.58,94.56-15.4,6.65-30.98,12.9-46.65,18.93-15.7,5.99-31.66,11.84-47.57,17.43-31.87,11.17-63.93,21.57-96.28,30.53-32.34,8.93-64.97,16.56-97.77,21.72-16.39,2.6-32.83,4.56-49.24,5.64-16.4,1.08-32.77,1.38-48.94,.41-16.15-1-32.12-3.08-47.47-6.86-15.36-3.74-30.09-9.17-43.52-16.6-6.71-3.71-13.15-7.85-19.11-12.56-5.96-4.71-11.51-9.9-16.6-15.53-10.27-11.2-18.35-24.4-24.77-38.55l.63,1.69c-4.89-15.66-7.86-31.66-7.53-47.21,.33-15.54,4.19-30.42,11.47-43.41,7.34-12.98,18.26-23.89,31.23-32.33,13.06-8.35,28.05-14.24,43.73-17.88,31.49-7.18,65.38-5.6,97.01,2.62,31.7,8.21,61.39,23.41,85.49,44.28l.32,.27,1.78,1.26c7.5,5.32,15.36,12.47,22.91,20.2,7.61,7.74,15.02,16.14,22.35,24.73,7.32,8.6,14.52,17.5,21.65,26.52,7.14,9,14.25,18.13,21.31,27.32l42.62,55.49c14.37,18.5,29,36.89,44.01,55.05,30.01,36.32,61.72,71.46,94.49,105.77,32.85,34.23,66.87,67.57,102.62,99.22,71.32,63.38,149.38,120.53,234.44,166.06,84.91,45.65,176.79,79.08,271.25,98.15l2.48,.5,.72,.07c20.95,2.15,42.18,3.35,63.74,2.92,21.54-.47,43.43-2.46,65.37-7.34,21.87-4.86,44.01-12.72,64.23-25.5,10.07-6.39,19.58-14.01,27.93-22.8,8.36-8.77,15.54-18.65,21.21-29.13,11.43-21.02,16.75-43.85,18.17-65.72,1.5-21.96-.62-43.27-4.48-63.77-3.96-20.51-9.73-40.29-16.65-59.45-3.43-9.59-7.2-19.01-11.07-28.34l-5.86-13.92c-.97-2.31-1.92-4.63-2.77-6.97-.43-1.17-.84-2.34-1.11-3.52-.13-.58-.24-1.2-.14-1.7,.04-.54,.84-.35,1.36-.05" fill="none" stroke="#000" stroke-linecap="round" stroke-linejoin="round" stroke-miterlimit="10"/><path class="bp inner" d="M372.35,1102.79c5.97,2.18,12.25,3.11,18.51,3.43,6.27,.3,12.55-.06,18.77-.77,12.45-1.5,24.73-4.24,36.83-7.61,12.1-3.39,24.02-7.41,35.81-11.77,11.81-4.32,23.49-9.02,35.07-13.95,46.34-19.74,91.36-42.63,135.84-66.46,44.48-23.86,88.36-48.89,131.93-74.46,43.56-25.59,86.81-51.75,129.82-78.31,86.01-53.15,171.3-107.54,256-162.86,84.63-55.36,169.09-111.32,252.48-168.28l.65-.44,.53-.31c58.8-34.34,117.32-69.9,175.09-106.26,57.77-36.43,114.9-73.88,170.57-113.17,27.82-19.66,55.28-39.79,81.91-60.81,26.6-21.01,52.6-42.83,76.14-66.43,11.68-11.8,22.86-24.12,31.7-37.11,4.37-6.45,8.15-13.16,10.26-19.39,1.04-3.09,1.61-6.02,1.61-8.35,0-2.37-.44-3.98-1.27-5.44-.83-1.46-2.31-3-4.6-4.49-2.27-1.48-5.23-2.82-8.51-3.89-3.32-1.06-6.75-1.91-10.31-2.41-3.54-.54-7.18-.85-10.89-.86-14.86-.16-30.44,3.42-45.59,8.7-15.2,5.33-30.06,12.49-44.54,20.5-14.49,8.04-28.61,16.98-42.42,26.5-27.63,19.03-53.91,40.35-79.45,62.54-51.02,44.55-98.51,93.43-143.71,144.26-90.35,101.81-171.37,211.88-246.48,324.97-37.42,56.63-73.45,114.08-106.93,172.46-4.21,7.28-8.35,14.59-12.45,21.91l-6.34,11.28c-2.18,3.84-4.31,7.7-6.55,11.51-8.8,15.32-18.09,30.36-27.59,45.27-19.12,29.76-39.62,58.69-61.5,86.58-43.7,55.82-93.11,107.3-147.15,153.18-53.97,45.99-112.69,86.05-174.02,120.75-61.37,34.68-125.42,63.97-190.92,88.56-16.39,6.13-32.84,12.04-49.4,17.6-16.56,5.54-32.99,10.82-49.63,15.91-33.22,10.21-66.86,19.36-100.94,27.16-34.1,7.71-68.66,14.09-103.78,17.92-35.11,3.76-70.81,5.35-106.82,1.92-17.98-1.73-36.04-4.67-53.81-9.68-8.88-2.5-17.71-5.37-26.36-8.93-8.64-3.56-17.12-7.67-25.3-12.41-16.38-9.42-31.45-21.64-44-36-12.65-14.31-22.55-30.76-30.03-47.88l-.38-.88-.25-.81c-5.68-18.41-9.4-37.97-8.91-58.19,.26-10.09,1.48-20.3,4.04-30.31,2.54-10,6.36-19.78,11.37-28.9,10.05-18.29,24.82-33.61,41.57-44.91,16.75-11.39,35.29-19.21,54.22-24.28,18.94-5.13,38.36-7.48,57.71-7.73,19.36-.24,38.68,1.75,57.62,5.73,37.85,7.94,74.34,24.26,105.53,48.7l-2.09-1.53c11.93,7.6,21.67,15.87,30.97,24.2,9.22,8.38,17.88,16.88,26.29,25.47,16.82,17.15,32.83,34.46,48.71,51.74l93.98,102.98c31.13,34.05,62.16,67.91,94.56,100.26,32.33,32.4,65.76,63.52,100.47,92.92,69.32,58.92,143.7,111.04,222.58,154.46,78.91,43.3,162.55,77.62,249.81,100.43l-3.2-.57c18.75,2.96,37.47,5.13,55.95,6.06,18.47,.93,36.73,.61,54.2-1.65,17.44-2.29,34.09-6.53,48.68-13.65,14.62-7.07,27.07-17.07,36.69-30.23,9.66-13.12,16.31-29.41,20.35-47.11,4-17.72,5.48-36.74,5.31-56.03-.12-19.32-1.9-38.96-4.45-58.68-1.31-9.86-2.78-19.75-4.36-29.68-.75-4.98-1.57-9.95-2.26-14.98-.34-2.52-.68-5.04-.89-7.59-.09-1.28-.17-2.57-.11-3.88,.05-.65,.07-1.33,.43-2.01,.17-.38,.73-.55,1.04-.38,.32,.13,.57,.34,.8,.56" fill="none" stroke="#000" stroke-linecap="round" stroke-linejoin="round" stroke-miterlimit="10"/>
    </svg>