<?xml version="1.0" encoding="UTF-8"?>
<svg id="Layer_2" data-name="Layer 2" xmlns="http://www.w3.org/2000/svg" viewBox="0 0 2000 2000">
  <defs>
    <style>
      .cls-1 {
        fill: none;
        stroke: #231f20;
        stroke-miterlimit: 10;
      }
    </style>
  </defs>
  <path class="cls-1" d="M1822.92,406.54c-.18-2.9,.85-5.81,2.29-8.36,1.45-2.57,3.31-4.9,5.37-7.02,4.16-4.22,9.17-7.58,14.59-10.13,10.75-5.14,24.01-6.53,35.94-1.93,5.93,2.23,11.33,5.85,15.82,10.23,4.48,4.26,8.52,9.82,10.79,16,2.36,6.18,3.15,12.87,2.74,19.33-.42,6.48-2.01,12.72-4.25,18.58-4.49,11.77-11.58,22-19.47,31.18-7.97,9.15-16.96,17.19-26.43,24.47-19.02,14.48-39.99,25.82-61.63,35.14-21.67,9.31-44.11,16.42-66.67,22.38-22.59,5.91-45.37,10.73-68.28,14.68-22.9,3.99-45.91,7.16-69,9.62-23.08,2.52-46.26,4.19-69.51,5.17-23.26,.88-46.57,1.07-70.11-.32-11.78-.73-23.58-1.81-35.66-3.99l-4.54-.86-4.61-1.08c-1.52-.32-3.1-.8-4.67-1.27-1.49-.45-3.37-.99-4.38-1.34-4.95-1.57-10.43-3-15.85-4.36-21.87-5.37-44.29-9.86-66.7-13.86-22.44-3.99-44.99-7.45-67.59-10.35-45.17-5.72-90.67-9.5-135.75-8.9-22.5,.36-44.94,1.85-66.59,5.66-10.8,1.93-21.39,4.46-31.37,7.92-9.96,3.45-19.35,7.89-26.97,13.65-3.8,2.88-7.14,6.07-9.83,9.56-1.36,1.74-2.55,3.55-3.57,5.44-.52,.94-1,1.9-1.42,2.88l-.32,.74-.16,.37c-.04,.09,0,.06-.02,.09-.03,.05-.05,.12-.06,.22-.1,.31-.08,1.16,.22,2.39,.35,1.25,1.04,2.82,2.02,4.44,1.96,3.25,5.01,6.6,8.51,9.48,3.51,2.89,7.49,5.42,11.68,7.33,2.09,.96,4.24,1.79,6.4,2.47,1.08,.34,2.17,.63,3.26,.89l4.07,.91c11.02,2.52,22.11,4.66,33.22,6.71,44.45,7.86,89.58,11.59,134.4,9.61,44.78-1.99,89.24-9.75,131.38-24.29,42.13-14.49,81.85-35.74,117.07-62.94,70.64-54.32,122.6-131.87,149.85-216.73,13.52-42.41,21.19-87,19.67-130.92-.79-21.89-3.92-43.62-10.51-63.75-6.58-20.01-16.93-38.57-31.66-50.86l-.53-.44-.66-.67c-5.66-5.81-13.99-11.14-22.8-15.51-8.87-4.43-18.46-8.09-28.31-11.18-19.73-6.18-40.51-10.15-61.49-12.6-42.06-4.77-85.03-3.61-127.45,1.62-42.45,5.24-84.44,14.75-125.43,27.47-41,12.73-81.03,28.71-119.78,47.4-38.77,18.65-76.3,39.94-112.53,63.27-36.21,23.38-71.07,48.88-104.65,75.99-67.16,54.24-129.04,115.1-185.53,180.59-56.62,65.41-108.04,135.28-155.11,207.9-47.11,72.63-89.75,148.1-129.09,225.19-4.96,9.61-9.75,19.33-14.62,28.98l-7.06,14.36c-2.36,4.78-4.73,9.55-6.89,14.44l-13.32,29.11-12.95,29.52c-17.01,39.44-32.73,79.26-47,119.3-3.55,10.02-7.16,20.01-10.38,30.08-3.33,10.05-6.7,20.09-9.69,30.19l-4.67,15.11c-1.53,5.04-2.91,10.1-4.37,15.15l-4.31,15.15-3.95,15.19c-5.31,20.25-9.77,40.55-14.03,60.82-3.82,20.3-7.51,40.59-9.92,60.88l-1.04,7.6-.82,7.59c-.53,5.06-1.15,10.12-1.61,15.18-.81,10.11-1.72,20.22-2.12,30.3-.96,20.17-1.28,40.28-.51,60.29,1.45,40.07,6.44,79.7,14.67,119.81,2.03,10.04,4.22,20.12,6.59,30.28l3.65,15.3,1.89,7.69,1.78,6.82c1.09,4.47,2.53,8.83,3.78,13.25,1.48,4.34,2.74,8.75,4.36,13.03,3.01,8.65,6.46,17.11,10.16,25.45,14.89,33.31,35.13,64.12,60.08,91.08,24.86,27.04,54.48,50.16,87.38,68.21,32.88,18.04,69.12,31,106.93,37.32,37.77,6.35,77.04,6.3,115.48-.89,9.62-1.75,19.14-4.1,28.63-6.67,9.44-2.71,18.84-5.72,28.09-9.22,9.2-3.6,18.38-7.39,27.33-11.75,9.17-4.37,18.51-9.3,27.55-14.27,36.31-20.05,70.39-43.89,100.9-71.55,30.5-27.65,57.31-59.28,78.68-94.39,21.38-35.07,37.2-73.66,45.88-114.03,8.68-40.31,10.34-82.47,3.34-123.31-3.49-20.39-9.14-40.43-17.2-59.4-8.08-18.92-18.61-36.81-31.93-52.13-13.27-15.3-29.47-28-47.95-35.43-4.61-1.85-9.34-3.39-14.17-4.54l-3.62-.79c-1.19-.2-2.26-.48-3.55-.62-2.58-.28-5.1-.64-7.74-.88-10.54-1.04-21.16-1.47-31.79-1.29-42.58,.71-85.09,11.76-124.24,30.28-19.59,9.27-38.43,20.32-56.26,32.88-17.79,12.6-34.85,26.46-50.08,42.25"/>
  <path class="cls-1" d="M580.6,1401.52c14.18-16.76,30.37-31.8,47.48-45.69,17.16-13.84,35.52-26.32,54.92-37.1,38.75-21.54,82.15-36.09,127.27-39.83,11.26-.96,22.6-1.27,33.94-.92,2.83,.06,5.77,.26,8.65,.4,1.44,.06,3.07,.32,4.59,.48l4.47,.66c5.92,.99,11.76,2.45,17.47,4.31,22.9,7.44,43.13,21.3,59.71,37.97,16.66,16.73,29.97,36.28,40.55,56.99,10.54,20.76,18.37,42.75,23.83,65.26,10.87,45.08,12.36,92.19,5.8,138.17-6.56,46.02-21.35,90.91-42.78,132.35-21.4,41.49-49.32,79.51-81.54,113.11-32.19,33.7-68.7,62.84-107.28,88.35-9.72,6.37-19.37,12.4-29.5,18.43-10.29,6.16-20.95,11.74-31.76,17.08-10.87,5.21-21.93,10.1-33.22,14.52-11.32,4.33-22.82,8.26-34.49,11.73-46.71,13.77-96.22,19.78-145.67,17-49.43-2.75-98.79-14.04-145-33.84-46.22-19.75-89.21-48.08-125.95-83.46-36.7-35.39-66.94-77.94-88.3-124.47-5.35-11.63-10.24-23.46-14.44-35.52-2.22-5.99-4.09-12.09-6.04-18.16-1.74-6.13-3.63-12.22-5.13-18.4-.76-3.02-1.63-6.3-2.29-9.11l-1.92-8.31-3.75-16.74c-2.46-11.22-4.78-22.6-6.92-34.08-8.57-45.94-13.66-93.75-13.85-141.36-.24-23.82,.98-47.59,3.07-71.14,.95-11.8,2.43-23.49,3.84-35.19,.76-5.84,1.69-11.63,2.53-17.44l1.3-8.71,1.52-8.65c3.9-23.12,9.17-45.78,14.59-68.33l4.43-16.77c1.48-5.59,2.92-11.19,4.59-16.69,3.29-11.04,6.45-22.12,10.09-32.99l5.3-16.36,5.63-16.2c1.9-5.38,3.73-10.8,5.7-16.15l6.02-15.99c3.95-10.69,8.26-21.19,12.53-31.7,4.18-10.56,8.7-20.93,13.17-31.32,17.98-41.51,37.72-81.94,58.35-121.69l15.7-29.68,16.27-29.63c2.66-4.96,5.54-9.81,8.42-14.66l8.6-14.56c5.76-9.52,11.43-19.08,17.26-28.54,92.94-151.6,198.08-296.14,319.73-425.96,61.06-64.61,126.07-125.72,196.62-180.14,70.57-54.29,146.51-102.13,227.75-139.39,81.14-37.19,167.69-64.02,257.07-74.02,44.63-4.94,89.95-5.67,135.01-.02,22.52,2.84,44.98,7.24,67.06,14.34,11.03,3.57,21.97,7.79,32.68,13.24,10.68,5.52,21.27,11.9,30.94,21.86l-1.18-1.11c10.25,8.73,18.52,19.18,25.08,30.21,6.56,11.06,11.48,22.72,15.3,34.53,7.53,23.69,10.72,47.97,11.42,71.99,.67,24.05-1.26,47.94-5.02,71.42-3.74,23.49-9.42,46.59-16.71,69.13-14.62,45.06-35.73,87.96-62.65,126.95-26.88,39-59.74,74.01-97.42,102.92-37.64,28.95-80.14,51.57-125.02,66.89-44.88,15.38-91.99,23.46-139.06,25.45-47.11,1.97-94.19-2.04-140.26-10.29-11.51-2.14-22.99-4.38-34.38-7.01l-4.34-.98c-1.71-.41-3.39-.87-5.06-1.39-3.32-1.05-6.55-2.31-9.67-3.75-6.25-2.89-12.07-6.58-17.42-11-5.33-4.46-10.25-9.62-14.26-16.21-1.98-3.31-3.74-7-4.92-11.29-1.11-4.31-1.68-9.34-.54-14.67,.26-1.32,.64-2.63,1.13-3.92l.34-.93,.27-.62,.54-1.24c.72-1.65,1.53-3.27,2.4-4.85,1.72-3.17,3.71-6.17,5.89-8.95,4.35-5.61,9.45-10.38,14.81-14.43,10.79-8.08,22.55-13.4,34.27-17.46,11.76-4.06,23.64-6.73,35.48-8.79,23.7-4,47.31-5.37,70.77-5.61,46.92-.33,93.31,3.86,139.3,9.97,23,3.1,45.9,6.76,68.71,10.96,22.82,4.25,45.51,8.85,68.25,14.69,5.72,1.5,11.35,3.01,17.35,4.97,1.7,.6,2.59,.82,3.85,1.22,1.17,.37,2.34,.75,3.63,1.03l3.78,.93,3.92,.78c10.53,2.02,21.66,3.18,32.81,3.98,22.37,1.56,45.1,1.61,67.79,.97,45.42-1.5,90.93-5.66,135.84-12.87,44.86-7.26,89.45-17.28,131.09-33.93,20.76-8.4,40.86-18.49,58.99-31.17,9.04-6.34,17.62-13.32,25.15-21.16,7.56-7.79,14.13-16.5,18.52-25.99,4.36-9.43,6.3-19.91,3.5-29.37-1.41-4.75-3.84-9.02-7.37-12.99-3.44-3.92-7.51-7.24-12.16-9.54-9.29-4.73-20.8-4.74-31.24-1.24-5.23,1.75-10.23,4.4-14.65,7.85-2.19,1.74-4.24,3.69-5.92,5.95-1.66,2.25-3.04,4.82-3.29,7.71"/>
</svg>