<?xml version="1.0" encoding="UTF-8"?>
<svg id="Layer_2" data-name="Layer 2" xmlns="http://www.w3.org/2000/svg" viewBox="0 0 2000 2000">
  <defs>
    <style>
      .cls-1 {
        fill: none;
        stroke: #231f20;
        stroke-miterlimit: 10;
      }
    </style>
  </defs>
  <path class="cls-1" d="M1822.92,406.54c-.18-2.9,.85-5.81,2.29-8.36,1.45-2.57,3.31-4.9,5.37-7.02,4.16-4.22,9.17-7.58,14.59-10.13,10.75-5.14,24.01-6.53,35.94-1.93,5.93,2.23,11.33,5.85,15.82,10.23,4.48,4.26,8.52,9.82,10.79,16,2.36,6.18,3.15,12.87,2.74,19.33-.42,6.48-2.01,12.72-4.25,18.58-4.49,11.77-11.58,22-19.47,31.18-7.97,9.15-16.96,17.19-26.43,24.47-19.02,14.48-39.99,25.82-61.63,35.14-21.67,9.31-44.11,16.42-66.67,22.38-22.59,5.91-45.37,10.73-68.28,14.68-22.9,3.99-45.91,7.16-69,9.62-23.08,2.52-46.26,4.19-69.51,5.17-23.26,.88-46.57,1.07-70.11-.32-11.78-.73-23.58-1.81-35.66-3.99l-4.54-.86-4.61-1.08c-1.52-.32-3.1-.8-4.67-1.27-1.49-.45-3.37-.99-4.38-1.34-4.95-1.57-10.43-3-15.85-4.36-21.87-5.37-44.29-9.86-66.7-13.86-22.44-3.99-44.99-7.45-67.59-10.35-45.17-5.72-90.67-9.5-135.75-8.9-22.5,.36-44.94,1.85-66.59,5.66-10.8,1.93-21.39,4.46-31.37,7.92-9.96,3.45-19.35,7.89-26.97,13.65-3.8,2.88-7.14,6.07-9.83,9.56-1.36,1.74-2.55,3.55-3.57,5.44-.52,.94-1,1.9-1.42,2.88l-.32,.74-.16,.37c-.04,.09,0,.06-.02,.09-.03,.05-.05,.12-.06,.22-.1,.31-.08,1.16,.22,2.39,.35,1.25,1.04,2.82,2.02,4.44,1.96,3.25,5.01,6.6,8.51,9.48,3.51,2.89,7.49,5.42,11.68,7.33,2.09,.96,4.24,1.79,6.4,2.47,1.08,.34,2.17,.63,3.26,.89l4.07,.91c11.02,2.52,22.11,4.66,33.22,6.71,44.45,7.86,89.58,11.59,134.4,9.61,44.78-1.99,89.24-9.75,131.38-24.29,42.13-14.49,81.85-35.74,117.07-62.94,70.64-54.32,122.6-131.87,149.85-216.73,13.52-42.41,21.19-87,19.67-130.92-.79-21.89-3.92-43.62-10.51-63.75-6.58-20.01-16.93-38.57-31.66-50.86l-.53-.44-.66-.67c-5.66-5.81-13.99-11.14-22.8-15.51-8.87-4.43-18.46-8.09-28.31-11.18-19.73-6.18-40.51-10.15-61.49-12.6-42.06-4.77-85.03-3.61-127.45,1.62-42.45,5.24-84.44,14.75-125.43,27.47-41,12.73-81.03,28.71-119.78,47.4-38.77,18.65-76.3,39.94-112.53,63.27-36.21,23.38-71.07,48.88-104.65,75.99-67.16,54.24-129.04,115.1-185.53,180.59-56.62,65.41-108.04,135.28-155.11,207.9-47.11,72.63-89.75,148.1-129.09,225.19-4.96,9.61-9.75,19.33-14.62,28.98l-7.06,14.36c-2.36,4.78-4.73,9.55-6.89,14.44l-13.32,29.11-12.95,29.52c-17.01,39.44-32.73,79.26-47,119.3-3.55,10.02-7.16,20.01-10.38,30.08-3.33,10.05-6.7,20.09-9.69,30.19l-4.67,15.11c-1.53,5.04-2.91,10.1-4.37,15.15l-4.31,15.15-3.95,15.19c-5.31,20.25-9.77,40.55-14.03,60.82-3.82,20.3-7.51,40.59-9.92,60.88l-1.04,7.6-.82,7.59c-.53,5.06-1.15,10.12-1.61,15.18-.81,10.11-1.72,20.22-2.12,30.3-.96,20.17-1.28,40.28-.51,60.29,1.45,40.07,6.44,79.7,14.67,119.81,2.03,10.04,4.22,20.12,6.59,30.28l3.65,15.3,1.89,7.69,1.78,6.82c1.09,4.47,2.53,8.83,3.78,13.25,1.48,4.34,2.74,8.75,4.36,13.03,3.01,8.65,6.46,17.11,10.16,25.45,14.89,33.31,35.13,64.12,60.08,91.08,24.86,27.04,54.48,50.16,87.38,68.21,32.88,18.04,69.12,31,106.93,37.32,37.77,6.35,77.04,6.3,115.48-.89,9.62-1.75,19.14-4.1,28.63-6.67,9.44-2.71,18.84-5.72,28.09-9.22,9.2-3.6,18.38-7.39,27.33-11.75,9.17-4.37,18.51-9.3,27.55-14.27,36.31-20.05,70.39-43.89,100.9-71.55,30.5-27.65,57.31-59.28,78.68-94.39,21.38-35.07,37.2-73.66,45.88-114.03,8.68-40.31,10.34-82.47,3.34-123.31-3.49-20.39-9.14-40.43-17.2-59.4-8.08-18.92-18.61-36.81-31.93-52.13-13.27-15.3-29.47-28-47.95-35.43-4.61-1.85-9.34-3.39-14.17-4.54l-3.62-.79c-1.19-.2-2.26-.48-3.55-.62-2.58-.28-5.1-.64-7.74-.88-10.54-1.04-21.16-1.47-31.79-1.29-42.58,.71-85.09,11.76-124.24,30.28-19.59,9.27-38.43,20.32-56.26,32.88-17.79,12.6-34.85,26.46-50.08,42.25"/>
  <path class="cls-1" d="M1822.92,406.54c.25-2.89,1.64-5.46,3.29-7.71,1.68-2.25,3.73-4.21,5.92-5.95,4.41-3.45,9.41-6.1,14.65-7.85,10.44-3.5,21.95-3.49,31.24,1.24,4.65,2.3,8.72,5.62,12.16,9.54,3.52,3.97,5.96,8.24,7.37,12.99,2.8,9.47,.86,19.94-3.5,29.37-4.39,9.49-10.96,18.2-18.52,25.99-7.54,7.84-16.11,14.82-25.15,21.16-18.13,12.69-38.23,22.78-58.99,31.17-41.64,16.65-86.24,26.66-131.09,33.93-44.91,7.21-90.42,11.37-135.84,12.87-22.7,.63-45.43,.58-67.79-.97-11.16-.79-22.28-1.95-32.81-3.98l-3.92-.78-3.78-.93c-1.29-.28-2.46-.66-3.63-1.03-1.25-.4-2.15-.63-3.85-1.22-6-1.96-11.63-3.47-17.35-4.97-22.74-5.83-45.43-10.44-68.25-14.69-22.81-4.2-45.71-7.86-68.71-10.96-46-6.11-92.38-10.29-139.3-9.97-23.46,.24-47.07,1.61-70.77,5.61-11.84,2.06-23.72,4.73-35.48,8.79-11.73,4.06-23.48,9.38-34.27,17.46-5.37,4.05-10.46,8.81-14.81,14.43-2.18,2.79-4.17,5.79-5.89,8.95-.87,1.58-1.68,3.19-2.4,4.85l-.54,1.24-.27,.62-.34,.93c-.49,1.29-.86,2.6-1.13,3.92-1.14,5.33-.57,10.36,.54,14.67,1.17,4.29,2.93,7.98,4.92,11.29,4.01,6.59,8.93,11.75,14.26,16.21,5.36,4.42,11.17,8.11,17.42,11,3.12,1.45,6.35,2.71,9.67,3.75,1.66,.52,3.35,.98,5.06,1.39l4.34,.98c11.39,2.63,22.87,4.87,34.38,7.01,46.07,8.25,93.14,12.27,140.26,10.29,47.07-1.99,94.18-10.07,139.06-25.45,44.87-15.32,87.37-37.94,125.02-66.89,37.68-28.91,70.54-63.92,97.42-102.92,26.92-38.99,48.03-81.88,62.65-126.95,7.29-22.54,12.97-45.64,16.71-69.13,3.75-23.48,5.69-47.36,5.02-71.42-.7-24.03-3.88-48.31-11.42-71.99-3.82-11.81-8.74-23.48-15.3-34.53-6.56-11.03-14.83-21.48-25.08-30.21l1.18,1.11c-9.67-9.95-20.26-16.34-30.94-21.86-10.71-5.44-21.65-9.67-32.68-13.24-22.08-7.09-44.54-11.49-67.06-14.34-45.06-5.65-90.37-4.92-135.01,.02-89.38,10-175.93,36.83-257.07,74.02-81.25,37.26-157.19,85.1-227.75,139.39-70.55,54.43-135.56,115.54-196.62,180.14-121.65,129.82-226.78,274.36-319.73,425.96-5.84,9.47-11.5,19.03-17.26,28.54l-8.6,14.56c-2.88,4.85-5.76,9.7-8.42,14.66l-16.27,29.63-15.7,29.68c-20.64,39.75-40.38,80.18-58.35,121.69-4.47,10.39-8.99,20.76-13.17,31.32-4.27,10.51-8.57,21.01-12.53,31.7l-6.02,15.99c-1.97,5.35-3.8,10.77-5.7,16.15l-5.63,16.2-5.3,16.36c-3.64,10.87-6.8,21.95-10.09,32.99-1.67,5.51-3.11,11.11-4.59,16.69l-4.43,16.77c-5.42,22.55-10.69,45.21-14.59,68.33l-1.52,8.65-1.3,8.71c-.84,5.81-1.77,11.61-2.53,17.44-1.41,11.7-2.89,23.39-3.84,35.19-2.1,23.56-3.32,47.32-3.07,71.14,.19,47.62,5.28,95.42,13.85,141.36,2.14,11.48,4.47,22.86,6.92,34.08l3.75,16.74,1.92,8.31c.66,2.81,1.53,6.09,2.29,9.11,1.5,6.18,3.39,12.27,5.13,18.4,1.95,6.07,3.82,12.17,6.04,18.16,4.2,12.06,9.09,23.89,14.44,35.52,21.36,46.54,51.6,89.08,88.3,124.47,36.74,35.38,79.73,63.71,125.95,83.46,46.22,19.79,95.58,31.08,145,33.84,49.45,2.78,98.96-3.22,145.67-17,11.67-3.47,23.17-7.4,34.49-11.73,11.29-4.41,22.35-9.31,33.22-14.52,10.81-5.34,21.47-10.91,31.76-17.08,10.12-6.03,19.78-12.06,29.5-18.43,38.57-25.51,75.09-54.64,107.28-88.35,32.21-33.6,60.14-71.63,81.54-113.11,21.43-41.44,36.22-86.33,42.78-132.35,6.55-45.98,5.07-93.09-5.8-138.17-5.46-22.51-13.29-44.51-23.83-65.26-10.58-20.71-23.89-40.26-40.55-56.99-16.58-16.67-36.81-30.54-59.71-37.97-5.71-1.85-11.55-3.31-17.47-4.31l-4.47-.66c-1.53-.16-3.15-.42-4.59-.48-2.89-.13-5.82-.33-8.65-.4-11.34-.35-22.68-.03-33.94,.92-45.12,3.75-88.52,18.29-127.27,39.83-19.4,10.78-37.76,23.26-54.92,37.1-17.11,13.89-33.31,28.93-47.48,45.69"/>
</svg>